SplineFontDB: 3.0
FontName: LoveYaLikeASister
FullName: Love Ya Like A Sister
FamilyName: Love Ya Like A Sister
Weight: Regular
Copyright: Copyright (c) 2011 by Kimberly Geswein. All rights reserved.
Version: 001.002
ItalicAngle: 0
UnderlinePosition: -72
UnderlineWidth: 75
Ascent: 819
Descent: 205
sfntRevision: 0x00010083
LayerCount: 2
Layer: 0 1 "Back"  1
Layer: 1 1 "Fore"  0
XUID: [1021 288 713564382 13690915]
FSType: 0
OS2Version: 2
OS2_WeightWidthSlopeOnly: 0
OS2_UseTypoMetrics: 1
CreationTime: 1307063943
ModificationTime: 1307074802
PfmFamily: 17
TTFWeight: 400
TTFWidth: 5
LineGap: 0
VLineGap: 0
Panose: 2 0 0 0 0 0 0 0 0 0
OS2TypoAscent: 1046
OS2TypoAOffset: 0
OS2TypoDescent: -370
OS2TypoDOffset: 0
OS2TypoLinegap: 0
OS2WinAscent: 1046
OS2WinAOffset: 0
OS2WinDescent: 370
OS2WinDOffset: 0
HheadAscent: 1046
HheadAOffset: 0
HheadDescent: -370
HheadDOffset: 0
OS2SubXSize: 717
OS2SubYSize: 665
OS2SubXOff: 0
OS2SubYOff: 141
OS2SupXSize: 717
OS2SupYSize: 665
OS2SupXOff: 0
OS2SupYOff: 488
OS2StrikeYSize: 51
OS2StrikeYPos: 256
OS2Vendor: 'HL  '
OS2CodePages: 00000093.00000000
OS2UnicodeRanges: a000002f.5000004a.00000000.00000000
MarkAttachClasses: 1
DEI: 91125
LangName: 1033 "" "" "" "KimberlyGeswein: Love Ya Like A Sister: 2011" "LoveYaLikeASister" "Version 1.002 2007" "" "Love Ya Like A Sister is a trademark of Kimberly Geswein." "Kimberly Geswein" "Kimberly Geswein" "Copyright (c) 2011 by Kimberly Geswein. All rights reserved." "http://www.kimberlygeswein.com" "http://www.kimberlygeswein.com" "Copyright (c) 2010, Kimberly Geswein (kimberlygeswein.com)+AA0ADQAA-This Font Software is licensed under the SIL Open Font License, Version 1.1.  This license is copied available with a FAQ at:  http://scripts.sil.org/OFL" "http://scripts.sil.org/OFL" 
Encoding: UnicodeBmp
UnicodeInterp: none
NameList: Adobe Glyph List
DisplaySize: -36
AntiAlias: 1
FitToEm: 1
WinInfo: 34 34 13
BeginPrivate: 0
EndPrivate

StartChar: exclam
Encoding: 33 33 4
Width: 251
Flags: W
HStem: -5 3<146 164> 81 13<138.475 147> 240 15<102.281 121> 290 24<169.727 190.269> 537 11<139.672 142> 569 13<107 109.812> 647 13<102 106> 765 35<177.462 189.592>
VStem: 61 35<70 77.4785> 85 86<578 593 740.065 753.654> 85 17<561.266 566 582 647 660 684> 106 47<608.343 646 660 673> 121 21<261 264.507> 143 56<351.129 383.907 495 537 548 554> 158 48<383 387 681.008 698.972> 186 28<527 531> 190 18<265.532 266 740 764.968> 191 6<321.562 334>
LayerCount: 2
Fore
SplineSet
102 781 m 1,0,-1
 102 787 l 2,1,2
 102 800 102 800 149 800 c 2,3,-1
 156 800 l 2,4,5
 186 800 186 800 208 775 c 1,6,-1
 206 692 l 1,7,-1
 206 682 l 1,8,-1
 214 534 l 1,9,10
 214 462 214 462 199 415 c 1,11,-1
 199 397 l 1,12,-1
 202 383 l 1,13,-1
 197 362 l 1,14,-1
 197 346 l 2,15,16
 197 326.5 197 326.5 203 313 c 1,17,18
 200 286 200 286 195 286 c 2,19,-1
 194 286 l 1,20,21
 190 290 190 290 184 290 c 1,22,23
 142 264 142 264 142 261 c 1,24,-1
 143 260 l 1,25,26
 192 264 192 264 192 272 c 1,27,-1
 198 272 l 1,28,-1
 203 266 l 1,29,30
 203 251 203 251 111 240 c 0,31,32
 106.5 240 106.5 240 102 246 c 1,33,34
 102 253.5 102 253.5 117 255 c 1,35,-1
 121 255 l 1,36,-1
 121 258 l 2,37,38
 121 261 121 261 107 266 c 1,39,-1
 106 275 l 2,40,41
 106 280 106 280 121 285 c 1,42,43
 126 295 126 295 126 298 c 2,44,-1
 126 299 l 2,45,46
 126 303 126 303 102 306 c 0,47,48
 97 306 97 306 89 578 c 1,49,50
 85 615 85 615 85 691 c 2,51,-1
 85 723 l 2,52,53
 85 743 85 743 102 754 c 1,54,-1
 89 772 l 1,55,56
 89 778 89 778 102 781 c 1,0,-1
119 776 m 1,57,-1
 115 775 l 1,58,-1
 115 772 l 1,59,-1
 118 770 l 1,60,-1
 122 770 l 1,61,-1
 125 772 l 1,62,-1
 125 775 l 1,63,-1
 119 776 l 1,57,-1
175 755 m 2,64,-1
 175 753 l 2,65,66
 175 742 175 742 181 740 c 1,67,-1
 182 740 l 2,68,69
 188 740 188 740 190 758 c 0,70,71
 190 764 190 764 184 765 c 1,72,73
 175 765 175 765 175 755 c 2,64,-1
163 726 m 1,74,-1
 156 727 l 1,75,-1
 154 726 l 1,76,-1
 154 725 l 1,77,-1
 158 720 l 1,78,-1
 160 720 l 1,79,-1
 163 723 l 1,80,-1
 163 726 l 1,74,-1
158 714 m 1,81,-1
 156 714 l 1,82,-1
 154 712 l 1,83,-1
 153 670 l 1,84,-1
 153 643 l 2,85,86
 153 608 153 608 160 608 c 2,87,-1
 162 608 l 1,88,-1
 160 658 l 2,89,90
 160 672 160 672 167 678 c 1,91,-1
 167 681 l 1,92,93
 158 681 158 681 158 712 c 2,94,-1
 158 714 l 1,81,-1
102 684 m 1,95,-1
 102 660 l 1,96,-1
 106 660 l 1,97,-1
 106 662 l 1,98,-1
 107 673 l 1,99,100
 105 684 105 684 102 684 c 1,95,-1
106 647 m 1,101,-1
 102 647 l 1,102,-1
 102 591 l 1,103,-1
 104 582 l 1,104,-1
 108 582 l 1,105,106
 112 593 112 593 113 619 c 1,107,-1
 107 646 l 1,108,-1
 106 647 l 1,101,-1
171 586 m 2,109,-1
 171 578 l 1,110,-1
 174 574 l 1,111,-1
 177 574 l 1,112,-1
 178 582 l 1,113,-1
 178 587 l 1,114,-1
 177 594 l 1,115,-1
 175 594 l 1,116,117
 171 593 171 593 171 586 c 2,109,-1
107 569 m 1,118,-1
 104 566 l 1,119,-1
 104 561 l 1,120,-1
 107 561 l 1,121,-1
 111 565 l 1,122,-1
 110 569 l 1,123,-1
 107 569 l 1,118,-1
138 557 m 1,124,-1
 134 552 l 1,125,-1
 134 551 l 1,126,-1
 136 548 l 1,127,-1
 142 548 l 1,128,-1
 142 554 l 1,129,-1
 139 557 l 1,130,-1
 138 557 l 1,124,-1
136 499 m 1,131,-1
 138 495 l 1,132,-1
 139 495 l 2,133,134
 143 495 143 495 143 513 c 2,135,-1
 143 537 l 1,136,137
 138 537 138 537 136 499 c 1,131,-1
186 531 m 1,138,-1
 180 531 l 1,139,-1
 178 524 l 1,140,-1
 180 523 l 1,141,-1
 181 523 l 1,142,-1
 186 527 l 1,143,-1
 186 531 l 1,138,-1
119 426 m 1,144,-1
 117 419 l 1,145,-1
 115 367 l 1,146,147
 117 350 117 350 119 350 c 1,148,149
 138 362 138 362 138 376 c 2,150,-1
 138 380 l 2,151,152
 138 381 138 381 132.5 384 c 128,-1,153
 127 387 127 387 125 417 c 1,154,-1
 124 421 l 1,155,-1
 122 422 l 1,156,157
 122 426 122 426 119 426 c 1,144,-1
149 387 m 1,158,-1
 145 383 l 1,159,-1
 146 378 l 1,160,-1
 149 378 l 1,161,-1
 152 382 l 1,162,-1
 152 387 l 1,163,-1
 149 387 l 1,158,-1
122 334 m 1,164,-1
 122 333 l 1,165,-1
 125 333 l 1,166,167
 130 335 130 335 130 342 c 2,168,-1
 130 345 l 1,169,-1
 128 345 l 2,170,171
 124 345 124 345 122 334 c 1,164,-1
169 318 m 1,172,-1
 169 314 l 1,173,-1
 170 314 l 2,174,175
 190 314 190 314 191 330 c 1,176,-1
 191 334 l 1,177,-1
 188 337 l 1,178,-1
 186 337 l 2,179,180
 182 337 182 337 169 318 c 1,172,-1
124 126 m 1,181,-1
 147 131 l 1,182,183
 170 123 170 123 208 72 c 1,184,-1
 208 70 l 2,185,186
 208 55 208 55 146 2 c 1,187,-1
 146 1 l 1,188,-1
 164 -2 l 1,189,-1
 164 -5 l 1,190,-1
 146 -8 l 1,191,192
 117 -8 117 -8 74 23 c 1,193,194
 61 42 61 42 61 57 c 0,195,196
 61 103.5 61 103.5 124 126 c 1,181,-1
141 104 m 1,197,-1
 138 102 l 1,198,199
 138 96 138 96 162 94 c 1,200,-1
 163 94 l 1,201,-1
 163 98 l 2,202,203
 163 102 163 102 146 104 c 1,204,-1
 141 104 l 1,197,-1
130 76 m 2,205,-1
 130 72 l 1,206,-1
 136 72 l 1,207,208
 150 74 150 74 150 78 c 1,209,-1
 147 81 l 1,210,-1
 139 81 l 1,211,212
 130 80 130 80 130 76 c 2,205,-1
96 70 m 1,213,-1
 100 64 l 1,214,-1
 102 66 l 1,215,-1
 102 75 l 1,216,-1
 100 78 l 1,217,218
 96 77 96 77 96 70 c 1,213,-1
149 59 m 1,219,-1
 145 55 l 1,220,-1
 145 53 l 1,221,-1
 147 50 l 1,222,-1
 150 50 l 1,223,-1
 154 54 l 1,224,-1
 154 57 l 1,225,-1
 152 59 l 1,226,-1
 149 59 l 1,219,-1
EndSplineSet
EndChar

StartChar: quotedbl
Encoding: 34 34 5
Width: 364
Flags: W
HStem: 530 21G<73 90> 605 37<268 284.094> 663 13<240 241> 670 37<120 136.094> 691 3<262.5 271.885> 693 24<321 327.527> 704 30<248.468 276> 728 13<92 93> 756 3<114.5 123.569> 758 24<173 179.62> 769 29<100.936 128>
VStem: 137 32<718.002 730 734 752> 180 13<729.447 757.583> 285 32<654.002 665 669 687> 328 13<664.447 692.583>
LayerCount: 2
Fore
SplineSet
146 798 m 1,0,-1
 148 800 l 1,1,-1
 148 798 l 1,2,-1
 137 791 l 1,3,-1
 137 790 l 2,4,5
 137 784 137 784 184 782 c 1,6,7
 193 768.5 193 768.5 193 752 c 1,8,9
 182 706 182 706 169 702 c 1,10,11
 142 670 142 670 107 670 c 2,12,-1
 98 670 l 1,13,-1
 98 668 l 1,14,-1
 104 650 l 1,15,16
 104 594 104 594 89 546 c 1,17,-1
 89 535 l 1,18,-1
 90 534 l 1,19,-1
 89 530 l 1,20,-1
 86 530 l 1,21,22
 60 542 60 542 54 562 c 1,23,-1
 34 672 l 1,24,25
 40 710 40 710 48 735 c 1,26,27
 48 764 48 764 92 791 c 1,28,29
 119 798 119 798 146 798 c 1,0,-1
100 754 m 1,30,-1
 98 755 l 1,31,-1
 92 755 l 1,32,-1
 87 750 l 1,33,-1
 87 745 l 1,34,-1
 92 741 l 1,35,-1
 98 741 l 1,36,37
 114.5 759 114.5 759 122 759 c 1,38,39
 128 764 128 764 128 769 c 1,40,41
 115 769 115 769 100 754 c 1,30,-1
173 758 m 1,42,-1
 169 754 l 1,43,-1
 169 741 l 2,44,45
 169 733 169 733 163 727 c 1,46,47
 163 718 163 718 170 718 c 128,-1,48
 177 718 177 718 180 724 c 1,49,-1
 180 742 l 1,50,51
 179 758 179 758 173 758 c 1,42,-1
110 731 m 0,52,53
 110 725 110 725 121 720 c 1,54,-1
 120 718 l 1,55,-1
 120 707 l 1,56,-1
 126 707 l 1,57,58
 137 715 137 715 137 727 c 2,59,-1
 137 730 l 1,60,-1
 134 734 l 1,61,62
 134 738 134 738 139 745 c 1,63,-1
 139 752 l 1,64,-1
 135 756 l 1,65,-1
 131 756 l 2,66,67
 110 756 110 756 110 731 c 0,52,53
92 728 m 1,68,-1
 89 726 l 1,69,-1
 92 722 l 1,70,-1
 93 722 l 1,71,-1
 96 726 l 1,72,-1
 93 728 l 1,73,-1
 92 728 l 1,68,-1
70 672 m 1,74,-1
 66 670 l 1,75,-1
 66 666 l 1,76,-1
 70 666 l 1,77,-1
 74 670 l 1,78,-1
 70 672 l 1,74,-1
294 734 m 1,79,-1
 296 735 l 1,80,-1
 296 734 l 1,81,-1
 285 726 l 1,82,-1
 285 725 l 2,83,84
 285 719 285 719 332 717 c 1,85,86
 341 703.5 341 703.5 341 687 c 1,87,88
 330 641 330 641 317 637 c 1,89,90
 290 605 290 605 255 605 c 2,91,-1
 246 605 l 1,92,-1
 246 603 l 1,93,-1
 252 585 l 1,94,95
 252 530 252 530 237 482 c 1,96,-1
 237 470 l 1,97,-1
 238 469 l 1,98,-1
 237 465 l 1,99,-1
 234 465 l 1,100,101
 208 479 208 479 202 497 c 1,102,-1
 182 607 l 1,103,104
 188 645 188 645 196 670 c 1,105,106
 196 699 196 699 240 726 c 1,107,108
 270 734 270 734 294 734 c 1,79,-1
248 689 m 1,109,-1
 246 690 l 1,110,-1
 240 690 l 1,111,-1
 235 686 l 1,112,-1
 235 680 l 1,113,-1
 240 676 l 1,114,-1
 246 676 l 1,115,116
 262.5 694 262.5 694 270 694 c 1,117,118
 276 698 276 698 276 704 c 1,119,120
 263 704 263 704 248 689 c 1,109,-1
321 693 m 1,121,-1
 317 689 l 1,122,-1
 317 676 l 2,123,124
 317 668 317 668 311 662 c 1,125,126
 311 654 311 654 318 654 c 128,-1,127
 325 654 325 654 328 659 c 1,128,-1
 328 678 l 1,129,130
 326 693 326 693 321 693 c 1,121,-1
258 666 m 0,131,132
 258 660 258 660 269 655 c 1,133,-1
 268 654 l 1,134,-1
 268 642 l 1,135,-1
 274 642 l 1,136,137
 285 650 285 650 285 662 c 2,138,-1
 285 665 l 1,139,-1
 282 669 l 1,140,141
 282 673 282 673 287 680 c 1,142,-1
 287 687 l 1,143,-1
 283 691 l 1,144,-1
 279 691 l 2,145,146
 258 691 258 691 258 666 c 0,131,132
240 663 m 1,147,-1
 237 661 l 1,148,-1
 240 658 l 1,149,-1
 241 658 l 1,150,-1
 244 661 l 1,151,-1
 241 663 l 1,152,-1
 240 663 l 1,147,-1
218 607 m 1,153,-1
 214 605 l 1,154,-1
 214 602 l 1,155,-1
 218 601 l 1,156,-1
 222 605 l 1,157,-1
 218 607 l 1,153,-1
EndSplineSet
EndChar

StartChar: numbersign
Encoding: 35 35 6
Width: 557
Flags: W
HStem: 97 17<235 242> 109 16<398 402> 206 5<174 190.25> 231 36<427 458.954> 237 17<127 141.701> 266 16<129 140.629 278.016 343> 273 18<427 430.528> 377 36<103 125.215> 377 17<125 164.991> 386 17<271 338.05> 402 33<131.504 164> 420 4<432.387 433> 431 19<317.824 335.623 434 449.966 510.018 518> 487 52<239 251.689> 530 20G<388 398>
VStem: 90 13<413.381 420.219> 106 19<256 258 376.755 377 394 398> 106 8<226 234.406> 200 26<297.077 380.906> 245 20<297.004 381.897> 336 32<484.002 502> 349 57<299 385> 366 58<110.98 133> 378 20<489 502> 461 13<269 272.639> 489 27.8401<265 269>
LayerCount: 2
Fore
SplineSet
392 550 m 1,0,-1
 394 550 l 1,1,-1
 398 547 l 1,2,-1
 398 510 l 2,3,4
 398 477 398 477 403 452 c 1,5,-1
 480 454 l 2,6,7
 518 454 518 454 518 441 c 2,8,-1
 518 438 l 1,9,10
 510 438 510 438 510 420 c 1,11,12
 501 398 501 398 463 398 c 1,13,14
 406 393.5 406 393.5 406 389 c 2,15,-1
 406 388 l 2,16,17
 406 366 406 366 414 291 c 1,18,-1
 416 291 l 2,19,20
 522 291 522 291 522 277 c 1,21,22
 514 269 514 269 514 266 c 1,23,24
 516.840064004 261.412204301 516.840064004 261.412204301 516.840064004 257.422554675 c 0,25,26
 516.840064004 234.989291706 516.840064004 234.989291706 422 231 c 1,27,-1
 418 220 l 1,28,-1
 418 207 l 2,29,30
 418 184 418 184 424 158 c 1,31,-1
 420 133 l 1,32,-1
 424 119 l 1,33,34
 414 109 414 109 399 109 c 1,35,36
 366 114 366 114 366 122 c 0,37,38
 358 226 358 226 351 226 c 0,39,40
 269 219 269 219 269 214 c 2,41,-1
 270 105 l 2,42,43
 270 90 270 90 259 90 c 1,44,45
 232 75 232 75 213 75 c 1,46,-1
 211 77 l 1,47,-1
 211 78 l 1,48,49
 218.5 94.5 218.5 94.5 220 114 c 1,50,-1
 206 179 l 1,51,52
 206 206 206 206 194 206 c 0,53,54
 106 206 106 206 106 231 c 2,55,-1
 106 254 l 1,56,-1
 103 270 l 1,57,-1
 103 273 l 1,58,59
 117 277 117 277 189 278 c 0,60,61
 198 278 198 278 200 299 c 1,62,-1
 200 381 l 1,63,-1
 122 377 l 1,64,-1
 122 375 l 1,65,66
 103 375 103 375 103 386.5 c 128,-1,67
 103 398 103 398 90 420 c 1,68,-1
 90 424 l 2,69,70
 90 435 90 435 158 435 c 2,71,-1
 178 435 l 1,72,73
 198 437 198 437 198 445 c 2,74,-1
 198 455 l 1,75,-1
 196 493 l 1,76,77
 197 515 197 515 215 536 c 1,78,79
 233 538 233 538 235 538 c 2,80,-1
 245 539 l 2,81,82
 252 539 252 539 267 476 c 1,83,84
 265 468 265 468 265 461 c 2,85,-1
 265 454 l 1,86,-1
 269 450 l 1,87,-1
 304 450 l 2,88,89
 324 450 324 450 336 454 c 1,90,-1
 336 518 l 2,91,92
 336 530 336 530 346 530 c 2,93,-1
 357 530 l 2,94,95
 384 530 384 530 392 550 c 1,0,-1
374 506 m 1,96,-1
 368 502 l 1,97,-1
 368 493 l 2,98,99
 368 484 368 484 375 484 c 1,100,-1
 378 489 l 1,101,-1
 378 502 l 1,102,-1
 374 506 l 1,96,-1
239 487 m 1,103,-1
 237 484 l 1,104,-1
 237 482 l 1,105,-1
 241 478 l 1,106,-1
 248 478 l 1,107,-1
 252 482 l 1,108,-1
 252 483 l 1,109,110
 251 487 251 487 243 487 c 2,111,-1
 239 487 l 1,103,-1
319 431 m 1,112,-1
 312 430 l 1,113,-1
 312 428 l 2,114,115
 312 425 312 425 334 422 c 1,116,-1
 334 420 l 2,117,118
 334 414 334 414 267 410 c 1,119,-1
 267 407 l 1,120,-1
 271 403 l 1,121,-1
 274 403 l 1,122,123
 340 406 340 406 340 414 c 2,124,-1
 340 427 l 1,125,-1
 336 431 l 1,126,-1
 319 431 l 1,112,-1
434 431 m 1,127,-1
 431 428 l 1,128,129
 432 424 432 424 442 424 c 2,130,-1
 450 424 l 1,131,-1
 450 427 l 1,132,133
 449 431 449 431 438 431 c 2,134,-1
 434 431 l 1,127,-1
103 416 m 2,135,-1
 103 413 l 1,136,-1
 114 413 l 2,137,138
 130 413 130 413 130 417 c 2,139,-1
 130 420 l 1,140,-1
 116 422 l 1,141,142
 103 419 103 419 103 416 c 2,135,-1
413 420 m 1,143,-1
 406 418 l 1,144,-1
 406 414 l 1,145,-1
 420 413 l 1,146,147
 435 413 435 413 435 417 c 1,148,-1
 433 420 l 1,149,-1
 413 420 l 1,143,-1
125 394 m 1,150,-1
 127 394 l 1,151,152
 165 396 165 396 165 400 c 1,153,-1
 164 402 l 1,154,-1
 162 402 l 1,155,156
 125 399 125 399 125 394 c 1,150,-1
262 319 m 2,157,-1
 262 282 l 1,158,-1
 263 282 l 2,159,160
 347 282 347 282 347 293 c 1,161,-1
 349 299 l 1,162,163
 346 385 346 385 340 385 c 2,164,-1
 338 385 l 1,165,-1
 310 386 l 1,166,167
 265 386 265 386 265 379 c 1,168,169
 262 368.5 262 368.5 262 319 c 2,157,-1
226 368 m 0,170,171
 229 297 229 297 236.5 297 c 128,-1,172
 244 297 244 297 245 312 c 1,173,-1
 245 347 l 2,174,175
 245 382 245 382 235 382 c 1,176,177
 226 378 226 378 226 368 c 0,170,171
448 274 m 1,178,-1
 427 271 l 1,179,-1
 427 267 l 1,180,-1
 450 267 l 2,181,182
 460 267 460 267 461 271 c 1,183,-1
 461 273 l 1,184,-1
 448 274 l 1,178,-1
474 269 m 1,185,186
 483 269 483 269 487 265 c 1,187,-1
 489 265 l 1,188,-1
 489 269 l 1,189,-1
 484 273 l 1,190,-1
 483 273 l 1,191,192
 474 272 474 272 474 269 c 1,185,186
278 258 m 1,193,-1
 280 256 l 1,194,195
 344 259 344 259 344 265 c 1,196,-1
 343 266 l 1,197,-1
 342 266 l 1,198,199
 278 265 278 265 278 258 c 1,193,-1
129 262 m 1,200,-1
 125 258 l 1,201,-1
 125 256 l 1,202,-1
 127 254 l 1,203,-1
 142 254 l 1,204,-1
 142 256 l 1,205,206
 139 262 139 262 129 262 c 1,200,-1
114 231 m 2,207,-1
 114 226 l 1,208,-1
 118 222 l 1,209,-1
 129 222 l 1,210,211
 151 226 151 226 151 231.5 c 128,-1,212
 151 237 151 237 133 237 c 2,213,-1
 131 237 l 1,214,215
 114 235 114 235 114 231 c 2,207,-1
170 215 m 1,216,-1
 170 214 l 1,217,-1
 174 211 l 1,218,-1
 181 211 l 2,219,220
 189 211 189 211 202 221 c 1,221,-1
 202 226 l 1,222,-1
 198 226 l 2,223,224
 176 226 176 226 170 215 c 1,216,-1
381 134 m 1,225,-1
 377 130 l 1,226,-1
 377 129 l 1,227,-1
 385 129 l 1,228,-1
 385 134 l 1,229,-1
 381 134 l 1,225,-1
402 130 m 1,230,-1
 398 126 l 1,231,-1
 398 125 l 1,232,-1
 402 125 l 1,233,-1
 405 127 l 1,234,-1
 405 130 l 1,235,-1
 402 130 l 1,230,-1
238 122 m 1,236,-1
 232 116 l 1,237,-1
 235 114 l 1,238,-1
 242 114 l 1,239,-1
 245 116 l 1,240,-1
 245 122 l 1,241,-1
 238 122 l 1,236,-1
232 97 m 1,242,-1
 226 90 l 1,243,-1
 226 84 l 1,244,245
 242 88 242 88 242 97 c 1,246,-1
 232 97 l 1,242,-1
EndSplineSet
EndChar

StartChar: dollar
Encoding: 36 36 7
Width: 595
Flags: W
HStem: -17 23<325 328> 17 14<474 488.262> 18 4<413 418> 30 35<413 441.33> 132 13<328 330> 134 28<153 157.729> 234 10<332 334> 259 9<334 336> 391 46<270.137 289.688> 450 24<269.194 289.686> 466 9<334 338.9> 494 32<326.121 334> 532 10<340 345.852> 550 21G<490.5 497 500 534> 570 16<143 146.841> 630 17<506 511.779> 671 6<263 290.09>
VStem: 90 59<213.162 297> 116 33<265.094 274> 121 17<535.125 570 590 610.535> 170 28<638.104 652.25> 294 16<233 238> 301 59<787.034 808> 312 20<233 234 481 493.997 526 547.935 578.004 615> 334 6<542 548> 350 48<526 532 542.001 550 812 823> 367 31<800 810> 384.308 10.6923<512.156 610> 394 16<909.438 912.646> 463 43<647 666.121> 468 4<94.8838 98.376> 514 29<647.036 670.915> 524 19<709.345 738> 543 10<780 782.139> 554 17<121.482 145 285 292.971>
LayerCount: 2
Fore
SplineSet
494 782 m 2,0,-1
 517 780 l 1,1,-1
 530 780 l 2,2,3
 543 780 543 780 543 783 c 1,4,5
 550 783 550 783 553 765 c 1,6,7
 553 740 553 740 543 700 c 1,8,-1
 543 699 l 1,9,-1
 552 678 l 1,10,11
 550 664 550 664 543 655 c 1,12,-1
 543 647 l 1,13,-1
 534 552 l 1,14,-1
 532 550 l 1,15,-1
 528 550 l 1,16,-1
 500 554 l 1,17,-1
 497 554 l 1,18,-1
 497 552 l 1,19,20
 484 552 484 552 463 638 c 1,21,22
 463 668 463 668 426 668 c 1,23,-1
 403 670 l 1,24,-1
 399 670 l 2,25,26
 396 670 396 670 395 669 c 0,27,28
 391 503 391 503 385 442 c 1,29,30
 385 425 385 425 427 425 c 0,31,32
 450 425 450 425 510.5 373.5 c 128,-1,33
 571 322 571 322 571 230 c 2,34,-1
 571 170 l 2,35,36
 571 124 571 124 547 84 c 1,37,38
 495 17 495 17 470 17 c 1,39,-1
 444 9 l 1,40,41
 418 18 418 18 392 18 c 128,-1,42
 366 18 366 18 358 7 c 1,43,-1
 358 -8 l 1,44,45
 365 -35 365 -35 377 -43 c 1,46,-1
 371 -50 l 1,47,48
 306 -36 306 -36 278 -36 c 1,49,-1
 278 -34 l 2,50,51
 278 -28 278 -28 290 -11 c 1,52,53
 293 -5 293 -5 293 11 c 2,54,-1
 293 18 l 2,55,56
 293 35 293 35 258 46 c 1,57,58
 127 128 127 128 118 128 c 2,59,-1
 116 128 l 1,60,61
 98 89 98 89 87 89 c 2,62,-1
 56 89 l 1,63,-1
 49 90 l 1,64,-1
 49 100 l 2,65,66
 49 140 49 140 69 218 c 1,67,68
 90 244 90 244 90 282 c 1,69,70
 109 303 109 303 130 308 c 1,71,-1
 132 308 l 1,72,73
 141 297 141 297 147 297 c 2,74,-1
 149 297 l 1,75,-1
 149 246 l 2,76,77
 149 217 149 217 248 139 c 1,78,79
 282 114 282 114 293 114 c 1,80,-1
 293 115 l 1,81,-1
 294 134 l 1,82,-1
 294 209 l 2,83,84
 294 300.5 294 300.5 300 353 c 1,85,86
 289 391 289 391 278 391 c 1,87,88
 246.5 401.5 246.5 401.5 242 409 c 1,89,-1
 242 410 l 1,90,-1
 248 412 l 1,91,-1
 278 406 l 1,92,-1
 278 408 l 2,93,94
 278 410 278 410 244 426 c 1,95,96
 121 505.5 121 505.5 121 567 c 0,97,98
 121 639 121 639 172 696 c 1,99,100
 206 750 206 750 234 750 c 1,101,102
 301 781 301 781 301 790 c 0,103,104
 305 866 305 866 312 879 c 1,105,-1
 315 888 l 1,106,-1
 311 895 l 1,107,-1
 311 898 l 2,108,109
 311 904 311 904 394 910 c 1,110,111
 394 913 394 913 410 913 c 1,112,-1
 410 910 l 1,113,-1
 398 862 l 1,114,-1
 398 800 l 1,115,-1
 392 782 l 1,116,117
 416 752 416 752 446 735 c 1,118,-1
 465 714 l 1,119,-1
 468 714 l 1,120,121
 474.805555556 782.055555556 474.805555556 782.055555556 492.953703704 782.055555556 c 0,122,123
 493.472222222 782.055555556 493.472222222 782.055555556 494 782 c 2,0,-1
378 350 m 1,124,-1
 373 350 l 2,125,126
 370 350 370 350 364 82 c 0,127,128
 364 70 364 70 392 70 c 1,129,-1
 394 65 l 1,130,-1
 395 65 l 2,131,132
 401 65 401 65 426 78 c 1,133,134
 468 87 468 87 468 100 c 1,135,136
 506 136 506 136 508 151 c 128,-1,137
 510 166 510 166 510 190 c 2,138,-1
 510 194 l 2,139,140
 510 234 510 234 483 300 c 1,141,142
 483 310 483 310 461 319 c 1,143,-1
 452 328 l 1,144,-1
 441 328 l 2,145,146
 426 328 426 328 378 350 c 1,124,-1
194 614 m 2,147,-1
 194 606 l 1,148,-1
 186 590 l 1,149,-1
 186 584 l 2,150,151
 186 558.5 186 558.5 228 524 c 1,152,153
 278 474 278 474 289 474 c 2,154,-1
 293 474 l 2,155,156
 310 474 310 474 310.5 536.5 c 128,-1,157
 311 599 311 599 315 615 c 1,158,159
 306 615 306 615 302 636 c 1,160,161
 295 642 295 642 295 649 c 1,162,-1
 297 661 l 1,163,164
 293 671 293 671 273 671 c 2,165,-1
 254 671 l 1,166,167
 198 650 198 650 198 638 c 1,168,169
 194 627 194 627 194 614 c 2,147,-1
474 369 m 1,170,-1
 468 369 l 1,171,-1
 468 363 l 1,172,173
 488 334 488 334 511 334 c 1,174,175
 526 319 526 319 530 293 c 1,176,177
 537 280 537 280 547 280 c 1,178,-1
 552 285 l 1,179,-1
 552 287 l 2,180,181
 552 318 552 318 482 367 c 1,182,-1
 474 369 l 1,170,-1
259 679 m 1,183,-1
 263 677 l 1,184,-1
 294 677 l 1,185,-1
 297 679 l 1,186,-1
 297 690 l 1,187,-1
 293 694 l 1,188,-1
 284 694 l 1,189,190
 259 690 259 690 259 679 c 1,183,-1
375 500 m 1,191,192
 384.307692308 516.923076923 384.307692308 516.923076923 384.307692308 556.538461538 c 128,-1,193
 384.307692308 596.153846154 384.307692308 596.153846154 384 610 c 1,194,195
 375 528 375 528 375 500 c 1,191,192
245 450 m 1,196,-1
 242 447 l 1,197,198
 242 438 242 438 290 437 c 1,199,-1
 290 440 l 1,200,201
 280 450 280 450 262 450 c 2,202,-1
 245 450 l 1,196,-1
472 93 m 1,203,-1
 474 93 l 1,204,205
 510 102 510 102 510 118 c 1,206,-1
 508 119 l 1,207,208
 472 104 472 104 472 93 c 1,203,-1
140 570 m 2,209,-1
 138 570 l 1,210,-1
 138 566 l 1,211,212
 143 531 143 531 150 531 c 1,213,-1
 153 534 l 1,214,215
 148 570 148 570 140 570 c 2,209,-1
342 619 m 1,216,-1
 338 619 l 1,217,218
 332 607 332 607 332 597 c 2,219,-1
 332 594 l 2,220,221
 332 578 332 578 336 578 c 1,222,223
 342 586 342 586 342 619 c 1,216,-1
474 31 m 1,224,-1
 479 31 l 2,225,226
 488 31 488 31 502 48 c 1,227,-1
 502 50 l 1,228,-1
 500 54 l 1,229,230
 474 42 474 42 474 31 c 1,224,-1
330 132 m 1,231,-1
 328 132 l 1,232,233
 324 119 324 119 322 95 c 1,234,-1
 323 91 l 1,235,-1
 326 91 l 2,236,237
 330 91 330 91 332 117 c 1,238,-1
 330 132 l 1,231,-1
513 709 m 1,239,-1
 515 709 l 1,240,241
 524 720 524 720 524 735 c 2,242,-1
 524 738 l 1,243,-1
 519 742 l 1,244,245
 514.5 742 514.5 742 513 709 c 1,239,-1
233 504 m 1,246,-1
 228 500 l 1,247,-1
 228 498 l 1,248,249
 229 485 229 485 245 485 c 2,250,-1
 246 485 l 1,251,-1
 250 487 l 1,252,253
 241 504 241 504 233 504 c 1,246,-1
146 612 m 1,254,255
 138 601 138 601 138 593 c 2,256,-1
 138 590 l 1,257,-1
 143 586 l 1,258,259
 151 586 151 586 151 594 c 0,260,261
 150 612 150 612 146 612 c 1,254,255
325 482 m 1,262,-1
 325 481 l 1,263,-1
 330 475 l 1,264,-1
 336 475 l 1,265,266
 342 476 342 476 342 485 c 2,267,-1
 342 494 l 1,268,269
 334 494 334 494 325 482 c 1,262,-1
138 134 m 1,270,271
 151 118 151 118 162 118 c 2,272,-1
 164 118 l 1,273,-1
 166 119 l 1,274,275
 155 134 155 134 138 134 c 1,270,271
220 670 m 2,276,-1
 220 666 l 1,277,-1
 222 666 l 2,278,279
 241 666 241 666 241 671 c 2,280,-1
 241 677 l 2,281,282
 241 679 241 679 237 679 c 1,283,284
 220 674 220 674 220 670 c 2,276,-1
329 171 m 2,285,-1
 328 171 l 1,286,-1
 322 150 l 1,287,-1
 328 145 l 1,288,-1
 329 145 l 2,289,290
 332 145 332 145 334 153 c 1,291,292
 332 171 332 171 329 171 c 2,285,-1
175 158 m 1,293,-1
 175 157 l 2,294,295
 175 151 175 151 202 143 c 1,296,-1
 203 145 l 1,297,-1
 203 146 l 1,298,299
 186 158 186 158 175 158 c 1,293,-1
151 638 m 1,300,-1
 155 638 l 2,301,302
 162 638 162 638 170 655 c 1,303,-1
 170 657 l 1,304,-1
 166 657 l 1,305,306
 154 649 154 649 151 638 c 1,300,-1
205 522 m 1,307,-1
 202 522 l 1,308,-1
 202 518 l 1,309,310
 212.5 503 212.5 503 217 503 c 2,311,-1
 220 503 l 1,312,-1
 220 507 l 1,313,314
 214 517.5 214 517.5 205 522 c 1,307,-1
435 731 m 1,315,-1
 431 731 l 1,316,-1
 431 730 l 2,317,318
 431 720 431 720 444 713 c 1,319,-1
 448 717 l 1,320,321
 443 727 443 727 435 731 c 1,315,-1
430 30 m 2,322,-1
 413 30 l 1,323,324
 413 23 413 23 438 22 c 1,325,-1
 442 22 l 1,326,-1
 442 24 l 1,327,328
 440.5 30 440.5 30 430 30 c 2,322,-1
364 812 m 1,329,-1
 360 808 l 1,330,-1
 360 794 l 1,331,-1
 362 787 l 1,332,-1
 366 787 l 1,333,-1
 367 797 l 1,334,-1
 367 810 l 1,335,-1
 364 812 l 1,329,-1
506 658 m 2,336,-1
 506 647 l 1,337,-1
 507 647 l 1,338,339
 512 648 512 648 514 670 c 1,340,-1
 514 671 l 1,341,-1
 511 671 l 1,342,343
 506 669 506 669 506 658 c 2,336,-1
543 121 m 1,344,-1
 546 121 l 2,345,346
 550 121 550 121 554 142 c 1,347,-1
 554 145 l 1,348,-1
 553 145 l 1,349,350
 543 134 543 134 543 121 c 1,344,-1
483 67 m 1,351,-1
 486 67 l 2,352,353
 494 67 494 67 500 76 c 1,354,-1
 500 78 l 1,355,-1
 491 78 l 1,356,357
 483 75 483 75 483 67 c 1,351,-1
326 535 m 2,358,-1
 326 526 l 1,359,-1
 328 526 l 2,360,361
 331 526 331 526 334 541 c 1,362,-1
 334 548 l 1,363,-1
 332 548 l 1,364,365
 326 546 326 546 326 535 c 2,358,-1
62 138 m 1,366,-1
 63 134 l 1,367,-1
 65 134 l 2,368,369
 69 134 69 134 69 145 c 2,370,-1
 69 150 l 1,371,-1
 67 150 l 2,372,373
 65 150 65 150 62 138 c 1,366,-1
336 259 m 1,374,-1
 332 259 l 1,375,-1
 332 244 l 1,376,-1
 336 244 l 1,377,-1
 338 251 l 1,378,-1
 338 252 l 1,379,-1
 336 259 l 1,374,-1
334 280 m 1,380,-1
 332 278 l 1,381,-1
 332 270 l 1,382,-1
 334 268 l 1,383,-1
 336 268 l 1,384,-1
 339 270 l 1,385,-1
 339 278 l 1,386,-1
 336 280 l 1,387,-1
 334 280 l 1,380,-1
339 466 m 1,388,-1
 334 466 l 1,389,-1
 332 459 l 1,390,-1
 332 458 l 1,391,-1
 334 455 l 1,392,-1
 336 455 l 1,393,-1
 339 458 l 1,394,-1
 339 466 l 1,388,-1
153 171 m 1,395,-1
 150 168 l 1,396,-1
 150 166 l 1,397,-1
 153 162 l 1,398,-1
 158 162 l 1,399,-1
 158 167 l 1,400,-1
 154 171 l 1,401,-1
 153 171 l 1,395,-1
340 542 m 1,402,403
 348 542 348 542 350 548 c 1,404,-1
 350 550 l 1,405,-1
 349 550 l 2,406,407
 340 550 340 550 340 542 c 1,402,403
314 360 m 2,408,-1
 314 356 l 1,409,-1
 315 356 l 1,410,411
 319 357 319 357 319 364 c 2,412,-1
 319 369 l 1,413,-1
 318 369 l 1,414,415
 314 368 314 368 314 360 c 2,408,-1
347 823 m 1,416,-1
 345 821 l 1,417,-1
 345 815 l 1,418,-1
 347 812 l 1,419,-1
 350 812 l 1,420,-1
 350 823 l 1,421,-1
 347 823 l 1,416,-1
235 112 m 1,422,-1
 228 112 l 1,423,-1
 228 111 l 1,424,425
 230 106 230 106 238 106 c 2,426,-1
 239 106 l 1,427,-1
 239 108 l 1,428,-1
 235 112 l 1,422,-1
112 274 m 1,429,-1
 106 268 l 1,430,-1
 110 265 l 1,431,432
 116 268 116 268 116 274 c 1,433,-1
 112 274 l 1,429,-1
138 209 m 1,434,-1
 138 205 l 1,435,-1
 142 201 l 1,436,-1
 146 201 l 1,437,-1
 146 202 l 1,438,439
 143 209 143 209 138 209 c 1,434,-1
346 532 m 1,440,-1
 340 532 l 1,441,-1
 339 528 l 1,442,-1
 342 526 l 1,443,-1
 346 526 l 1,444,-1
 346 532 l 1,440,-1
328 11 m 1,445,-1
 325 9 l 1,446,-1
 325 6 l 1,447,-1
 328 6 l 1,448,-1
 330 9 l 1,449,-1
 330 11 l 1,450,-1
 328 11 l 1,445,-1
506 630 m 1,451,-1
 502 627 l 1,452,-1
 514 629 l 1,453,-1
 513 630 l 1,454,-1
 506 630 l 1,451,-1
325 -17 m 1,455,-1
 322 -19 l 1,456,-1
 322 -22 l 1,457,-1
 323 -22 l 1,458,-1
 328 -18 l 1,459,-1
 328 -17 l 1,460,-1
 325 -17 l 1,455,-1
312 238 m 1,461,-1
 310 238 l 1,462,-1
 310 233 l 1,463,-1
 312 233 l 1,464,-1
 312 238 l 1,461,-1
334 234 m 1,465,-1
 332 234 l 1,466,-1
 332 230 l 1,467,-1
 334 230 l 1,468,-1
 334 234 l 1,465,-1
EndSplineSet
EndChar

StartChar: percent
Encoding: 37 37 8
Width: 565
Flags: W
HStem: 34 18<423 436> 64 10<451.088 453.784> 638 19<144 157> 669 10<172.088 174.991> 826 26<439 445>
VStem: 74 21<57.25 69.856 683.189 718> 108 34<708 723.899> 154 29<708.387 722> 194 16<689.996 734.479> 353 21<78.1895 114> 386 34<108 118.9> 433 29<103.387 118> 490 51<774.25 789>
LayerCount: 2
Fore
SplineSet
505 844 m 1,0,1
 531 839 531 839 531 831 c 1,2,3
 548 826 548 826 548 822 c 1,4,5
 534 802 534 802 534 799 c 1,6,-1
 541 789 l 1,7,-1
 541 788 l 2,8,9
 541 782 541 782 529 762 c 1,10,11
 497 676 497 676 356 424 c 1,12,13
 301 307 301 307 288 290 c 1,14,15
 221 172 221 172 182 71 c 1,16,-1
 160 36 l 1,17,-1
 173 18 l 1,18,19
 173 12 173 12 158 5 c 1,20,-1
 154 5 l 2,21,22
 136 5 136 5 102 38 c 1,23,24
 79 49 79 49 79 60 c 1,25,-1
 82 71 l 1,26,27
 110 152 110 152 138 202 c 1,28,29
 150 246 150 246 162 246 c 2,30,-1
 167 246 l 1,31,-1
 167 247 l 2,32,33
 167 251 167 251 156 253 c 1,34,-1
 156 254 l 1,35,-1
 199 354 l 1,36,37
 214 370 214 370 214 385 c 1,38,39
 240 408 240 408 247 434 c 1,40,-1
 246 446 l 1,41,42
 251 458 251 458 266 471 c 1,43,-1
 389 718 l 1,44,45
 434 852 434 852 470 852 c 0,46,47
 489 852 489 852 505 844 c 1,0,1
449 822 m 1,48,-1
 445 826 l 1,49,50
 439 826 439 826 428 779 c 1,51,-1
 428 778 l 1,52,-1
 429 778 l 1,53,54
 437 783 437 783 449 817 c 1,55,-1
 449 822 l 1,48,-1
479 777 m 2,56,-1
 479 774 l 1,57,-1
 481 774 l 1,58,59
 490 782 490 782 490 790 c 2,60,-1
 490 792 l 1,61,62
 479 784 479 784 479 777 c 2,56,-1
453 654 m 1,63,-1
 453 650 l 1,64,-1
 458 650 l 1,65,-1
 462 656 l 1,66,-1
 462 662 l 1,67,68
 456 662 456 662 453 654 c 1,63,-1
363 564 m 1,69,-1
 362 564 l 2,70,71
 354.5 564 354.5 564 341 525 c 1,72,-1
 341 523 l 1,73,-1
 342 522 l 1,74,75
 355.5 534 355.5 534 363 561 c 1,76,-1
 363 564 l 1,69,-1
270 355 m 1,77,-1
 270 354 l 1,78,79
 276 354 276 354 278 359 c 1,80,-1
 278 361 l 1,81,82
 272 361 272 361 270 355 c 1,77,-1
229 350 m 1,83,-1
 227 350 l 1,84,-1
 226 351 l 1,85,-1
 219 346 l 1,86,-1
 191 294 l 1,87,88
 167 267 167 267 167 260 c 2,89,-1
 167 256 l 1,90,91
 169 253 169 253 174 250 c 1,92,93
 193 267 193 267 229 350 c 1,83,-1
266 342 m 1,94,95
 253 326 253 326 253 318 c 2,96,-1
 253 316 l 1,97,-1
 255 316 l 2,98,99
 258 316 258 316 266 342 c 1,94,95
223 256 m 1,100,-1
 221 258 l 1,101,102
 212 252 212 252 199 214 c 1,103,-1
 202 211 l 1,104,-1
 204 211 l 1,105,106
 209 217 209 217 223 250 c 1,107,-1
 223 256 l 1,100,-1
138 159 m 1,108,-1
 135 162 l 1,109,110
 131 162 131 162 126 145 c 1,111,-1
 130 142 l 1,112,-1
 131 142 l 1,113,114
 138 148 138 148 138 155 c 2,115,-1
 138 159 l 1,108,-1
184 135 m 1,116,-1
 182 135 l 1,117,118
 177 130 177 130 165 94 c 1,119,-1
 167 90 l 1,120,121
 184 110 184 110 184 133 c 2,122,-1
 184 135 l 1,116,-1
138 122 m 1,123,-1
 138 120 l 1,124,-1
 141 120 l 1,125,126
 146 122 146 122 148 128 c 1,127,-1
 146 130 l 1,128,129
 142 129 142 129 138 122 c 1,123,-1
122 130 m 1,130,-1
 118 130 l 1,131,-1
 117 122 l 1,132,-1
 120 122 l 1,133,-1
 122 124 l 1,134,-1
 122 130 l 1,130,-1
111 74 m 1,135,-1
 109 77 l 1,136,137
 99 77 99 77 96 66 c 1,138,139
 96 58 96 58 100 57 c 1,140,-1
 102 57 l 2,141,142
 111 57 111 57 111 68 c 2,143,-1
 111 74 l 1,135,-1
166 22 m 1,144,-1
 162 26 l 1,145,-1
 156 26 l 1,146,-1
 154 23 l 1,147,-1
 154 21 l 1,148,-1
 160 19 l 1,149,-1
 163 19 l 1,150,-1
 166 22 l 1,144,-1
425 182 m 1,151,152
 467 167 467 167 482 142 c 1,153,154
 489 114 489 114 489 98 c 1,155,156
 478 59 478 59 470 52 c 1,157,158
 453 34 453 34 436 32 c 1,159,-1
 427 34 l 1,160,-1
 423 34 l 1,161,-1
 423 32 l 1,162,-1
 427 26 l 1,163,-1
 427 25 l 1,164,-1
 423 25 l 2,165,166
 389 25 389 25 363 63 c 1,167,168
 353 80 353 80 353 109.5 c 128,-1,169
 353 139 353 139 371 158 c 1,170,171
 405.5 182 405.5 182 425 182 c 1,151,152
390 126 m 2,172,-1
 390 122 l 1,173,174
 403 122 403 122 431 150 c 1,175,-1
 431 154 l 1,176,-1
 427 155 l 1,177,178
 390 143 390 143 390 126 c 2,172,-1
462 130 m 1,179,180
 462 117 462 117 451 75 c 1,181,-1
 451 74 l 1,182,183
 464 74 464 74 472 106 c 1,184,-1
 472 119 l 2,185,186
 472 130 472 130 462 130 c 1,179,180
420 108 m 1,187,-1
 422 103 l 1,188,-1
 426 103 l 1,189,190
 433 107 433 107 433 114 c 2,191,-1
 433 118 l 1,192,-1
 430 120 l 1,193,-1
 426 120 l 1,194,195
 420 118.5 420 118.5 420 108 c 1,187,-1
380 119 m 1,196,-1
 374 114 l 1,197,-1
 374 98 l 2,198,199
 374 84 374 84 384 78 c 1,200,-1
 386 78 l 1,201,-1
 386 86 l 2,202,203
 386 116 386 116 380 119 c 1,196,-1
408 82 m 1,204,-1
 406 82 l 1,205,-1
 406 80 l 1,206,-1
 409 77 l 1,207,-1
 410 77 l 1,208,-1
 410 80 l 1,209,-1
 408 82 l 1,204,-1
423 56 m 1,210,-1
 423 52 l 1,211,-1
 427 52 l 1,212,213
 454 56 454 56 454 63 c 2,214,-1
 454 64 l 1,215,-1
 453 64 l 2,216,217
 441 64 441 64 423 56 c 1,210,-1
146 786 m 1,218,219
 189.5 772.5 189.5 772.5 203 747 c 1,220,221
 210 719 210 719 210 702 c 1,222,223
 201 664.5 201 664.5 192 657 c 1,224,225
 174 638 174 638 157 637 c 1,226,-1
 149 638 l 1,227,-1
 144 638 l 1,228,-1
 144 637 l 1,229,-1
 149 631 l 1,230,-1
 149 630 l 1,231,-1
 144 630 l 2,232,233
 110 630 110 630 84 668 c 1,234,235
 74 685 74 685 74 714.5 c 128,-1,236
 74 744 74 744 93 763 c 1,237,238
 127 786 127 786 146 786 c 1,218,219
110 730 m 2,239,-1
 110 726 l 1,240,241
 125 726 125 726 153 754 c 1,242,-1
 153 758 l 1,243,-1
 149 760 l 1,244,245
 110 748 110 748 110 730 c 2,239,-1
183 735 m 1,246,247
 183 722 183 722 172 680 c 1,248,-1
 172 679 l 1,249,250
 186 679 186 679 194 711 c 1,251,-1
 194 724 l 2,252,253
 194 735 194 735 183 735 c 1,246,247
142 713 m 1,254,-1
 143 708 l 1,255,-1
 147 708 l 1,256,257
 154 712 154 712 154 719 c 2,258,-1
 154 722 l 1,259,-1
 151 725 l 1,260,-1
 147 725 l 1,261,262
 142 723 142 723 142 713 c 1,254,-1
101 724 m 1,263,-1
 95 718 l 1,264,-1
 95 702 l 2,265,266
 95 689 95 689 105 683 c 1,267,-1
 106 683 l 1,268,-1
 108 690 l 1,269,270
 108 721 108 721 101 724 c 1,263,-1
129 687 m 1,271,-1
 127 687 l 1,272,-1
 127 685 l 1,273,-1
 130 682 l 1,274,-1
 132 682 l 1,275,-1
 132 685 l 1,276,-1
 129 687 l 1,271,-1
144 661 m 1,277,-1
 144 657 l 1,278,-1
 149 657 l 1,279,280
 175 662 175 662 175 668 c 2,281,-1
 175 669 l 1,282,-1
 174 669 l 2,283,284
 162 669 162 669 144 661 c 1,277,-1
EndSplineSet
EndChar

StartChar: ampersand
Encoding: 38 38 9
Width: 655
Flags: W
HStem: -18 12<249 273.967 301 319> 10 51<237.729 256.984> 10 20<207.448 241 258 259.938> 40 13<207.187 223.8> 137 5<536.396 542.656> 456 64<440 465.792> 508 38<501 517.874> 768 35<183 194> 777 47<214.128 234>
VStem: 54 36<178 189> 62 15<583 592> 77 33<602.472 691.174> 101 13<173.768 176> 350 48<620 631> 474 36<408 418> 605 17<88.0703 94 410.25 425>
LayerCount: 2
Fore
SplineSet
234 824 m 1,0,1
 251 818 251 818 284 813 c 1,2,3
 314 800 314 800 346 764 c 1,4,5
 382 711 382 711 382 702 c 1,6,7
 398 673 398 673 398 632 c 0,8,9
 398 570.5 398 570.5 305 482 c 1,10,11
 249 450 249 450 239 417 c 1,12,-1
 239 411 l 2,13,14
 239 394 239 394 301 337 c 1,15,16
 322 337 322 337 348 311.5 c 128,-1,17
 374 286 374 286 404 270 c 1,18,-1
 404 271 l 2,19,20
 404 276 404 276 410 281 c 1,21,-1
 432 268 l 1,22,-1
 438 268 l 1,23,24
 450 286 450 286 465 354 c 1,25,-1
 474 439 l 1,26,-1
 474 443 l 2,27,28
 474 458 474 458 454 460 c 1,29,-1
 452 460 l 1,30,-1
 438 456 l 1,31,-1
 435 456 l 1,32,-1
 434 464 l 1,33,34
 442 520 442 520 450 520 c 1,35,36
 464 544 464 544 469 544 c 2,37,-1
 482 546 l 1,38,-1
 490 546 l 2,39,40
 508 546 508 546 542 514 c 1,41,42
 594 481 594 481 627 447 c 1,43,-1
 627 446 l 1,44,-1
 622 426 l 1,45,-1
 622 410 l 2,46,47
 622 402 622 402 602 390 c 1,48,-1
 599 390 l 1,49,50
 562 404 562 404 551 404 c 2,51,-1
 544 404 l 2,52,53
 537 404 537 404 532 357 c 1,54,55
 488 237 488 237 488 214 c 1,56,57
 490 207 490 207 542 173 c 1,58,59
 576.5 138.5 576.5 138.5 602 122 c 1,60,61
 622 102 622 102 622 91.5 c 128,-1,62
 622 81 622 81 594 19 c 1,63,64
 594 5 594 5 568 -3 c 1,65,-1
 561 -9 l 1,66,-1
 560 -9 l 2,67,68
 556 -9 556 -9 551 32 c 1,69,70
 547 39 547 39 519 58 c 1,71,-1
 519 60 l 2,72,73
 519 63 519 63 534 66 c 1,74,75
 534 70 534 70 521 74 c 1,76,-1
 516 74 l 1,77,-1
 512 71 l 1,78,-1
 510 71 l 1,79,80
 510 84 510 84 490 96 c 1,81,82
 468 127 468 127 450 127 c 1,83,84
 438 119 438 119 418 75 c 1,85,86
 390 38 390 38 387 26 c 1,87,88
 355 -18 355 -18 264 -18 c 1,89,-1
 249 -20 l 1,90,91
 175 -9 175 -9 165 6 c 1,92,93
 113 55 113 55 107.5 71.25 c 128,-1,94
 102 87.5 102 87.5 75 131 c 1,95,96
 54 197 54 197 54 219 c 1,97,-1
 66 334 l 1,98,99
 79 398 79 398 88 398 c 1,100,101
 118 414.5 118 414.5 118 422 c 1,102,103
 107 445 107 445 84 478 c 1,104,105
 62 560 62 560 62 587 c 0,106,107
 62 645.5 62 645.5 77 704 c 1,108,109
 77 770 77 770 142 806 c 1,110,111
 181 824 181 824 234 824 c 1,0,1
183 807 m 1,112,-1
 183 803 l 1,113,114
 215 806 215 806 215 811 c 2,115,-1
 215 813 l 1,116,-1
 211 814 l 1,117,118
 193 812 193 812 183 807 c 1,112,-1
116 777 m 1,119,-1
 118 774 l 1,120,-1
 124 774 l 2,121,122
 140.5 774 140.5 774 154 792 c 1,123,-1
 154 794 l 1,124,-1
 151 798 l 1,125,126
 134 798 134 798 116 777 c 1,119,-1
214 762 m 1,127,-1
 218 762 l 1,128,129
 238 765 238 765 238 775 c 1,130,-1
 234 777 l 1,131,132
 218 777 218 777 214 762 c 1,127,-1
158 755 m 1,133,-1
 158 754 l 1,134,-1
 166 754 l 1,135,136
 194 758 194 758 194 768 c 1,137,-1
 186 768 l 2,138,139
 172 768 172 768 158 755 c 1,133,-1
273 757 m 2,140,-1
 266 757 l 1,141,-1
 266 755 l 2,142,143
 266 750 266 750 308 736 c 1,144,-1
 309 736 l 1,145,-1
 309 738 l 1,146,147
 293 757 293 757 273 757 c 2,140,-1
331 757 m 1,148,-1
 329 757 l 1,149,150
 329 749 329 749 337 749 c 1,151,-1
 337 751 l 1,152,-1
 331 757 l 1,148,-1
110 641 m 1,153,-1
 118 598 l 1,154,-1
 118 592 l 1,155,156
 121 592 121 592 129 578 c 1,157,158
 133 578 133 578 133 572 c 1,159,-1
 130 564 l 1,160,-1
 130 561 l 2,161,162
 130 549 130 549 157 525 c 1,163,164
 190 481 190 481 196 481 c 2,165,-1
 200 481 l 2,166,167
 203 481 203 481 274 523 c 1,168,169
 311 562 311 562 325 618 c 1,170,-1
 330 667 l 1,171,172
 246 754 246 754 230 754 c 1,173,174
 174 741 174 741 151 715 c 1,175,176
 128.5 703 128.5 703 119.25 675.5 c 128,-1,177
 110 648 110 648 110 641 c 1,153,-1
312 729 m 1,178,-1
 309 726 l 1,179,-1
 309 725 l 1,180,-1
 312 722 l 1,181,-1
 314 722 l 1,182,-1
 314 729 l 1,183,-1
 312 729 l 1,178,-1
342 621 m 2,184,-1
 342 618 l 1,185,-1
 344 615 l 1,186,-1
 346 615 l 1,187,-1
 350 620 l 1,188,-1
 350 631 l 1,189,-1
 347 634 l 1,190,191
 342 632 342 632 342 621 c 2,184,-1
79 594 m 1,192,-1
 77 592 l 1,193,-1
 77 583 l 1,194,-1
 82 578 l 1,195,-1
 85 578 l 1,196,-1
 85 585 l 2,197,198
 85 592.5 85 592.5 79 594 c 1,192,-1
327 570 m 2,199,-1
 327 564 l 1,200,-1
 329 564 l 2,201,202
 342 564 342 564 347 593 c 1,203,-1
 346 594 l 1,204,-1
 342 594 l 1,205,206
 327 582 327 582 327 570 c 2,199,-1
114 579 m 2,207,-1
 113 579 l 1,208,-1
 113 576 l 2,209,210
 113 566 113 566 120 562 c 1,211,-1
 123 565 l 1,212,-1
 123 570 l 1,213,214
 117 579 117 579 114 579 c 2,207,-1
314 536 m 1,215,216
 320 536 320 536 330 542 c 1,217,-1
 330 547 l 1,218,219
 314 546 314 546 314 536 c 1,215,216
137 527 m 1,220,-1
 135 526 l 1,221,-1
 135 525 l 1,222,223
 152 495 152 495 158 495 c 2,224,-1
 161 495 l 1,225,-1
 161 498 l 1,226,227
 150 527 150 527 137 527 c 1,220,-1
278 498 m 1,228,-1
 280 497 l 1,229,-1
 281 497 l 1,230,231
 292 498 292 498 314 519 c 1,232,-1
 314 522 l 1,233,234
 297.5 517.5 297.5 517.5 278 498 c 1,228,-1
505 508 m 2,235,-1
 501 508 l 1,236,-1
 501 506 l 2,237,238
 501 495 501 495 514 495 c 2,239,-1
 515 495 l 1,240,-1
 518 498 l 1,241,242
 514 508 514 508 505 508 c 2,235,-1
107 498 m 1,243,-1
 105 495 l 1,244,-1
 107 492 l 1,245,-1
 110 492 l 1,246,-1
 110 495 l 1,247,-1
 107 498 l 1,243,-1
166 491 m 1,248,-1
 162 491 l 1,249,-1
 162 482 l 1,250,251
 170 470 170 470 178 470 c 2,252,-1
 179 470 l 1,253,-1
 179 474 l 2,254,255
 179 482 179 482 166 491 c 1,248,-1
566 475 m 1,256,-1
 564 475 l 1,257,-1
 564 473 l 1,258,259
 573 456.5 573 456.5 594 449 c 1,260,-1
 594 452 l 1,261,262
 583 470 583 470 566 475 c 1,256,-1
542 447 m 1,263,-1
 533 450 l 1,264,-1
 532 449 l 1,265,-1
 532 447 l 1,266,267
 533 443 533 443 540 443 c 2,268,-1
 542 443 l 1,269,-1
 542 447 l 1,263,-1
138 436 m 1,270,-1
 135 434 l 1,271,-1
 135 432 l 1,272,-1
 140 432 l 1,273,-1
 142 435 l 1,274,-1
 142 436 l 1,275,-1
 138 436 l 1,270,-1
585 411 m 1,276,-1
 590 408 l 1,277,278
 605 412.5 605 412.5 605 417 c 2,279,-1
 605 425 l 1,280,-1
 602 425 l 1,281,282
 585 420 585 420 585 411 c 1,276,-1
515 422 m 1,283,-1
 510 418 l 1,284,-1
 510 408 l 1,285,-1
 514 408 l 1,286,-1
 519 414 l 1,287,-1
 519 419 l 1,288,-1
 516 422 l 1,289,-1
 515 422 l 1,283,-1
222 394 m 1,290,-1
 219 394 l 1,291,-1
 219 393 l 2,292,293
 219 389 219 389 226 386 c 1,294,-1
 228 387 l 1,295,-1
 228 389 l 1,296,-1
 222 394 l 1,290,-1
189 374 m 1,297,-1
 186 372 l 1,298,-1
 186 370 l 1,299,300
 192 362 192 362 239 329 c 1,301,-1
 242 329 l 1,302,-1
 242 331 l 1,303,304
 208 372 208 372 191 374 c 1,305,-1
 189 374 l 1,297,-1
118 329 m 2,306,-1
 118 314 l 1,307,-1
 114 275 l 1,308,309
 123 258 123 258 131 211 c 1,310,311
 143 183 143 183 155 144 c 1,312,313
 170 106 170 106 222 75 c 0,314,315
 244 61 244 61 253 61 c 2,316,-1
 258 61 l 2,317,318
 298.5 61 298.5 61 351 100 c 1,319,320
 402 151 402 151 406 169 c 1,321,-1
 406 173 l 1,322,323
 379 205 379 205 273 257 c 1,324,325
 221 289 221 289 178 350 c 1,326,327
 167 357 167 357 162 357 c 2,328,-1
 155 357 l 1,329,330
 118 350 118 350 118 329 c 2,306,-1
230 314 m 1,331,-1
 228 314 l 1,332,333
 228 306 228 306 239 301 c 1,334,-1
 241 301 l 1,335,336
 241 309 241 309 230 314 c 1,331,-1
463 264 m 1,337,-1
 465 262 l 1,338,-1
 466 262 l 1,339,-1
 477 278 l 1,340,-1
 477 286 l 1,341,-1
 474 286 l 2,342,343
 470 286 470 286 463 264 c 1,337,-1
103 249 m 1,344,-1
 103 247 l 1,345,346
 104 234 104 234 109 234 c 2,347,-1
 112 234 l 1,348,-1
 112 242 l 1,349,350
 108 249 108 249 103 249 c 1,344,-1
370 236 m 1,351,-1
 368 234 l 1,352,-1
 368 232 l 1,353,-1
 410 200 l 1,354,-1
 413 200 l 1,355,-1
 413 202 l 1,356,357
 385 236 385 236 372 236 c 2,358,-1
 370 236 l 1,351,-1
118 210 m 2,359,-1
 114 210 l 1,360,-1
 114 200 l 2,361,362
 114 174 114 174 135 135 c 1,363,364
 138 134 138 134 148 110 c 1,365,366
 163 94 163 94 165 94 c 2,367,-1
 168 94 l 1,368,-1
 168 96 l 1,369,-1
 135 163 l 1,370,371
 120 210 120 210 118 210 c 2,359,-1
95 189 m 1,372,-1
 90 189 l 1,373,-1
 90 178 l 1,374,-1
 95 173 l 1,375,-1
 101 173 l 1,376,-1
 101 176 l 1,377,-1
 95 189 l 1,372,-1
494 183 m 1,378,-1
 491 180 l 1,379,-1
 494 178 l 1,380,-1
 497 178 l 1,381,-1
 497 180 l 1,382,-1
 494 183 l 1,378,-1
527 158 m 1,383,-1
 527 156 l 1,384,385
 535 144 535 144 540 142 c 1,386,-1
 543 142 l 1,387,-1
 543 144 l 1,388,389
 538 158 538 158 527 158 c 1,383,-1
398 130 m 1,390,-1
 398 128 l 1,391,-1
 400 128 l 1,392,393
 418 138 418 138 418 150 c 2,394,-1
 418 154 l 1,395,-1
 417 154 l 2,396,397
 406 154 406 154 398 130 c 1,390,-1
536 137 m 1,398,-1
 533 134 l 1,399,400
 533 126.5 533 126.5 566 113 c 1,401,-1
 571 113 l 1,402,-1
 574 116 l 1,403,-1
 574 117 l 1,404,405
 557 137 557 137 540 137 c 2,406,-1
 536 137 l 1,398,-1
372 99 m 1,407,-1
 368 94 l 1,408,-1
 368 92 l 1,409,-1
 370 92 l 1,410,-1
 375 96 l 1,411,-1
 375 99 l 1,412,-1
 372 99 l 1,407,-1
594 99 m 1,413,-1
 590 96 l 1,414,-1
 590 94 l 1,415,416
 594.5 88 594.5 88 599 88 c 1,417,-1
 599 94 l 1,418,-1
 594 99 l 1,413,-1
547 89 m 1,419,-1
 550 86 l 1,420,421
 560 87 560 87 560 92 c 2,422,-1
 560 94 l 1,423,424
 559 98 559 98 551 98 c 1,425,426
 547 97 547 97 547 89 c 1,419,-1
118 86 m 1,427,-1
 118 81 l 1,428,429
 123 70 123 70 130 70 c 1,430,-1
 130 71 l 2,431,432
 130 86 130 86 118 86 c 1,427,-1
200 72 m 2,433,-1
 197 72 l 1,434,-1
 197 68 l 1,435,436
 208 53 208 53 217 53 c 2,437,-1
 221 53 l 2,438,439
 224 53 224 53 224 57 c 1,440,441
 210.5 72 210.5 72 200 72 c 2,433,-1
581 50 m 1,442,-1
 578 47 l 1,443,-1
 578 46 l 1,444,-1
 582 46 l 1,445,-1
 585 49 l 1,446,-1
 585 50 l 1,447,-1
 581 50 l 1,442,-1
295 47 m 1,448,-1
 292 47 l 1,449,-1
 292 46 l 1,450,-1
 295 46 l 1,451,-1
 295 47 l 1,448,-1
325 36 m 2,452,-1
 325 33 l 1,453,454
 361 35 361 35 364 43 c 1,455,-1
 364 44 l 1,456,-1
 361 47 l 1,457,-1
 353 47 l 1,458,459
 325 41 325 41 325 36 c 2,452,-1
210 40 m 2,460,-1
 207 40 l 1,461,-1
 207 38 l 2,462,463
 207 32 207 32 230 30 c 1,464,-1
 241 30 l 1,465,466
 228 40 228 40 210 40 c 2,460,-1
260 33 m 1,467,-1
 258 33 l 1,468,-1
 258 30 l 1,469,-1
 260 30 l 1,470,-1
 260 33 l 1,467,-1
174 25 m 1,471,-1
 170 21 l 1,472,-1
 170 18 l 1,473,-1
 174 18 l 1,474,-1
 174 16 l 1,475,-1
 178 18 l 1,476,-1
 178 22 l 1,477,-1
 174 25 l 1,471,-1
210 10 m 0,478,479
 193 10 193 10 193 4.5 c 128,-1,480
 193 -1 193 -1 246 -6 c 1,481,-1
 263 -6 l 2,482,483
 273 -6 273 -6 274 -2 c 1,484,485
 274 9 274 9 210 10 c 0,478,479
303 -1 m 1,486,-1
 301 -3 l 1,487,-1
 301 -5 l 1,488,-1
 308 -6 l 1,489,-1
 319 -6 l 1,490,-1
 322 -3 l 1,491,-1
 319 -1 l 1,492,-1
 303 -1 l 1,486,-1
EndSplineSet
EndChar

StartChar: quotesingle
Encoding: 39 39 10
Width: 203
Flags: W
HStem: 590 44<104 115> 691 26<73.8555 93.2471>
VStem: 38 31<641.065 651> 115 71<534.984 581.984 588 590 634 646> 115 19<546 551>
LayerCount: 2
Fore
SplineSet
91 717 m 0,0,1
 127 717 127 717 160 682 c 1,2,3
 181 655 181 655 181 607 c 1,4,5
 184 607 184 607 186 596 c 1,6,-1
 186 595 l 2,7,8
 186 587.5 186 587.5 177 556 c 1,9,-1
 160 506 l 1,10,-1
 122 459 l 1,11,12
 101 474 101 474 101 486 c 1,13,14
 105 523 105 523 115 556 c 1,15,-1
 115 560 l 2,16,17
 115 575 115 575 98 581 c 1,18,19
 38 612.5 38 612.5 38 644 c 1,20,-1
 37 651 l 1,21,22
 44.5 717 44.5 717 91 717 c 0,0,1
69 662 m 1,23,-1
 69 654 l 2,24,25
 69 643 69 643 74 641 c 1,26,27
 84 659 84 659 104 672 c 1,28,-1
 106 674 l 1,29,-1
 102 678 l 1,30,-1
 90 676 l 1,31,-1
 86 678 l 1,32,-1
 86 680 l 1,33,-1
 94 689 l 1,34,-1
 94 691 l 1,35,-1
 91 691 l 2,36,37
 74 691 74 691 69 662 c 1,23,-1
104 635 m 2,38,-1
 104 634 l 1,39,-1
 106 634 l 2,40,41
 118 634 118 634 118 646 c 1,42,-1
 114 648 l 1,43,-1
 110 648 l 1,44,45
 104 646 104 646 104 635 c 2,38,-1
146 631 m 1,46,-1
 142 627 l 1,47,-1
 142 623 l 1,48,-1
 145 623 l 2,49,50
 147 623 147 623 150 630 c 1,51,-1
 149 631 l 1,52,-1
 146 631 l 1,46,-1
104 592 m 1,53,-1
 94 590 l 1,54,-1
 94 588 l 1,55,-1
 97 585 l 1,56,-1
 112 585 l 1,57,-1
 115 588 l 1,58,-1
 115 590 l 1,59,-1
 104 592 l 1,53,-1
151 588 m 1,60,-1
 149 585 l 1,61,-1
 149 582 l 1,62,-1
 151 582 l 1,63,-1
 154 585 l 1,64,-1
 154 588 l 1,65,-1
 151 588 l 1,60,-1
136 554 m 1,66,-1
 134 551 l 1,67,-1
 134 546 l 1,68,-1
 136 543 l 1,69,-1
 140 547 l 1,70,-1
 140 550 l 1,71,-1
 136 554 l 1,66,-1
157 534 m 1,72,-1
 153 534 l 1,73,-1
 147 522 l 1,74,-1
 150 522 l 1,75,-1
 157 530 l 1,76,-1
 157 534 l 1,72,-1
EndSplineSet
EndChar

StartChar: parenleft
Encoding: 40 40 11
Width: 283
Flags: W
HStem: -7 21<206 211.661> 250 20<120.266 123> 351 9<119.08 123.292> 734 20G<122 135> 786 7<166.124 170> 795 27<139.094 145 146 149 169 172.621> 836 2<150 153> 896 14<188 190>
VStem: 42 78<406 412 416 523.034> 53 25<525.051 569.741> 149 9<763 779.438> 150 3<836 838> 222 20<858.542 866>
LayerCount: 2
Fore
SplineSet
214 823 m 1,0,-1
 214 831 l 1,1,-1
 210 828 l 1,2,-1
 147 665 l 1,3,4
 120 508 120 508 120 426 c 1,5,-1
 118 418 l 1,6,-1
 116 418 l 1,7,-1
 116 416 l 1,8,-1
 118 412 l 1,9,-1
 118 406 l 1,10,-1
 114 401 l 1,11,12
 113 405 113 405 106 405 c 2,13,-1
 102 405 l 2,14,15
 94 405 94 405 93 398 c 1,16,17
 98 351 98 351 102 351 c 1,18,19
 107 353 107 353 114 370 c 1,20,-1
 118 370 l 1,21,22
 119 360 119 360 123 360 c 0,23,24
 124.5 360 124.5 360 123 351 c 1,25,-1
 122 351 l 1,26,27
 114 346 114 346 114 338 c 2,28,-1
 114 321 l 1,29,-1
 112 310 l 1,30,-1
 112 306 l 2,31,32
 112 270 112 270 128 270 c 1,33,34
 150 186 150 186 166 162 c 1,35,36
 174 148 174 148 197 86 c 1,37,38
 240 7 240 7 259 -21 c 1,39,-1
 259 -25 l 1,40,-1
 253 -26 l 1,41,-1
 235 -26 l 2,42,43
 226 -26 226 -26 210 -38 c 1,44,-1
 202 -38 l 1,45,46
 193 -25 193 -25 173 -25 c 1,47,48
 162 -20 162 -20 138 48 c 1,49,50
 111 97 111 97 70 241 c 1,51,-1
 54 360 l 1,52,53
 52 360 52 360 49 412 c 1,54,55
 42 433 42 433 42 478 c 2,56,-1
 42 493 l 2,57,58
 42 504 42 504 53 528 c 1,59,-1
 53 530 l 2,60,61
 53 564 53 564 73 627 c 1,62,63
 101 826 101 826 116 826 c 1,64,65
 130 866 130 866 155 894 c 1,66,67
 182 939 182 939 210 952 c 1,68,69
 226 952 226 952 228 926 c 1,70,71
 242 888 242 888 254 874 c 1,72,-1
 254 872 l 1,73,-1
 253 871 l 1,74,-1
 242 866 l 1,75,-1
 242 862 l 1,76,77
 243 858 243 858 250 858 c 1,78,-1
 258 861 l 1,79,-1
 235 846 l 1,80,-1
 238 840 l 1,81,82
 238 829 238 829 224 821 c 1,83,-1
 218 821 l 1,84,-1
 214 823 l 1,0,-1
104 713 m 2,85,-1
 104 709 l 1,86,-1
 106 706 l 1,87,88
 110.5 710.5 110.5 710.5 118 745 c 1,89,90
 121 746 121 746 123 754 c 1,91,-1
 126 754 l 1,92,-1
 135 746 l 1,93,94
 149 757 149 757 149 782 c 2,95,-1
 149 795 l 1,96,-1
 146 795 l 1,97,-1
 145 794 l 1,98,99
 142 794 142 794 139 786 c 1,100,-1
 135 782 l 1,101,102
 130 785 130 785 128 788 c 1,103,104
 139 823 139 823 146 823 c 2,105,-1
 153 822 l 1,106,-1
 159 822 l 2,107,108
 172 822 172 822 183 866 c 1,109,-1
 183 870 l 1,110,111
 178 870 178 870 161 853 c 1,112,-1
 161 854 l 1,113,114
 171 868 171 868 171 874 c 2,115,-1
 171 877 l 1,116,-1
 169 879 l 1,117,-1
 165 879 l 1,118,119
 136 856 136 856 136 836 c 1,120,121
 104 767 104 767 104 713 c 2,85,-1
114 206 m 1,122,-1
 112 186 l 1,123,124
 119 149 119 149 126 149 c 2,125,-1
 127 149 l 1,126,-1
 131 154 l 1,127,128
 142 159 142 159 142 161 c 0,129,130
 128 206 128 206 114 206 c 1,122,-1
210 866 m 1,131,-1
 200 866 l 2,132,133
 193 866 193 866 183 829 c 1,134,135
 175.992585269 818.488877904 175.992585269 818.488877904 182.466998303 817.853262013 c 0,136,137
 189.361323651 817.176421853 189.361323651 817.176421853 200 842 c 1,138,139
 222 865 222 865 222 875 c 1,140,-1
 216 879 l 1,141,-1
 214 879 l 2,142,143
 211 879 211 879 210 866 c 1,131,-1
78 528 m 2,144,-1
 78 525 l 1,145,146
 89 525 89 525 97 554 c 1,147,148
 92 571 92 571 90 571 c 1,149,150
 78 550 78 550 78 528 c 2,144,-1
193 50 m 1,151,-1
 192 50 l 1,152,-1
 193 35 l 1,153,-1
 186 28 l 1,154,155
 186 18 186 18 210 14 c 1,156,-1
 212 14 l 1,157,-1
 212 15 l 1,158,159
 208 32 208 32 193 50 c 1,151,-1
112 625 m 2,160,-1
 112 623 l 1,161,-1
 114 623 l 1,162,163
 121.5 627.5 121.5 627.5 126 674 c 1,164,-1
 124 674 l 1,165,166
 112 656 112 656 112 625 c 2,160,-1
140 147 m 1,167,-1
 138 143 l 1,168,-1
 138 138 l 1,169,170
 146 112 146 112 155 112 c 1,171,-1
 155 116 l 2,172,173
 155 134 155 134 140 147 c 1,167,-1
158 766 m 2,174,-1
 158 763 l 1,175,-1
 161 760 l 1,176,177
 167 760 167 760 170 780 c 1,178,-1
 170 786 l 1,179,-1
 169 786 l 1,180,181
 158 778 158 778 158 766 c 2,174,-1
206 -7 m 1,182,-1
 202 -11 l 1,183,-1
 202 -14 l 1,184,185
 205 -19 205 -19 212 -19 c 2,186,-1
 216 -19 l 1,187,-1
 222 -13 l 1,188,189
 222 -9 222 -9 208 -7 c 1,190,-1
 206 -7 l 1,182,-1
123 250 m 1,191,-1
 120 250 l 1,192,-1
 120 242 l 1,193,-1
 126 237 l 1,194,-1
 128 237 l 1,195,-1
 128 244 l 1,196,-1
 123 250 l 1,191,-1
112 386 m 1,197,-1
 114 390 l 1,198,199
 120 388.5 120 388.5 120 381 c 2,200,-1
 120 378 l 1,201,-1
 118 378 l 2,202,203
 117 378 117 378 112 386 c 1,197,-1
188 896 m 1,204,-1
 183 892 l 1,205,-1
 183 890 l 1,206,-1
 186 888 l 1,207,-1
 188 888 l 1,208,-1
 190 890 l 1,209,-1
 190 896 l 1,210,-1
 188 896 l 1,204,-1
110 603 m 1,211,-1
 108 603 l 1,212,-1
 108 598 l 1,213,-1
 110 595 l 1,214,-1
 114 595 l 1,215,-1
 114 601 l 1,216,-1
 110 603 l 1,211,-1
169 797 m 1,217,-1
 166 794 l 1,218,-1
 166 793 l 1,219,-1
 171 793 l 1,220,-1
 174 795 l 1,221,-1
 174 797 l 1,222,-1
 169 797 l 1,217,-1
192 916 m 1,223,-1
 188 911 l 1,224,-1
 188 910 l 1,225,-1
 193 910 l 1,226,-1
 194 914 l 1,227,-1
 193 916 l 1,228,-1
 192 916 l 1,223,-1
150 836 m 1,229,-1
 150 838 l 1,230,-1
 153 838 l 1,231,-1
 153 836 l 1,232,-1
 150 836 l 1,229,-1
EndSplineSet
EndChar

StartChar: parenright
Encoding: 41 41 12
Width: 366
Flags: W
HStem: -66 23<84.5 101.844> 304 14<269.905 276> 363 11<278 279> 524 20G<326 334> 538 35G<325 334> 696 7<250 254> 886 60<184 204.501> 919 27<171.745 185.757> 944 15<205 209>
VStem: 102 8<-14 16> 104 38<-33 -25> 106 12<-62 -61.0691> 143 28<912 918.521> 184 23<147.594 160.648> 248 20.5<330.31 362.871 471.086 489.995> 254 60<482.125 505.685 511 582> 272 25<471.033 488> 282 31<556 561> 291 5<250 254> 293 9<325.019 354.604> 306 12<457.377 489.356> 325 9<554.325 572.997>
LayerCount: 2
Fore
SplineSet
205 959 m 1,0,-1
 207 959 l 1,1,2
 233 936 233 936 255 877 c 1,3,4
 289 816 289 816 302 761 c 1,5,6
 316 713 316 713 330 573 c 1,7,8
 332 573 332 573 334 561 c 1,9,10
 331 554 331 554 326 552 c 1,11,-1
 325 554 l 1,12,-1
 325 567 l 2,13,14
 325 578 325 578 318 582 c 1,15,-1
 317 582 l 2,16,17
 314 582 314 582 314 578 c 2,18,-1
 313 550 l 1,19,-1
 314 514 l 1,20,21
 316 509 316 509 318 509 c 2,22,-1
 326 511 l 1,23,-1
 330 511 l 1,24,-1
 334 507 l 1,25,-1
 334 506 l 1,26,27
 325 496 325 496 318 474 c 1,28,-1
 318 472 l 2,29,30
 318 467 318 467 326 446 c 1,31,32
 315 402 315 402 302 402 c 1,33,-1
 287 414 l 1,34,35
 281 414 281 414 276 376 c 1,36,-1
 278 374 l 1,37,-1
 283 374 l 1,38,-1
 298 384 l 1,39,-1
 302 380 l 1,40,-1
 304 380 l 1,41,-1
 302 376 l 1,42,-1
 308 366 l 1,43,-1
 302 321 l 1,44,-1
 302 318 l 1,45,46
 303 316 303 316 314 311 c 1,47,-1
 315 303 l 1,48,49
 311 281 311 281 307 281 c 1,50,-1
 304 292 l 1,51,52
 288 292 288 292 251 205 c 1,53,-1
 254 205 l 1,54,55
 276 227 276 227 280 227 c 1,56,-1
 280 223 l 1,57,58
 267 184 267 184 221 105 c 128,-1,59
 175 26 175 26 162 13 c 1,60,-1
 154 6 l 1,61,-1
 153 6 l 1,62,-1
 154 16 l 1,63,-1
 154 20 l 1,64,-1
 151 23 l 1,65,-1
 147 23 l 1,66,-1
 122 1 l 1,67,68
 110 -3.5 110 -3.5 110 -14 c 1,69,-1
 111 -14 l 1,70,-1
 119 -8 l 1,71,-1
 121 -8 l 1,72,-1
 122 -15 l 1,73,-1
 121 -25 l 1,74,-1
 123 -25 l 1,75,-1
 134 -16 l 1,76,-1
 138 -16 l 1,77,-1
 142 -21 l 1,78,-1
 142 -22 l 2,79,80
 142 -29 142 -29 121 -47 c 0,81,82
 118 -50 118 -50 118 -64 c 1,83,-1
 114 -68 l 1,84,-1
 111 -68 l 1,85,-1
 106 -62 l 1,86,-1
 106 -61 l 1,87,-1
 102 -61 l 1,88,89
 97 -66 97 -66 93 -66 c 1,90,91
 76 -43 76 -43 59 -29 c 1,92,93
 56 -12 56 -12 44 -12 c 1,94,-1
 39 -10 l 1,95,-1
 39 -8 l 1,96,-1
 50 -5 l 1,97,-1
 67 -10 l 1,98,-1
 70 -10 l 1,99,100
 102 -1 102 -1 102 16 c 1,101,-1
 100 18 l 1,102,-1
 78 9 l 1,103,-1
 76 10 l 1,104,-1
 76 12 l 2,105,106
 76 15 76 15 126 63 c 0,107,108
 145 82 145 82 171 146 c 1,109,110
 184 159 184 159 184 164 c 1,111,112
 197 221 197 221 205 226 c 1,113,114
 208 226 208 226 213 209 c 1,115,-1
 214 209 l 1,116,117
 248 289 248 289 248 337 c 1,118,-1
 250 378 l 1,119,-1
 248 378 l 2,120,121
 235 378 235 378 220 281 c 1,122,123
 215 234 215 234 207 234 c 2,124,-1
 206 234 l 1,125,-1
 205 238 l 1,126,-1
 218 339 l 1,127,128
 226 342 226 342 231 374 c 1,129,130
 241 395 241 395 241 416 c 1,131,-1
 238 468 l 2,132,133
 238 472 238 472 246 482 c 1,134,-1
 246 490 l 1,135,136
 253 510 253 510 254 539 c 1,137,138
 254 730 254 730 173 856 c 1,139,140
 154 874 154 874 150 891 c 1,141,142
 162 895.5 162 895.5 162 903 c 1,143,-1
 158 903 l 1,144,-1
 145 902 l 1,145,-1
 143 903 l 1,146,-1
 143 905 l 2,147,148
 143 919 143 919 178 946 c 1,149,150
 189 946 189 946 205 959 c 1,0,-1
209 944 m 1,151,-1
 205 944 l 1,152,-1
 205 940 l 1,153,154
 206 925 206 925 210 925 c 2,155,-1
 212 925 l 1,156,157
 218 926.5 218 926.5 218 934 c 2,158,-1
 218 936 l 1,159,-1
 209 944 l 1,151,-1
171 914 m 1,160,-1
 171 912 l 1,161,-1
 174 909 l 1,162,-1
 181 909 l 1,163,-1
 186 914 l 1,164,-1
 186 919 l 1,165,-1
 184 919 l 2,166,167
 173 919 173 919 171 914 c 1,160,-1
184 886 m 1,168,-1
 179 881 l 1,169,-1
 179 880 l 1,170,-1
 207 858 l 1,171,-1
 209 860 l 1,172,-1
 209 862 l 1,173,174
 203 871 203 871 203 878 c 1,175,-1
 205 880 l 1,176,-1
 206 880 l 1,177,178
 204 886 204 886 198 886 c 2,179,-1
 184 886 l 1,168,-1
209 849 m 1,180,-1
 206 852 l 1,181,-1
 205 850 l 1,182,-1
 205 847 l 1,183,-1
 207 845 l 1,184,-1
 209 845 l 1,185,-1
 209 849 l 1,180,-1
218 830 m 1,186,-1
 216 830 l 1,187,-1
 216 828 l 1,188,-1
 220 824 l 1,189,-1
 222 824 l 1,190,-1
 222 828 l 1,191,-1
 218 830 l 1,186,-1
235 774 m 1,192,-1
 231 774 l 1,193,194
 231 761 231 761 251 712 c 1,195,-1
 250 706 l 1,196,-1
 250 703 l 1,197,-1
 251 703 l 2,198,199
 263 703 263 703 268 699 c 1,200,-1
 272 699 l 2,201,202
 274 699 274 699 274 706.5 c 128,-1,203
 274 714 274 714 235 774 c 1,192,-1
254 696 m 1,204,-1
 250 696 l 1,205,-1
 250 695 l 1,206,207
 269 629 269 629 269 619 c 2,208,-1
 268 589 l 1,209,-1
 270 589 l 1,210,211
 275 596 275 596 289 610 c 1,212,-1
 296 671 l 1,213,-1
 254 696 l 1,204,-1
282 561 m 1,214,-1
 279 561 l 1,215,-1
 279 556 l 1,216,-1
 282 556 l 1,217,-1
 282 561 l 1,214,-1
326 539 m 1,218,-1
 330 544 l 1,219,-1
 334 544 l 1,220,-1
 334 541 l 1,221,-1
 330 538 l 1,222,-1
 326 538 l 1,223,-1
 326 539 l 1,218,-1
326 522 m 1,224,-1
 326 524 l 1,225,-1
 328 524 l 1,226,-1
 330 522 l 1,227,-1
 330 520 l 1,228,-1
 328 520 l 1,229,-1
 326 522 l 1,224,-1
297 474 m 1,230,-1
 297 460 l 1,231,-1
 300 457 l 1,232,-1
 302 457 l 1,233,234
 306 469 306 469 306 490 c 1,235,-1
 304 492 l 1,236,-1
 302 492 l 2,237,238
 298 492 298 492 297 474 c 1,230,-1
265 471 m 1,239,-1
 268 471 l 1,240,241
 272 472 272 472 272 479 c 2,242,-1
 272 488 l 1,243,-1
 269 490 l 1,244,245
 265 490 265 490 265 471 c 1,239,-1
278 363 m 1,246,247
 268 359 268 359 268.5 338.5 c 128,-1,248
 269 318 269 318 274 318 c 2,249,-1
 276 318 l 2,250,251
 290 318 290 318 293 339 c 1,252,-1
 293 350 l 2,253,254
 293 358 293 358 287 360 c 1,255,-1
 280 356 l 1,256,-1
 279 363 l 1,257,-1
 278 363 l 1,246,247
251 257 m 1,258,-1
 252 257 l 1,259,260
 266 271 266 271 278 303 c 1,261,-1
 276 304 l 1,262,-1
 274 304 l 2,263,264
 262 304 262 304 251 257 c 1,258,-1
291 254 m 1,265,-1
 294 257 l 1,266,-1
 297 254 l 1,267,-1
 296 250 l 1,268,-1
 291 250 l 1,269,-1
 291 254 l 1,265,-1
283 237 m 1,270,-1
 287 242 l 1,271,-1
 289 242 l 1,272,-1
 289 240 l 1,273,-1
 285 236 l 1,274,-1
 283 236 l 1,275,-1
 283 237 l 1,270,-1
207 142 m 1,276,-1
 212 142 l 1,277,278
 244 168 244 168 244 186 c 1,279,-1
 242 186 l 2,280,281
 236 186 236 186 221.5 165.5 c 128,-1,282
 207 145 207 145 207 142 c 1,276,-1
167 78 m 1,283,-1
 158 55 l 1,284,-1
 162 54 l 1,285,286
 185 73 185 73 213 124 c 1,287,-1
 213 126 l 1,288,-1
 212 128 l 1,289,290
 195 116 195 116 167 78 c 1,283,-1
145 -10 m 1,291,-1
 147 -6 l 1,292,-1
 149 -8 l 1,293,-1
 149 -10 l 1,294,-1
 145 -12 l 1,295,-1
 145 -10 l 1,291,-1
89 -25 m 1,296,-1
 86 -25 l 1,297,-1
 82 -34 l 1,298,299
 82 -38 82 -38 90 -43 c 1,300,-1
 91 -43 l 2,301,302
 98 -43 98 -43 104 -33 c 1,303,-1
 104 -32 l 2,304,305
 104 -26 104 -26 89 -25 c 1,296,-1
EndSplineSet
EndChar

StartChar: asterisk
Encoding: 42 42 13
Width: 640
Flags: W
HStem: 413 21<278.028 281.445> 472 11<20.3672 33> 474 37<29.293 55 66 70> 474 16<66.001 82.8445>
VStem: 394 40<440.094 451> 434 35<366.25 380.361>
LayerCount: 2
Fore
SplineSet
301 709 m 1,0,-1
 307 709 l 1,1,-1
 307 706 l 1,2,3
 310 690 310 690 339 629.75 c 128,-1,4
 368 569.5 368 569.5 380 526 c 1,5,-1
 382 525 l 1,6,-1
 418 525 l 1,7,8
 620 521 620 521 620 513 c 2,9,-1
 620 510 l 1,10,11
 611 499 611 499 598 474 c 1,12,13
 579 454 579 454 530 420 c 1,14,15
 469 366 469 366 469 362 c 2,16,-1
 469 360 l 1,17,18
 491 301 491 301 526 239 c 1,19,20
 526 226 526 226 562 174 c 1,21,22
 570 169 570 169 570 161 c 1,23,24
 562 154 562 154 557 154 c 1,25,26
 508 184 508 184 430 209 c 1,27,28
 345 234 345 234 318 234 c 0,29,30
 308 234 308 234 256 185 c 1,31,-1
 159 112 l 1,32,33
 152 108 152 108 145 108 c 2,34,-1
 144 108 l 1,35,36
 140 109 140 109 134 127 c 1,37,38
 134 141 134 141 150 172 c 1,39,40
 158 196 158 196 166 310 c 1,41,-1
 166 311 l 2,42,43
 166 324 166 324 142 336 c 1,44,45
 142 350 142 350 40 457 c 1,46,-1
 38 465 l 1,47,-1
 38 466 l 1,48,-1
 40 466 l 1,49,-1
 40 468 l 1,50,-1
 42 466 l 1,51,-1
 60 466 l 1,52,-1
 60 469 l 1,53,-1
 55 474 l 1,54,-1
 40 474 l 1,55,-1
 25 472 l 1,56,-1
 19 474 l 1,57,-1
 19 476 l 2,58,59
 19 478 19 478 33 483 c 1,60,-1
 33 486 l 1,61,-1
 29 493 l 1,62,63
 29 503.5 29 503.5 77 511 c 1,64,-1
 82 511 l 1,65,-1
 200 502 l 1,66,67
 219 539 219 539 262 654 c 1,68,69
 286 697 286 697 301 709 c 1,0,-1
288 640 m 2,70,-1
 288 636 l 1,71,-1
 290 633 l 1,72,73
 298 636 298 636 298 644 c 2,74,-1
 298 650 l 1,75,-1
 294 650 l 1,76,77
 288 647 288 647 288 640 c 2,70,-1
274 558 m 1,78,-1
 271 558 l 1,79,-1
 268 554 l 1,80,-1
 268 552 l 1,81,-1
 273 552 l 1,82,-1
 274 558 l 1,78,-1
352 519 m 1,83,-1
 350 517 l 1,84,-1
 350 508 l 1,85,-1
 351 508 l 1,86,-1
 354 511 l 1,87,-1
 354 519 l 1,88,-1
 352 519 l 1,83,-1
250 514 m 1,89,-1
 246 510 l 1,90,-1
 246 507 l 1,91,-1
 249 507 l 1,92,-1
 253 511 l 1,93,-1
 253 514 l 1,94,-1
 250 514 l 1,89,-1
314 502 m 1,95,96
 308 497.5 308 497.5 296 466 c 1,97,98
 287 462 287 462 278 434 c 1,99,-1
 279 434 l 2,100,101
 299 434 299 434 305 455 c 1,102,103
 315 470 315 470 320 490 c 1,104,-1
 326 496 l 1,105,-1
 326 497 l 2,106,107
 326 499 326 499 314 502 c 1,95,96
66 493 m 2,108,-1
 66 491 l 1,109,-1
 81 490 l 1,110,-1
 86 490 l 2,111,112
 105 490 105 490 105 494 c 2,113,-1
 105 496 l 2,114,115
 105 498 105 498 96 500 c 1,116,117
 66 498 66 498 66 493 c 2,108,-1
582 497 m 1,118,-1
 578 493 l 1,119,-1
 578 490 l 1,120,-1
 581 490 l 1,121,-1
 585 494 l 1,122,-1
 585 497 l 1,123,-1
 582 497 l 1,118,-1
434 486 m 1,124,-1
 430 483 l 1,125,-1
 435 483 l 1,126,-1
 435 486 l 1,127,-1
 434 486 l 1,124,-1
66 470 m 1,128,129
 72 460 72 460 79 457 c 1,130,-1
 83 457 l 1,131,-1
 83 465 l 2,132,133
 83 470 83 470 70 474 c 1,134,135
 66 474 66 474 66 470 c 1,128,129
434 438 m 1,136,137
 436 433 436 433 442 430 c 1,138,-1
 447 430 l 1,139,140
 479 442 479 442 486 455 c 1,141,-1
 486 459 l 1,142,-1
 481 463 l 1,143,-1
 469 463 l 1,144,145
 434 455 434 455 434 438 c 1,136,137
369 446 m 1,146,-1
 369 444 l 1,147,-1
 374 440 l 1,148,149
 394 443 394 443 394 448 c 2,150,-1
 394 451 l 1,151,-1
 387 452 l 1,152,-1
 379 452 l 2,153,154
 370 452 370 452 369 446 c 1,146,-1
254 323 m 1,155,-1
 246 297 l 1,156,-1
 247 295 l 1,157,-1
 249 295 l 1,158,159
 318 370 318 370 324 403 c 1,160,161
 334 422 334 422 334 437 c 2,162,-1
 334 438 l 1,163,164
 322 438 322 438 314 399 c 1,165,-1
 295 368 l 1,166,167
 278 333 278 333 254 323 c 1,155,-1
414 426 m 1,168,-1
 410 422 l 1,169,-1
 413 422 l 1,170,-1
 415 424 l 1,171,-1
 415 426 l 1,172,-1
 414 426 l 1,168,-1
274 401 m 1,173,-1
 275 399 l 1,174,175
 282 400 282 400 282 409 c 2,176,-1
 282 413 l 1,177,-1
 281 413 l 2,178,179
 277 413 277 413 274 401 c 1,173,-1
432 384 m 1,180,-1
 430 384 l 1,181,182
 418 369 418 369 418 366 c 1,183,-1
 419 366 l 1,184,185
 434 374 434 374 434 382 c 1,186,-1
 432 384 l 1,180,-1
246 373 m 2,187,-1
 239 373 l 1,188,-1
 239 368 l 1,189,190
 242 362 242 362 250 362 c 2,191,-1
 253 362 l 1,192,-1
 256 364 l 1,193,-1
 256 367 l 1,194,195
 254 373 254 373 246 373 c 2,187,-1
351 370 m 1,196,-1
 348 367 l 1,197,-1
 348 364 l 1,198,-1
 350 364 l 1,199,-1
 354 368 l 1,200,-1
 354 370 l 1,201,-1
 351 370 l 1,196,-1
330 315 m 1,202,-1
 333 315 l 1,203,204
 348 326 348 326 362 347 c 1,205,-1
 362 349 l 1,206,-1
 361 349 l 1,207,208
 330 327 330 327 330 315 c 1,202,-1
422 328 m 1,209,-1
 410 318 l 1,210,-1
 410 314 l 1,211,212
 425 314 425 314 430 322 c 1,213,-1
 430 328 l 1,214,-1
 422 328 l 1,209,-1
390 278 m 1,215,216
 392 273 392 273 400 273 c 2,217,-1
 404 273 l 1,218,219
 410 274 410 274 410 286 c 1,220,-1
 406 287 l 1,221,222
 390 283 390 283 390 278 c 1,215,216
268 273 m 1,223,-1
 266 270 l 1,224,-1
 266 267 l 1,225,-1
 267 267 l 1,226,-1
 270 270 l 1,227,-1
 270 273 l 1,228,-1
 268 273 l 1,223,-1
425 272 m 2,229,-1
 424 272 l 1,230,-1
 424 270 l 1,231,232
 425 266 425 266 432 262 c 1,233,-1
 439 262 l 1,234,-1
 439 263 l 1,235,236
 434 272 434 272 425 272 c 2,229,-1
402 250 m 1,237,-1
 402 254 l 1,238,239
 382 265 382 265 374 265 c 2,240,-1
 372 265 l 1,241,-1
 372 263 l 2,242,243
 372 258 372 258 402 250 c 1,237,-1
454 250 m 1,244,-1
 458 246 l 1,245,-1
 464 246 l 2,246,247
 472 246 472 246 473 250 c 1,248,-1
 470 254 l 1,249,-1
 463 254 l 1,250,251
 454 252 454 252 454 250 c 1,244,-1
466 218 m 1,252,-1
 466 217 l 2,253,254
 466 210 466 210 505 200 c 1,255,-1
 508 200 l 1,256,-1
 508 202 l 2,257,258
 508 208 508 208 466 218 c 1,252,-1
201 175 m 1,259,-1
 202 174 l 1,260,-1
 204 174 l 1,261,262
 215 179 215 179 217 182 c 1,263,-1
 217 185 l 1,264,-1
 215 185 l 1,265,266
 201 182 201 182 201 175 c 1,259,-1
EndSplineSet
EndChar

StartChar: plus
Encoding: 43 43 14
Width: 478
Flags: W
HStem: 172.727 17.2727<218.287 228.844 251 259 281 284> 278 12<183.812 206 222 225> 293 19<311 377.59> 321 9<121 122.913> 330 19<346.234 408.898> 351 27<122 125 155 160> 385 18<382 399> 462 38.4694<206 220.388>
VStem: 99 19<333 347> 200.2 12.8<380 452.613> 207 16<192.667 274.932 290.031 294> 226.045 79.9545<397 437.34> 229 21.1818<192.059 253.289> 256 10<478 480> 261 20<197 214 236.016 253.986> 285 15<197 214 236 262.994 438 442 473 476> 412 19<318.614 323>
LayerCount: 2
Fore
SplineSet
300 182 m 1,0,-1
 299 176 l 2,1,2
 298.454545455 172.727272727 298.454545455 172.727272727 274.772727273 172.727272727 c 128,-1,3
 251.090909091 172.727272727 251.090909091 172.727272727 212 175 c 1,4,-1
 211 174 l 1,5,6
 203.882352941 175.294117647 203.882352941 175.294117647 203.882352941 207.676470588 c 128,-1,7
 203.882352941 240.058823529 203.882352941 240.058823529 206 275 c 1,8,9
 166 270 166 270 154 270 c 1,10,-1
 154 273 l 2,11,12
 154 280 154 280 207 288 c 1,13,-1
 207 289 l 1,14,15
 206 293 206 293 206 302 c 1,16,17
 146 292 146 292 146 273 c 1,18,-1
 138 269 l 1,19,20
 99 269 99 269 99 347 c 0,21,22
 99 368 99 368 186 378 c 1,23,24
 186 379.5 186 379.5 198 381 c 1,25,-1
 201 380 l 1,26,27
 200.2 402.4 200.2 402.4 200.2 422.8 c 128,-1,28
 200.2 443.2 200.2 443.2 202 454 c 1,29,-1
 205 454 l 1,30,31
 213 452 213 452 213 378 c 1,32,-1
 220 377 l 1,33,-1
 226 377 l 1,34,35
 226.045454545 380.727272727 226.045454545 380.727272727 226.045454545 384.291322314 c 0,36,37
 226.045454545 459.136363636 226.045454545 459.136363636 206 462 c 1,38,-1
 202 471 l 1,39,40
 205.87755102 500.469387755 205.87755102 500.469387755 253.658475635 500.469387755 c 0,41,42
 267.489795918 500.469387755 267.489795918 500.469387755 285 498 c 0,43,44
 305.045454545 496.090909091 305.045454545 496.090909091 305.045454545 415.82231405 c 0,45,46
 305.045454545 412 305.045454545 412 305.522727273 410 c 128,-1,47
 306 408 306 408 306 397 c 1,48,-1
 302 387 l 1,49,-1
 412 403 l 1,50,-1
 418 403 l 2,51,52
 424 403 424 403 430 316 c 1,53,-1
 431 316 l 1,54,55
 431 305 431 305 318 297 c 1,56,57
 310 295 310 295 298 293 c 1,58,-1
 300 182 l 1,0,-1
311 314 m 1,59,-1
 311 312 l 1,60,-1
 312 312 l 1,61,62
 412 316 412 316 412 322 c 2,63,-1
 412 323 l 1,64,65
 411 326 411 326 405 330 c 1,66,-1
 403 330 l 2,67,68
 365 330 365 330 311 314 c 1,59,-1
220 192 m 2,69,-1
 221 192 l 2,70,71
 224 192 224 192 229 198 c 1,72,-1
 229 199 l 1,73,74
 230.454545455 210.272727273 230.454545455 210.272727273 230.454545455 229.045454545 c 128,-1,75
 230.454545455 247.818181818 230.454545455 247.818181818 226 279 c 1,76,77
 224 278 224 278 222 278 c 1,78,79
 217.916666667 228.416666667 217.916666667 228.416666667 217.916666667 210.416666667 c 128,-1,80
 217.916666667 192.416666667 217.916666667 192.416666667 220 192 c 2,69,-1
254 254 m 1,81,-1
 251 230 l 2,82,83
 250.181818182 220.454545455 250.181818182 220.454545455 250.181818182 207.045454545 c 128,-1,84
 250.181818182 193.636363636 250.181818182 193.636363636 256 190 c 1,85,-1
 259 190 l 1,86,-1
 261 195 l 1,87,88
 259 254 259 254 254 254 c 1,81,-1
346 349 m 1,89,-1
 370 349 l 1,90,91
 406 350.5 406 350.5 409 358 c 1,92,-1
 409 361 l 1,93,-1
 403 362 l 1,94,95
 346 354 346 354 346 349 c 1,89,-1
286 476 m 1,96,-1
 282 481 l 1,97,-1
 269 482 l 1,98,-1
 266 480 l 1,99,-1
 266 478 l 1,100,101
 265 476 265 476 268 474.5 c 0,102,103
 273 472 273 472 283 470 c 1,104,-1
 286 473 l 1,105,-1
 286 476 l 1,96,-1
122 351 m 1,106,-1
 118 347 l 1,107,-1
 118 333 l 1,108,-1
 121 330 l 1,109,-1
 122 330 l 2,110,111
 125 330 125 330 127 344 c 1,112,-1
 127 349 l 1,113,-1
 125 351 l 1,114,-1
 122 351 l 1,106,-1
278 263 m 1,115,-1
 277 250 l 1,116,117
 275 238 275 238 281 237 c 1,118,-1
 282 236 l 1,119,-1
 282 239 l 1,120,121
 284 263 284 263 278 263 c 1,115,-1
334 371 m 1,122,-1
 347 371 l 2,123,124
 358 371 358 371 360 377 c 1,125,-1
 360 378 l 1,126,-1
 357 378 l 1,127,128
 334 375 334 375 334 371 c 1,122,-1
390 385 m 1,129,-1
 382 383 l 1,130,-1
 382 381 l 1,131,-1
 392 381 l 1,132,-1
 399 382 l 1,133,-1
 399 385 l 1,134,-1
 390 385 l 1,129,-1
285 206 m 1,135,-1
 285 214 l 1,136,-1
 282 214 l 1,137,-1
 281 204 l 1,138,-1
 281 197 l 1,139,-1
 284 197 l 1,140,-1
 285 206 l 1,135,-1
282 442 m 1,141,-1
 278 447 l 1,142,-1
 277 447 l 1,143,-1
 276 442 l 1,144,-1
 278 438 l 1,145,-1
 282 438 l 1,146,-1
 282 442 l 1,141,-1
155 351 m 1,147,-1
 151 347 l 1,148,-1
 151 346 l 1,149,-1
 157 346 l 1,150,-1
 160 349 l 1,151,-1
 160 351 l 1,152,-1
 155 351 l 1,147,-1
256 481 m 1,153,-1
 254 484 l 1,154,-1
 251 485 l 1,155,-1
 250 482 l 1,156,-1
 253 478 l 1,157,-1
 256 478 l 1,158,-1
 256 481 l 1,153,-1
121 321 m 1,159,-1
 118 318 l 1,160,-1
 118 315 l 1,161,-1
 121 315 l 1,162,-1
 123 318 l 1,163,-1
 123 321 l 1,164,-1
 121 321 l 1,159,-1
226 353 m 1,165,-1
 222 351 l 1,166,-1
 222 347 l 1,167,-1
 226 347 l 1,168,-1
 226 353 l 1,165,-1
256 275 m 1,169,-1
 256 278 l 1,170,-1
 254 278 l 1,171,-1
 253 273 l 1,172,-1
 256 275 l 1,169,-1
325 347 m 1,173,-1
 322 347 l 1,174,-1
 322 344 l 1,175,-1
 328 344 l 1,176,-1
 325 347 l 1,173,-1
274 361 m 2,177,-1
 274 358 l 1,178,-1
 276 358 l 1,179,180
 275 359 275 359 275 362 c 1,181,182
 274 362 274 362 274 361 c 2,177,-1
224 293 m 1,183,-1
 223 294 l 1,184,-1
 223 292 l 2,185,186
 223 291 223 291 222 290 c 1,187,-1
 225 290 l 1,188,189
 224 291 224 291 224 293 c 1,183,-1
278 310 m 1,190,-1
 277 310 l 1,191,-1
 278 309 l 1,192,-1
 278 310 l 1,190,-1
EndSplineSet
EndChar

StartChar: comma
Encoding: 44 44 15
Width: 227
Flags: W
HStem: -78 26<86.127 93.8433 102 109> 140 18<99 114> 172 11<70 86>
VStem: 42 44<85 106.903> 42 31<113 137.526> 105 65<14.1248 23 23.0007 32.3047> 105 53<8 22.9688>
LayerCount: 2
Fore
SplineSet
67 176 m 1,0,1
 73 183 73 183 89 183 c 128,-1,2
 105 183 105 183 154 157 c 1,3,-1
 154 155 l 1,4,5
 136 150 136 150 136 148 c 1,6,7
 158 118 158 118 164 118 c 1,8,-1
 176 122 l 1,9,10
 180 122 180 122 183 114 c 1,11,-1
 179 101 l 1,12,13
 185 91 185 91 185 84 c 0,14,15
 185 40 185 40 164 26 c 1,16,17
 164 23 164 23 170 23 c 1,18,-1
 170 21 l 2,19,20
 170 18 170 18 158 14 c 1,21,-1
 158 8 l 1,22,-1
 174 6 l 1,23,24
 167 -17 167 -17 146 -45 c 1,25,26
 114 -83 114 -83 102 -83 c 1,27,-1
 94 -74 l 1,28,29
 89 -78 89 -78 82 -78 c 1,30,-1
 81 -74 l 1,31,32
 91 -52 91 -52 109 -52 c 1,33,-1
 110 -50 l 1,34,35
 110 -46 110 -46 94 -42 c 1,36,-1
 94 -39 l 1,37,38
 105 10 105 10 105 25 c 2,39,-1
 105 28 l 2,40,41
 105 29 105 29 73 34 c 1,42,43
 42 59 42 59 42 99 c 2,44,-1
 42 109 l 2,45,46
 42 161 42 161 75 161 c 1,47,48
 88 165 88 165 88 169 c 1,49,-1
 86 172 l 1,50,-1
 70 172 l 1,51,-1
 67 174 l 1,52,-1
 67 176 l 1,0,1
102 162 m 1,53,-1
 99 159 l 1,54,-1
 99 158 l 1,55,-1
 114 158 l 1,56,-1
 114 162 l 1,57,-1
 102 162 l 1,53,-1
75 127 m 1,58,-1
 73 116 l 1,59,-1
 73 113 l 1,60,61
 82 113 82 113 116 137 c 1,62,-1
 116 138 l 1,63,-1
 109 140 l 1,64,65
 75 140 75 140 75 127 c 1,58,-1
86 88 m 2,66,-1
 86 85 l 1,67,-1
 88 82 l 1,68,-1
 97 90 l 1,69,-1
 106 90 l 1,70,-1
 108 98 l 1,71,-1
 108 103 l 1,72,-1
 103 107 l 1,73,-1
 102 107 l 1,74,75
 86 104 86 104 86 88 c 2,66,-1
EndSplineSet
EndChar

StartChar: hyphen
Encoding: 45 45 16
Width: 399
Flags: W
HStem: 299 49<214 227.935> 310 10<60 62.9131> 320 18<286.706 348.33> 341 26<62 64 95 99> 355 11<182 198> 374 19<322 338>
VStem: 39 19<322 337> 351 20<308.188 319.906>
LayerCount: 2
Fore
SplineSet
351 393 m 1,0,-1
 357 393 l 2,1,2
 362 393 362 393 370 306 c 1,3,-1
 371 306 l 1,4,5
 371 294 371 294 258 286 c 1,6,7
 128 260 128 260 94 260 c 1,8,-1
 94 262 l 2,9,10
 94 272.5 94 272.5 187 283 c 1,11,12
 228 294 228 294 228 298 c 2,13,-1
 228 299 l 1,14,-1
 217 299 l 1,15,16
 86 290 86 290 86 262 c 1,17,-1
 77 258 l 1,18,19
 39 258 39 258 39 337 c 0,20,21
 39 358 39 358 126 367 c 1,22,23
 126 370 126 370 137 370 c 1,24,-1
 159 366 l 1,25,-1
 170 366 l 1,26,-1
 351 393 l 1,0,-1
329 374 m 1,27,-1
 322 373 l 1,28,-1
 322 370 l 1,29,-1
 332 370 l 1,30,-1
 338 372 l 1,31,-1
 338 374 l 1,32,-1
 329 374 l 1,27,-1
273 361 m 1,33,-1
 287 361 l 2,34,35
 297 361 297 361 299 366 c 1,36,-1
 299 367 l 1,37,-1
 297 367 l 1,38,39
 273 365.5 273 365.5 273 361 c 1,33,-1
214 350 m 2,40,-1
 214 348 l 1,41,-1
 215 348 l 2,42,43
 226 348 226 348 228 354 c 1,44,-1
 228 355 l 1,45,-1
 222 355 l 1,46,47
 214 353 214 353 214 350 c 2,40,-1
286 338 m 1,48,-1
 310 338 l 1,49,50
 346 340 346 340 349 348 c 1,51,-1
 349 350 l 1,52,-1
 343 352 l 1,53,54
 286 343 286 343 286 338 c 1,48,-1
161 341 m 1,55,-1
 161 337 l 1,56,-1
 162 337 l 2,57,58
 186 337 186 337 198 346 c 1,59,-1
 198 348 l 1,60,-1
 196 348 l 2,61,62
 182 348 182 348 161 341 c 1,55,-1
62 341 m 1,63,-1
 58 337 l 1,64,-1
 58 322 l 1,65,-1
 60 320 l 1,66,-1
 62 320 l 2,67,68
 65 320 65 320 67 334 c 1,69,-1
 67 338 l 1,70,-1
 64 341 l 1,71,-1
 62 341 l 1,63,-1
95 341 m 1,72,-1
 91 337 l 1,73,-1
 91 335 l 1,74,-1
 97 335 l 1,75,-1
 99 338 l 1,76,-1
 99 341 l 1,77,-1
 95 341 l 1,72,-1
265 337 m 1,78,-1
 262 337 l 1,79,-1
 262 334 l 1,80,-1
 267 334 l 1,81,-1
 265 337 l 1,78,-1
250 303 m 1,82,-1
 250 302 l 1,83,-1
 252 302 l 1,84,85
 351 306.5 351 306.5 351 311 c 2,86,-1
 351 313 l 1,87,88
 350 317 350 317 344 320 c 1,89,-1
 343 320 l 2,90,91
 307 320 307 320 250 303 c 1,82,-1
60 310 m 1,92,-1
 58 307 l 1,93,-1
 58 305 l 1,94,-1
 60 305 l 1,95,-1
 63 307 l 1,96,-1
 63 310 l 1,97,-1
 60 310 l 1,92,-1
EndSplineSet
EndChar

StartChar: period
Encoding: 46 46 17
Width: 227
Flags: W
HStem: 10 38<90.4238 106> 58 26<119 129.352> 127 28<86.4873 106>
VStem: 62 22<77.0071 122.307> 133 39<49.6201 62 93.375 114> 154 18<82.4561 93>
LayerCount: 2
Fore
SplineSet
120 155 m 1,0,1
 154 151 154 151 168 138 c 1,2,3
 172 129 172 129 172 118 c 2,4,-1
 172 102 l 2,5,6
 172 57 172 57 120 15 c 1,7,-1
 106 10 l 1,8,9
 83 10 83 10 62 73 c 1,10,-1
 62 78 l 2,11,12
 62 126 62 126 77 138 c 1,13,14
 109 155 109 155 120 155 c 1,0,1
84 106 m 1,15,16
 87 77 87 77 92 77 c 1,17,18
 94 78 94 78 102 116 c 1,19,-1
 106 123 l 1,20,-1
 106 127 l 1,21,-1
 105 127 l 1,22,23
 84 119.5 84 119.5 84 106 c 1,15,16
114 99 m 2,24,-1
 114 97 l 2,25,26
 114 86 114 86 119 84 c 1,27,-1
 120 84 l 2,28,29
 126 84 126 84 133 108 c 1,30,-1
 133 114 l 1,31,-1
 130 116 l 1,32,-1
 127 116 l 2,33,34
 114 116 114 116 114 99 c 2,24,-1
147 84 m 1,35,-1
 148 82 l 1,36,-1
 153 82 l 1,37,-1
 154 90 l 1,38,-1
 154 93 l 1,39,-1
 153 93 l 2,40,41
 150 93 150 93 147 84 c 1,35,-1
131 62 m 1,42,-1
 90 58 l 1,43,44
 90 49 90 49 97 48 c 1,45,-1
 109 48 l 2,46,47
 122 48 122 48 131 60 c 1,48,-1
 131 62 l 1,42,-1
EndSplineSet
EndChar

StartChar: slash
Encoding: 47 47 18
Width: 505
Flags: W
HStem: -5 14<96.4026 106> 815 27<380 387>
VStem: 22 16<47.0469 61> 98 12<242.2 244> 433 50<764.189 779>
LayerCount: 2
Fore
SplineSet
447 834 m 1,0,1
 474 830 474 830 474 821 c 1,2,3
 490 817 490 817 490 811 c 1,4,5
 477 794 477 794 477 789 c 1,6,-1
 483 779 l 1,7,-1
 483 778 l 2,8,9
 483 771 483 771 471 753 c 1,10,11
 438 664 438 664 298 414 c 1,12,13
 244 298 244 298 230 279 c 1,14,15
 168 172 168 172 124 61 c 1,16,-1
 102 26 l 1,17,-1
 115 8 l 1,18,19
 115 2 115 2 100 -5 c 1,20,-1
 97 -5 l 2,21,22
 78 -5 78 -5 44 29 c 1,23,24
 22 38 22 38 22 50 c 1,25,-1
 24 61 l 1,26,27
 53 140 53 140 80 193 c 1,28,29
 92 236 92 236 104 236 c 2,30,-1
 110 236 l 1,31,-1
 110 238 l 2,32,33
 110 242 110 242 98 243 c 1,34,-1
 98 244 l 1,35,-1
 142 344 l 1,36,37
 156 363 156 363 156 374 c 1,38,39
 182 397 182 397 190 423 c 1,40,-1
 188 436 l 1,41,42
 193 448 193 448 209 462 c 1,43,-1
 331 708 l 1,44,45
 376 842 376 842 412 842 c 0,46,47
 433 842 433 842 447 834 c 1,0,1
391 811 m 1,48,-1
 387 815 l 1,49,50
 380 815 380 815 370 770 c 1,51,-1
 370 768 l 1,52,-1
 371 768 l 1,53,54
 379 773 379 773 391 807 c 1,55,-1
 391 811 l 1,48,-1
422 766 m 2,56,-1
 422 764 l 1,57,-1
 423 764 l 1,58,59
 433 770 433 770 433 781 c 2,60,-1
 433 782 l 1,61,62
 422 774 422 774 422 766 c 2,56,-1
395 645 m 1,63,-1
 395 641 l 1,64,-1
 401 641 l 1,65,-1
 404 646 l 1,66,-1
 404 652 l 1,67,68
 398 652 398 652 395 645 c 1,63,-1
306 554 m 1,69,-1
 304 554 l 2,70,71
 298 554 298 554 283 514 c 1,72,-1
 283 513 l 1,73,-1
 285 512 l 1,74,75
 298.5 524 298.5 524 306 551 c 1,76,-1
 306 554 l 1,69,-1
212 345 m 1,77,-1
 212 344 l 1,78,79
 218 344 218 344 220 350 c 1,80,81
 214 350 214 350 212 345 c 1,77,-1
171 339 m 1,82,-1
 170 339 l 1,83,-1
 169 341 l 1,84,-1
 162 337 l 1,85,-1
 134 283 l 1,86,87
 110 257.5 110 257.5 110 250 c 2,88,-1
 110 246 l 2,89,90
 110 241 110 241 117 240 c 1,91,92
 133.5 253.5 133.5 253.5 171 339 c 1,82,-1
209 333 m 1,93,-1
 208 333 l 1,94,95
 195 317 195 317 195 307 c 2,96,-1
 195 306 l 1,97,-1
 198 306 l 2,98,99
 202 306 202 306 209 333 c 1,93,-1
166 246 m 1,100,-1
 163 249 l 1,101,102
 155.5 244.5 155.5 244.5 142 204 c 1,103,-1
 145 201 l 1,104,-1
 146 201 l 1,105,106
 152 207 152 207 166 240 c 1,107,-1
 166 246 l 1,100,-1
80 149 m 1,108,-1
 78 152 l 1,109,110
 72 152 72 152 69 135 c 1,111,-1
 72 132 l 1,112,-1
 74 132 l 1,113,114
 80 138 80 138 80 145 c 2,115,-1
 80 149 l 1,108,-1
126 126 m 1,116,-1
 125 126 l 1,117,118
 119 122 119 122 107 83 c 1,119,-1
 110 81 l 1,120,121
 126 97 126 97 126 122 c 2,122,-1
 126 126 l 1,116,-1
80 111 m 1,123,-1
 80 110 l 1,124,-1
 83 110 l 1,125,126
 89 114 89 114 90 118 c 1,127,-1
 89 120 l 1,128,129
 84.5 118.5 84.5 118.5 80 111 c 1,123,-1
65 120 m 1,130,-1
 61 120 l 1,131,-1
 59 113 l 1,132,-1
 59 111 l 1,133,-1
 62 111 l 1,134,-1
 65 114 l 1,135,-1
 65 120 l 1,130,-1
54 64 m 1,136,-1
 51 66 l 1,137,138
 43 66 43 66 38 55 c 1,139,140
 38 48 38 48 42 47 c 1,141,-1
 44 47 l 2,142,143
 54 47 54 47 54 58 c 2,144,-1
 54 64 l 1,136,-1
108 12 m 1,145,-1
 104 16 l 1,146,-1
 98 16 l 1,147,-1
 96 14 l 1,148,-1
 96 10 l 1,149,-1
 102 9 l 1,150,-1
 106 9 l 1,151,-1
 108 12 l 1,145,-1
EndSplineSet
EndChar

StartChar: zero
Encoding: 48 48 19
Width: 642
Flags: W
HStem: -18 40<337 402.066> -18 25<271.828 314> 31 24<257.254 280.997> 70 12<330.234 350.695> 80 13<139.064 150> 597 15<163.602 175.192> 628 30<161.018 170.875> 714 21<355 368 394 400> 748 11<324.129 365.555>
VStem: 42 18<393 420.078> 70 46<393.294 422 444 450> 558 45<342.003 487.3> 558 24<394.157 433.84 455 457 482.001 501.979>
LayerCount: 2
Fore
SplineSet
342 759 m 0,0,1
 418 759 418 759 486 709 c 1,2,-1
 547 618 l 1,3,4
 562 600 562 600 579 555 c 1,5,6
 596 528 596 528 611 449 c 1,7,-1
 613 421 l 1,8,9
 613 393 613 393 603 363 c 1,10,-1
 603 356 l 2,11,12
 603 342 603 342 613 342 c 1,13,-1
 611 300 l 1,14,-1
 611 250 l 2,15,16
 611 216 611 216 579 118 c 1,17,18
 572 100 572 100 548 87 c 1,19,20
 531 68 531 68 422 14 c 1,21,22
 376 -18 376 -18 334 -18 c 2,23,-1
 333 -18 l 1,24,25
 217 -7 217 -7 217 1 c 1,26,27
 181 15 181 15 141 61 c 1,28,-1
 141 65 l 1,29,-1
 144 68 l 1,30,-1
 148 68 l 1,31,-1
 152 65 l 1,32,-1
 156 65 l 1,33,-1
 156 68 l 1,34,35
 154.5 80 154.5 80 144 80 c 2,36,-1
 138 80 l 1,37,-1
 137 74 l 1,38,39
 122 79 122 79 102 126 c 1,40,41
 96 132 96 132 90 150 c 1,42,43
 58.5 184.5 58.5 184.5 42 390 c 1,44,-1
 42 395 l 1,45,46
 50 502 50 502 57 502 c 1,47,48
 58 543 58 543 90 626 c 1,49,50
 103 640 103 640 117 670 c 1,51,52
 197 759 197 759 342 759 c 0,0,1
346 748 m 2,53,-1
 322 748 l 1,54,-1
 322 746 l 2,55,56
 322 740 322 740 351 735 c 1,57,-1
 368 735 l 1,58,-1
 368 740 l 1,59,60
 363 748 363 748 346 748 c 2,53,-1
397 740 m 1,61,-1
 394 737 l 1,62,-1
 410 733 l 1,63,-1
 415 733 l 1,64,-1
 418 735 l 1,65,66
 418 740 418 740 400 740 c 2,67,-1
 397 740 l 1,61,-1
442 724 m 2,68,-1
 441 724 l 1,69,-1
 441 723 l 1,70,71
 470 688 470 688 491 682 c 1,72,-1
 492 682 l 1,73,-1
 492 685 l 1,74,75
 462 724 462 724 442 724 c 2,68,-1
421 716 m 1,76,-1
 418 713 l 1,77,78
 426 702 426 702 435 702 c 2,79,-1
 442 702 l 1,80,-1
 442 705 l 2,81,82
 442 710 442 710 425 716 c 1,83,-1
 421 716 l 1,76,-1
370 714 m 1,84,-1
 355 714 l 1,85,-1
 355 713 l 1,86,87
 365 706 365 706 398 701 c 1,88,-1
 400 702 l 1,89,-1
 400 705 l 2,90,91
 400 709.5 400 709.5 370 714 c 1,84,-1
116 421 m 1,92,93
 118 393 118 393 122 386 c 1,94,-1
 118 369 l 1,95,-1
 118 362 l 1,96,-1
 142 236 l 1,97,98
 168 162 168 162 206 122 c 1,99,100
 267 82 267 82 308.75 82 c 128,-1,101
 350.5 82 350.5 82 430 115 c 1,102,103
 529 174 529 174 529 218 c 1,104,105
 546 278 546 278 558 367 c 1,106,-1
 558 423 l 2,107,108
 558 505 558 505 514 566 c 1,109,110
 514 575 514 575 449 634 c 1,111,112
 405 688 405 688 372 688 c 1,113,-1
 324 699 l 1,114,-1
 314 699 l 2,115,116
 252 699 252 699 217 646 c 1,117,118
 193 627 193 627 174 597 c 1,119,120
 163 597 163 597 128 535 c 1,121,122
 116 496 116 496 116 421 c 1,92,93
156 662 m 1,123,-1
 156 658 l 1,124,125
 161 658 161 658 174 677 c 1,126,-1
 174 682 l 1,127,-1
 173 682 l 2,128,129
 168 682 168 682 156 662 c 1,123,-1
131 645 m 1,130,-1
 135 645 l 1,131,-1
 139 649 l 1,132,-1
 139 651 l 1,133,134
 131 651 131 651 131 645 c 1,130,-1
161 612 m 1,135,-1
 166 612 l 1,136,137
 177 618 177 618 178 625 c 1,138,-1
 178 628 l 1,139,-1
 169 628 l 1,140,141
 161 623 161 623 161 612 c 1,135,-1
530 615 m 1,142,-1
 530 614 l 2,143,144
 530 594.5 530 594.5 557 539 c 1,145,146
 561.5 537.5 561.5 537.5 581 488 c 1,147,148
 581 482 581 482 585 482 c 1,149,-1
 589 486 l 1,150,-1
 589 490 l 1,151,152
 581.5 518.5 581.5 518.5 547 598 c 1,153,154
 533 615 533 615 530 615 c 1,142,-1
587 457 m 1,155,-1
 585 457 l 1,156,-1
 585 455 l 1,157,-1
 592 434 l 1,158,159
 592 429 592 429 582 410 c 1,160,-1
 582 408 l 2,161,162
 582 399 582 399 590 394 c 1,163,-1
 593 394 l 2,164,165
 597.5 394 597.5 394 602 427 c 1,166,167
 594.5 448 594.5 448 587 457 c 1,155,-1
66 453 m 1,168,-1
 61 449 l 1,169,-1
 61 446 l 1,170,-1
 66 442 l 1,171,-1
 70 444 l 1,172,-1
 70 450 l 1,173,-1
 66 453 l 1,168,-1
66 422 m 1,174,-1
 62 422 l 1,175,-1
 60 405 l 1,176,-1
 60 393 l 1,177,178
 66 393 66 393 66 419 c 2,179,-1
 66 422 l 1,174,-1
94 376 m 1,180,-1
 90 376 l 1,181,-1
 89 366 l 1,182,183
 89 312 89 312 118 222 c 1,184,-1
 134 201 l 1,185,-1
 137 201 l 1,186,-1
 137 202 l 1,187,188
 128 230 128 230 109 331 c 1,189,190
 101.5 338.5 101.5 338.5 94 376 c 1,180,-1
85 220 m 1,191,-1
 82 220 l 1,192,-1
 82 216 l 1,193,-1
 85 216 l 1,194,-1
 85 220 l 1,191,-1
551 128 m 1,195,-1
 551 126 l 1,196,-1
 555 126 l 2,197,198
 569 126 569 126 585 184 c 1,199,-1
 585 186 l 1,200,-1
 582 190 l 1,201,202
 575 190 575 190 551 128 c 1,195,-1
96 152 m 1,203,-1
 96 149 l 1,204,205
 104 146 104 146 124 111 c 1,206,-1
 134 104 l 1,207,-1
 141 104 l 1,208,-1
 141 106 l 1,209,210
 122 150 122 150 107 160 c 1,211,-1
 106 160 l 1,212,213
 99 159 99 159 96 152 c 1,203,-1
240 76 m 1,214,-1
 184 107 l 1,215,-1
 184 104 l 1,216,217
 218 55 218 55 268 55 c 1,218,219
 281 56 281 56 281 59 c 1,220,221
 279 63 279 63 240 76 c 1,214,-1
148 102 m 1,222,-1
 141 102 l 1,223,-1
 139 98 l 1,224,225
 141 93 141 93 148 93 c 2,226,-1
 150 93 l 1,227,-1
 152 96 l 1,228,-1
 152 98 l 1,229,-1
 148 102 l 1,222,-1
282 52 m 1,230,-1
 281 51 l 1,231,232
 281 44 281 44 301 41 c 1,233,-1
 310 41 l 1,234,235
 322 42 322 42 322 52 c 1,236,-1
 333 52 l 2,237,238
 356 52 356 52 430 79 c 1,239,-1
 430 80 l 1,240,-1
 428 82 l 1,241,-1
 419 82 l 1,242,-1
 372 70 l 1,243,244
 345 70 345 70 282 52 c 1,230,-1
334 26 m 1,245,-1
 334 24 l 1,246,-1
 337 22 l 1,247,-1
 354 22 l 1,248,249
 408 34 408 34 408 40 c 1,250,251
 427.5 46 427.5 46 432 55 c 1,252,-1
 432 58 l 1,253,-1
 430 58 l 1,254,255
 362 41 362 41 334 26 c 1,245,-1
166 51 m 2,256,-1
 165 51 l 1,257,258
 165 41 165 41 184 34 c 1,259,-1
 186 35 l 1,260,261
 176 51 176 51 166 51 c 2,256,-1
256 31 m 1,262,-1
 256 26 l 1,263,264
 294 7 294 7 306 7 c 2,265,-1
 314 7 l 1,266,-1
 314 13 l 1,267,268
 280 31 280 31 256 31 c 1,262,-1
EndSplineSet
EndChar

StartChar: one
Encoding: 49 49 20
Width: 455
Flags: W
HStem: -2.06667 27.0667<330 334 434 446.419> -1 14<258 302.859> 21 13<258 259.848> 42.9816 27.0184<320.603 321.998 337 369.936> 42.9816 15.0184<290.407 321.998> 45 52<238 254.968> 50 46<49 59.151 86 127 178 181.935 430 445> 75.1364 15.8636<308.808 372> 85 11<67 77> 114 36<266.001 274> 696 17<25.625 37.332>
VStem: 182 33<112 120> 186 11<47 50> 202 36<136 138 609 710.485> 221 17<109.085 120> 222 5<742 743> 249 32<464.699 534> 255 11<97.3127 114 150 165.724 775 778>
LayerCount: 2
Fore
SplineSet
266 114 m 1,0,-1
 266 108 l 2,1,2
 266 91 266 91 294 91 c 1,3,4
 371.466666667 94.2666666667 371.466666667 94.2666666667 415.733333333 94.2666666667 c 128,-1,5
 460 94.2666666667 460 94.2666666667 460 90 c 2,6,-1
 460 89 l 2,7,8
 460 86 460 86 443 81 c 1,9,-1
 442 79 l 1,10,-1
 442 78 l 1,11,12
 446 74 446 74 462 70 c 1,13,14
 467 63 467 63 467 58 c 0,15,16
 455 -3 455 -3 440 -3 c 1,17,-1
 419 -5 l 1,18,-1
 361 1 l 1,19,-1
 326 -1 l 1,20,21
 246.533333333 -2.06666666667 246.533333333 -2.06666666667 137.266666667 -2.06666666667 c 128,-1,22
 28 -2.06666666667 28 -2.06666666667 28 6 c 1,23,24
 19 16 19 16 19 23 c 2,25,-1
 19 25 l 1,26,-1
 30 62 l 1,27,-1
 26 70 l 1,28,29
 26 87 26 87 49 92 c 1,30,-1
 62 96 l 1,31,-1
 167 99 l 2,32,33
 180 99 180 99 182 116 c 1,34,-1
 182 127 l 2,35,36
 182 218.5 182 218.5 176 280 c 1,37,38
 187 609 187 609 197 609 c 1,39,-1
 198 623 l 1,40,41
 193 718 193 718 182 718 c 1,42,43
 134 687 134 687 117 654 c 1,44,-1
 110 651 l 1,45,46
 47 673.5 47 673.5 29 696 c 1,47,48
 26 696 26 696 25 711 c 1,49,-1
 27 714 l 1,50,-1
 34 713 l 1,51,-1
 42 713 l 2,52,53
 64 713 64 713 138 790 c 1,54,55
 163 814 163 814 173 836 c 1,56,57
 185 842 185 842 191 842 c 0,58,59
 254 836 254 836 254 824 c 128,-1,60
 254 812 254 812 262 812 c 1,61,-1
 266 809 l 1,62,-1
 253 799 l 1,63,-1
 253 795 l 1,64,-1
 257 795 l 1,65,66
 261.5 801 261.5 801 266.25 801 c 128,-1,67
 271 801 271 801 271 788 c 2,68,-1
 281 483 l 1,69,70
 270 431 270 431 270 295 c 2,71,-1
 270 290 l 2,72,73
 270 204 270 204 274 179 c 1,74,75
 266 176 266 176 266 163 c 128,-1,76
 266 150 266 150 271 150 c 2,77,-1
 274 150 l 1,78,-1
 275 158 l 1,79,-1
 277 158 l 2,80,81
 284 158 284 158 288 106 c 1,82,-1
 286 105 l 1,83,-1
 281 105 l 1,84,85
 272 114 272 114 266 114 c 1,0,-1
204 805 m 2,86,-1
 204 803 l 1,87,-1
 206 801 l 1,88,-1
 208 801 l 2,89,90
 218 801 218 801 219 805 c 1,91,-1
 219 806 l 1,92,-1
 216 809 l 1,93,-1
 212 809 l 1,94,95
 204 807 204 807 204 805 c 2,86,-1
171 805 m 1,96,-1
 167 801 l 1,97,-1
 170 798 l 1,98,-1
 173 798 l 1,99,-1
 180 799 l 1,100,-1
 180 802 l 1,101,-1
 177 805 l 1,102,-1
 171 805 l 1,96,-1
257 781 m 1,103,-1
 254 778 l 1,104,-1
 254 775 l 1,105,-1
 257 773 l 1,106,-1
 260 775 l 1,107,-1
 260 778 l 1,108,-1
 257 781 l 1,103,-1
92 689 m 1,109,-1
 92 686 l 1,110,-1
 93 686 l 2,111,112
 110 686 110 686 128 707 c 1,113,114
 188 762 188 762 188 774 c 1,115,-1
 184 774 l 1,116,117
 124 724 124 724 92 689 c 1,109,-1
227 743 m 2,118,-1
 227 742 l 1,119,-1
 232 738 l 1,120,-1
 236 739 l 1,121,-1
 236 750 l 1,122,-1
 234 752 l 1,123,-1
 234 753 l 1,124,125
 227 752 227 752 227 743 c 2,118,-1
222 743 m 1,126,-1
 218 743 l 1,127,-1
 210 725 l 1,128,-1
 210 719 l 1,129,-1
 215 715 l 1,130,-1
 221 715 l 2,131,132
 228 715 228 715 229 719 c 1,133,-1
 229 722 l 2,134,135
 229 725 229 725 218 730 c 1,136,-1
 216 730 l 1,137,-1
 216 734 l 1,138,139
 222 740 222 740 222 743 c 1,126,-1
70 704 m 1,140,-1
 70 702 l 1,141,-1
 75 702 l 2,142,143
 88 702 88 702 96 719 c 1,144,-1
 94 721 l 1,145,-1
 93 721 l 1,146,147
 76 713 76 713 70 704 c 1,140,-1
234 665 m 1,148,-1
 238 588 l 1,149,-1
 240 588 l 1,150,151
 247 605 247 605 247 642 c 2,152,-1
 247 674 l 2,153,154
 247 711 247 711 242 711 c 128,-1,155
 237 711 237 711 234 665 c 1,148,-1
234 497 m 1,156,-1
 234 484 l 1,157,-1
 238 463 l 1,158,-1
 240 463 l 2,159,160
 249 463 249 463 249 528 c 2,161,-1
 249 534 l 1,162,-1
 246 538 l 1,163,164
 236 534 236 534 234 497 c 1,156,-1
202 293 m 1,165,-1
 199 293 l 1,166,-1
 199 288 l 1,167,-1
 202 288 l 1,168,-1
 202 293 l 1,165,-1
238 204 m 1,169,-1
 238 196 l 1,170,-1
 242 192 l 1,171,-1
 244 192 l 1,172,-1
 247 194 l 1,173,-1
 247 198 l 1,174,175
 244 198 244 198 238 204 c 1,169,-1
246 170 m 2,176,-1
 244 170 l 1,177,178
 238 151 238 151 238 123 c 2,179,-1
 238 114 l 2,180,181
 238 102 238 102 249 97 c 1,182,-1
 251 97 l 2,183,184
 254 97 254 97 255 103 c 1,185,186
 254 170 254 170 246 170 c 2,176,-1
199 142 m 1,187,-1
 195 136 l 1,188,-1
 197 131 l 1,189,-1
 198 131 l 1,190,-1
 202 136 l 1,191,-1
 202 138 l 1,192,-1
 199 142 l 1,187,-1
218 123 m 1,193,-1
 215 120 l 1,194,-1
 215 112 l 1,195,-1
 218 109 l 1,196,-1
 221 109 l 1,197,-1
 221 120 l 1,198,-1
 218 123 l 1,193,-1
77 85 m 1,199,-1
 67 85 l 1,200,-1
 67 82 l 1,201,-1
 71 78 l 1,202,-1
 73 78 l 1,203,-1
 77 82 l 1,204,-1
 77 85 l 1,199,-1
74 58 m 1,205,-1
 43 54 l 1,206,-1
 43 50 l 1,207,-1
 47 46 l 1,208,-1
 49 46 l 2,209,210
 61 46 61 46 75 58 c 1,211,-1
 74 58 l 1,205,-1
290 62 m 1,212,-1
 290 58 l 1,213,-1
 366 70 l 1,214,-1
 372 70 l 1,215,-1
 372 74 l 1,216,217
 366.090909091 75.1363636364 366.090909091 75.1363636364 349.681818182 75.1363636364 c 128,-1,218
 333.272727273 75.1363636364 333.272727273 75.1363636364 290 62 c 1,212,-1
86 42 m 1,219,-1
 102 42 l 2,220,221
 130 42 130 42 130 47 c 1,222,-1
 127 50 l 1,223,-1
 110 50 l 1,224,-1
 86 47 l 1,225,-1
 86 42 l 1,219,-1
198 52 m 1,226,-1
 197 50 l 1,227,-1
 197 49 l 1,228,229
 201 45 201 45 206 45 c 1,230,-1
 206 47 l 1,231,232
 204 52 204 52 198 52 c 1,226,-1
178 50 m 1,233,-1
 176 47 l 1,234,-1
 178 45 l 1,235,-1
 182 45 l 1,236,-1
 186 47 l 1,237,-1
 186 50 l 1,238,-1
 178 50 l 1,233,-1
221 45 m 1,239,-1
 216 41 l 1,240,-1
 216 39 l 2,241,242
 216 34 216 34 250 34 c 2,243,-1
 251 34 l 2,244,245
 260 34 260 34 260 41 c 1,246,247
 255 45 255 45 250 45 c 2,248,-1
 221 45 l 1,239,-1
430 33 m 2,249,-1
 430 29 l 1,250,-1
 434 25 l 1,251,252
 447 25 447 25 447 42 c 2,253,-1
 447 51 l 1,254,-1
 445 54 l 1,255,-1
 440 54 l 1,256,257
 430 47 430 47 430 33 c 2,249,-1
281 32 m 1,258,259
 273 21 273 21 258 21 c 1,260,-1
 258 19 l 2,261,262
 258 14 258 14 292 13 c 1,263,-1
 294 13 l 1,264,265
 316 29 316 29 322 40 c 1,266,267
 322 42.9815894612 322 42.9815894612 314.977405248 42.9815894612 c 128,-1,268
 307.954810496 42.9815894612 307.954810496 42.9815894612 281 32 c 1,258,259
361 42 m 2,269,-1
 337 40 l 1,270,-1
 337 38 l 2,271,272
 337 34 337 34 369 34 c 1,273,-1
 370 36 l 1,274,-1
 370 37 l 1,275,276
 368 42 368 42 361 42 c 2,269,-1
387 42 m 1,277,-1
 383 40 l 1,278,-1
 384 36 l 1,279,-1
 387 36 l 1,280,-1
 390 38 l 1,281,-1
 390 40 l 1,282,-1
 387 42 l 1,277,-1
334 27 m 1,283,-1
 330 27 l 1,284,-1
 330 25 l 1,285,-1
 334 25 l 1,286,-1
 334 27 l 1,283,-1
411 10 m 1,287,-1
 411 9 l 2,288,289
 411 6 411 6 421 5 c 1,290,291
 432 7 432 7 432 10 c 2,292,-1
 432 12 l 1,293,-1
 428 16 l 1,294,-1
 423 16 l 2,295,296
 412.5 16 412.5 16 411 10 c 1,287,-1
EndSplineSet
EndChar

StartChar: two
Encoding: 50 50 21
Width: 567
Flags: W
HStem: -14 17<466.066 482> -10 95<317 397 398 477.734> -10 22<426 452.996> 5 69<100 114 118.077 244> 97 3<164 168.74> 98 4<130.291 150> 324 36<229.609 248.312> 365 17<227.435 232.583> 572 21G<100 130 139 146> 677 61<283 323.996> 757 11<310 324 343 364.036>
VStem: 22 47<23 28.9373 74 79> 499 23<3.21094 11.9062 634.587 664.001>
LayerCount: 2
Fore
SplineSet
310 765 m 1,0,-1
 335 768 l 1,1,2
 369.5 768 369.5 768 449 741 c 1,3,4
 490 720 490 720 490 713 c 1,5,6
 528 675 528 675 528 654 c 1,7,-1
 546 589 l 1,8,9
 533 544 533 544 498 468 c 1,10,11
 458 434 458 434 360 376 c 1,12,13
 283 305 283 305 262 304 c 1,14,-1
 216 262 l 1,15,16
 114 175 114 175 113 171 c 0,17,18
 104 152 104 152 96 117 c 1,19,-1
 96 114 l 2,20,21
 96 106.5 96 106.5 150 102 c 1,22,-1
 150 98 l 1,23,-1
 115 96 l 1,24,-1
 115 91 l 1,25,26
 214 74 214 74 244 74 c 1,27,28
 241 79 241 79 164 97 c 1,29,-1
 164 100 l 1,30,-1
 166 100 l 2,31,32
 184 100 184 100 255 83 c 1,33,-1
 317 79 l 1,34,-1
 370 85 l 1,35,-1
 398 85 l 1,36,37
 470 79 470 79 478 65 c 1,38,-1
 511 55 l 1,39,-1
 518 50 l 1,40,-1
 518 46 l 1,41,-1
 500 41 l 1,42,-1
 500 40 l 1,43,-1
 505 35 l 1,44,-1
 507 35 l 1,45,-1
 522 37 l 1,46,-1
 522 35 l 1,47,48
 521 -14 521 -14 516 -14 c 2,49,-1
 386 -10 l 1,50,-1
 359 -10 l 2,51,52
 331 -10 331 -10 283 -15 c 1,53,54
 109 5 109 5 50 5 c 1,55,56
 30 10 30 10 30 24 c 1,57,58
 22 48 22 48 22 74 c 2,59,-1
 22 108 l 2,60,61
 22 205 22 205 44 230 c 1,62,-1
 72 248 l 1,63,64
 79 259 79 259 79 268 c 1,65,66
 149 326 149 326 154 326 c 1,67,68
 185 338 185 338 237 382 c 1,69,-1
 242 382 l 1,70,71
 228 365 228 365 219 365 c 1,72,-1
 219 360 l 1,73,-1
 226 360 l 1,74,75
 240 368 240 368 254 384 c 1,76,-1
 254 387 l 1,77,-1
 250 387 l 1,78,-1
 250 390 l 1,79,-1
 330 440 l 1,80,81
 392 485 392 485 427 518 c 1,82,83
 452 546 452 546 461 597 c 1,84,85
 461 640 461 640 425 662 c 1,86,87
 414 667 414 667 324 674 c 0,88,89
 324 675 324 675 307 677 c 1,90,91
 269 677 269 677 236 632 c 1,92,93
 227 614 227 614 227 602 c 2,94,-1
 227 595 l 1,95,-1
 229 594 l 1,96,97
 229 586 229 586 192 580 c 2,98,-1
 146 573 l 1,99,-1
 146 572 l 1,100,-1
 139 573 l 1,101,-1
 130 573 l 1,102,-1
 102 570 l 1,103,-1
 100 574 l 1,104,105
 113 649 113 649 134 670 c 1,106,107
 199 729 199 729 223 730 c 1,108,109
 238 745 238 745 310 765 c 1,0,-1
354 757 m 2,110,-1
 343 757 l 1,111,-1
 343 754 l 1,112,-1
 350 746 l 1,113,-1
 360 746 l 1,114,-1
 365 751 l 1,115,-1
 365 752 l 1,116,117
 363 757 363 757 354 757 c 2,110,-1
283 740 m 2,118,-1
 283 738 l 1,119,-1
 285 738 l 2,120,121
 330 738 330 738 330 748 c 1,122,-1
 324 752 l 1,123,-1
 311 752 l 1,124,125
 283 746 283 746 283 740 c 2,118,-1
422 744 m 1,126,-1
 421 744 l 1,127,-1
 421 742 l 2,128,129
 421 737 421 737 450 729 c 1,130,-1
 450 730 l 2,131,132
 450 737 450 737 422 744 c 1,126,-1
242 723 m 2,133,-1
 242 720 l 1,134,-1
 257 720 l 1,135,-1
 261 724 l 1,136,-1
 261 726 l 1,137,-1
 254 727 l 1,138,139
 242 726 242 726 242 723 c 2,133,-1
258 681 m 1,140,-1
 254 677 l 1,141,-1
 254 675 l 1,142,-1
 261 675 l 1,143,-1
 265 679 l 1,144,-1
 265 681 l 1,145,-1
 258 681 l 1,140,-1
451 679 m 1,146,-1
 449 677 l 1,147,-1
 449 675 l 1,148,149
 454 667 454 667 461 667 c 2,150,-1
 462 667 l 2,151,152
 466 667 466 667 466 671 c 0,153,154
 466 678 466 678 453 679 c 1,155,-1
 451 679 l 1,146,-1
468 662 m 1,156,-1
 468 660 l 1,157,158
 488 658 488 658 488 642 c 1,159,-1
 494 634 l 1,160,-1
 494 642 l 2,161,162
 494 667 494 667 479 667 c 0,163,164
 470 667 470 667 468 662 c 1,156,-1
222 640 m 1,165,-1
 225 638 l 1,166,-1
 226 638 l 1,167,168
 242 647 242 647 242 656 c 2,169,-1
 242 657 l 1,170,-1
 238 657 l 2,171,172
 233 657 233 657 222 640 c 1,165,-1
191 610 m 1,173,-1
 186 610 l 1,174,-1
 186 606 l 1,175,-1
 190 604 l 1,176,-1
 191 604 l 1,177,-1
 191 610 l 1,173,-1
516 572 m 1,178,-1
 511 567 l 1,179,-1
 511 563 l 1,180,-1
 513 563 l 1,181,-1
 517 567 l 1,182,-1
 517 572 l 1,183,-1
 516 572 l 1,178,-1
490 528 m 1,184,-1
 485 528 l 1,185,-1
 485 522 l 1,186,187
 492 522 492 522 492 516 c 1,188,-1
 496 516 l 1,189,-1
 496 522 l 1,190,-1
 490 528 l 1,184,-1
470 488 m 1,191,-1
 471 486 l 1,192,-1
 471 485 l 1,193,194
 478 488 478 488 485 498 c 1,195,-1
 485 500 l 1,196,-1
 482 500 l 1,197,198
 474.5 495.5 474.5 495.5 470 488 c 1,191,-1
440 466 m 1,199,-1
 442 466 l 1,200,-1
 455 468 l 1,201,202
 455 477 455 477 447 477 c 1,203,204
 440 474 440 474 440 466 c 1,199,-1
438 444 m 1,205,-1
 438 442 l 1,206,207
 457.5 445 457.5 445 477 466 c 1,208,-1
 474 468 l 1,209,210
 450 454.5 450 454.5 438 444 c 1,205,-1
388 423 m 1,211,-1
 384 422 l 1,212,-1
 384 418 l 1,213,-1
 387 418 l 1,214,-1
 390 421 l 1,215,-1
 388 422 l 1,216,-1
 388 423 l 1,211,-1
214 290 m 1,217,-1
 214 287 l 1,218,-1
 218 287 l 2,219,220
 223 287 223 287 248 307 c 1,221,222
 255 307 255 307 259 320 c 1,223,-1
 261 321 l 1,224,-1
 261 324 l 1,225,-1
 258 324 l 2,226,227
 244 324 244 324 214 290 c 1,217,-1
145 296 m 2,228,-1
 145 292 l 1,229,-1
 146 292 l 2,230,231
 160 292 160 292 169 314 c 1,232,-1
 163 314 l 1,233,234
 145 300.5 145 300.5 145 296 c 2,228,-1
108 276 m 1,235,-1
 93 276 l 1,236,-1
 94 264 l 1,237,238
 79 251 79 251 79 244 c 1,239,-1
 83 244 l 1,240,241
 101 254 101 254 111 272 c 1,242,-1
 111 274 l 1,243,-1
 108 276 l 1,235,-1
191 265 m 1,244,-1
 186 261 l 1,245,-1
 186 258 l 1,246,-1
 190 258 l 1,247,-1
 194 262 l 1,248,-1
 194 265 l 1,249,-1
 191 265 l 1,244,-1
102 201 m 2,250,-1
 102 197 l 1,251,-1
 106 197 l 1,252,253
 118 206 118 206 118 214 c 2,254,-1
 118 216 l 1,255,-1
 114 216 l 1,256,257
 102 208.5 102 208.5 102 201 c 2,250,-1
72 82 m 1,258,-1
 69 79 l 1,259,-1
 69 74 l 1,260,-1
 72 70 l 1,261,-1
 74 74 l 1,262,-1
 74 79 l 1,263,-1
 72 82 l 1,258,-1
102 79 m 1,264,-1
 98 76 l 1,265,-1
 100 74 l 1,266,-1
 114 74 l 1,267,-1
 114 78 l 1,268,-1
 107 79 l 1,269,-1
 102 79 l 1,264,-1
405 70 m 1,270,-1
 397 69 l 1,271,-1
 397 68 l 1,272,-1
 401 63 l 1,273,-1
 416 63 l 1,274,-1
 419 66 l 1,275,-1
 419 69 l 1,276,-1
 405 70 l 1,270,-1
42 48 m 1,277,-1
 38 46 l 1,278,-1
 38 44 l 1,279,-1
 41 41 l 1,280,-1
 42 41 l 1,281,-1
 46 44 l 1,282,-1
 42 48 l 1,277,-1
66 24 m 2,283,-1
 66 23 l 1,284,-1
 74 22 l 1,285,286
 91 24 91 24 91 27 c 1,287,-1
 90 29 l 1,288,-1
 74 29 l 1,289,290
 66 27 66 27 66 24 c 2,283,-1
426 12 m 1,291,-1
 438 12 l 1,292,293
 453 13.5 453 13.5 453 18 c 1,294,-1
 450 22 l 1,295,-1
 443 22 l 2,296,297
 436 22 436 22 426 12 c 1,291,-1
466 6 m 1,298,-1
 470 3 l 1,299,-1
 482 3 l 2,300,301
 499 3 499 3 499 9 c 2,302,-1
 499 10 l 2,303,304
 499 13 499 13 483.5 12.5 c 128,-1,305
 468 12 468 12 466 6 c 1,298,-1
EndSplineSet
EndChar

StartChar: three
Encoding: 51 51 22
Width: 522
Flags: W
HStem: -6 11<142 183.97> 16 48<62.1172 78.9688> 25 15<80.1006 91> 34 14<208.351 218.936> 46 18<85 91> 54 28<300.005 326> 223 17<444.259 449> 404 13<466 473.574> 422 10<326.346 364.511> 434 12<438.531 453> 440 27<398.125 405.98> 443 14<286.687 292 389.202 402> 479 11<188 192> 481 25<371.094 404.168> 662 15<52.4043 143> 680 18<162.365 194.936> 697 12<255.013 276> 716 26<74 110> 752 20G<22 63.5>
VStem: 33 19<679.831 686> 50 29<10.375 23.7725> 128 18<390 399.797 702 705> 143 19<677.08 680> 274 22<645.237 647> 292 34<434.017 439.906> 410 11<645.604 652.947> 432 6<309.262 330> 446 12<697.432 707.082> 453 28<307.335 348 359 362> 490 15<307 390.189>
LayerCount: 2
Fore
SplineSet
22 770 m 1,0,-1
 26 772 l 1,1,2
 101 764 101 764 237 754 c 1,3,4
 252 748 252 748 401 731 c 1,5,6
 458 717.5 458 717.5 458 701 c 1,7,8
 454 686 454 686 421 647 c 1,9,10
 421 644 421 644 370 579 c 1,11,12
 370 570 370 570 310 514 c 1,13,-1
 298 498 l 1,14,-1
 298 494 l 1,15,16
 311.5 494 311.5 494 370 506 c 1,17,18
 391 506 391 506 464 460 c 1,19,20
 486 437 486 437 505 373 c 1,21,-1
 505 361 l 2,22,23
 505 213 505 213 479 178 c 1,24,25
 456 116 456 116 363 51 c 1,26,27
 305 24 305 24 195 -1 c 1,28,29
 178 -6 178 -6 150 -6 c 2,30,-1
 142 -6 l 1,31,-1
 136 -8 l 1,32,33
 86 -8 86 -8 50 16 c 1,34,-1
 50 19 l 1,35,36
 54 22 54 22 72 64 c 1,37,-1
 74 64 l 1,38,-1
 74 65 l 1,39,-1
 98 64 l 1,40,-1
 110 64 l 2,41,42
 205 64 205 64 255 114 c 1,43,-1
 350 176 l 1,44,45
 405 222 405 222 410 246 c 1,46,47
 432 280 432 280 432 362 c 1,48,49
 430 373 430 373 429 373 c 2,50,-1
 432 382 l 1,51,52
 432 405 432 405 410 418 c 1,53,54
 403 440 403 440 376 440 c 2,55,-1
 348 440 l 2,56,57
 326 440 326 440 326 434 c 2,58,-1
 326 432 l 1,59,60
 372 432 372 432 397 410 c 1,61,-1
 397 408 l 1,62,-1
 393 406 l 1,63,64
 382.5 406 382.5 406 366 421 c 1,65,-1
 356 422 l 1,66,67
 273 422 273 422 152 366 c 1,68,-1
 141 359 l 1,69,-1
 136 361 l 1,70,-1
 136 370 l 2,71,72
 136 376 136 376 125 389 c 1,73,-1
 125 390 l 2,74,75
 125 396 125 396 150 450 c 1,76,77
 155 472 155 472 170 488 c 1,78,-1
 216 557 l 1,79,80
 241 612 241 612 265 624 c 1,81,82
 274 638 274 638 274 646 c 2,83,-1
 274 649 l 1,84,85
 263.5 658 263.5 658 253 658 c 2,86,-1
 46 662 l 2,87,88
 34 662 34 662 33 681 c 1,89,-1
 33 686 l 1,90,-1
 35 690 l 1,91,-1
 35 695 l 1,92,93
 29 716 29 716 22 770 c 1,0,-1
68 758 m 1,94,-1
 63 753 l 1,95,-1
 63 742 l 1,96,-1
 82 742 l 1,97,-1
 110 740 l 1,98,-1
 115 744 l 1,99,100
 93 758 93 758 68 758 c 1,94,-1
37 740 m 0,101,102
 38.5 734 38.5 734 46 734 c 1,103,-1
 48 738 l 1,104,-1
 48 740 l 1,105,-1
 44 744 l 1,106,-1
 40 744 l 2,107,108
 37 744 37 744 37 740 c 0,101,102
177 737 m 1,109,-1
 173 737 l 1,110,-1
 173 734 l 1,111,-1
 174 734 l 1,112,-1
 177 737 l 1,109,-1
388 722 m 1,113,-1
 363 722 l 1,114,115
 363 717 363 717 384 714 c 1,116,-1
 387 714 l 1,117,-1
 391 718 l 1,118,-1
 391 719 l 1,119,-1
 388 722 l 1,113,-1
132 716 m 1,120,121
 187 709 187 709 262 709 c 2,122,-1
 276 709 l 1,123,124
 276 717 276 717 195 720 c 1,125,-1
 164 720 l 2,126,127
 132 720 132 720 132 716 c 1,120,121
74 716 m 1,128,-1
 70 714 l 1,129,130
 70 706 70 706 126 701 c 1,131,-1
 128 702 l 1,132,-1
 128 705 l 1,133,134
 112 716 112 716 80 716 c 2,135,-1
 74 716 l 1,128,-1
425 702 m 1,136,-1
 425 701 l 1,137,138
 426 697 426 697 433 697 c 2,139,-1
 438 697 l 2,140,141
 442 697 442 697 446 701 c 1,142,143
 446 708 446 708 432 708 c 1,144,145
 427 705 427 705 425 702 c 1,136,-1
147 706 m 1,146,-1
 146 705 l 1,147,-1
 146 703 l 2,148,149
 146 698 146 698 184 698 c 2,150,-1
 225 698 l 1,151,152
 225 703 225 703 147 706 c 1,146,-1
283 697 m 2,153,-1
 254 697 l 1,154,-1
 254 694 l 1,155,-1
 310 686 l 1,156,-1
 366 690 l 1,157,-1
 366 692 l 1,158,159
 339 697 339 697 283 697 c 2,153,-1
52 688 m 1,160,-1
 52 686 l 2,161,162
 52 677 52 677 98 677 c 2,163,-1
 143 677 l 1,164,-1
 143 680 l 2,165,166
 143 684 143 684 96 686 c 1,167,168
 96 691 96 691 68 692 c 1,169,-1
 63 692 l 2,170,171
 53 692 53 692 52 688 c 1,160,-1
186 680 m 2,172,-1
 162 680 l 1,173,174
 162 676 162 676 191 674 c 1,175,-1
 195 675 l 1,176,177
 193 680 193 680 186 680 c 2,172,-1
401 666 m 1,178,-1
 391 658 l 1,179,180
 395 642 395 642 402 642 c 1,181,182
 410 653 410 653 410 658 c 2,183,-1
 410 663 l 1,184,-1
 408 666 l 1,185,-1
 401 666 l 1,178,-1
298 650 m 1,186,-1
 296 647 l 1,187,-1
 296 645 l 1,188,-1
 302 645 l 1,189,-1
 304 647 l 1,190,-1
 304 650 l 1,191,-1
 298 650 l 1,186,-1
304 626 m 2,192,-1
 304 622 l 1,193,-1
 307 622 l 2,194,195
 319 622 319 622 328 642 c 1,196,-1
 326 643 l 1,197,-1
 324 643 l 1,198,199
 304 638 304 638 304 626 c 2,192,-1
388 628 m 1,200,-1
 382 628 l 1,201,-1
 382 624 l 1,202,-1
 386 624 l 1,203,-1
 388 626 l 1,204,-1
 388 628 l 1,200,-1
377 618 m 1,205,-1
 374 618 l 1,206,-1
 374 614 l 1,207,-1
 377 614 l 1,208,-1
 377 618 l 1,205,-1
310 548 m 1,209,-1
 309 544 l 1,210,-1
 311 541 l 1,211,212
 334 546 334 546 358 579 c 1,213,-1
 363 593 l 1,214,-1
 362 594 l 1,215,-1
 356 594 l 2,216,217
 341 594 341 594 310 548 c 1,209,-1
251 546 m 1,218,-1
 253 546 l 1,219,220
 270 557 270 557 270 568 c 2,221,-1
 270 569 l 1,222,-1
 268 569 l 1,223,224
 251 564 251 564 251 546 c 1,218,-1
275 550 m 1,225,-1
 275 546 l 1,226,-1
 278 546 l 1,227,228
 286 552 286 552 286 558 c 1,229,-1
 285 559 l 1,230,231
 281 558 281 558 275 550 c 1,225,-1
303 533 m 1,232,-1
 300 530 l 1,233,-1
 300 524 l 1,234,-1
 303 524 l 1,235,-1
 306 527 l 1,236,-1
 306 533 l 1,237,-1
 303 533 l 1,232,-1
186 495 m 1,238,-1
 186 492 l 1,239,-1
 188 490 l 1,240,-1
 198 490 l 1,241,-1
 219 507 l 1,242,-1
 220 513 l 1,243,-1
 220 516 l 1,244,-1
 218 518 l 1,245,-1
 216 518 l 1,246,247
 198 514 198 514 186 495 c 1,238,-1
286 458 m 1,248,-1
 286 457 l 1,249,-1
 287 457 l 1,250,-1
 332 471 l 1,251,252
 381.5 466.5 381.5 466.5 398 462 c 1,253,254
 402 462 402 462 404 467 c 1,255,-1
 406 467 l 1,256,257
 433 446 433 446 449 446 c 2,258,-1
 453 446 l 1,259,-1
 455 449 l 1,260,-1
 455 450 l 2,261,262
 455 463 455 463 378 481 c 0,263,264
 374 481 374 481 371 490 c 1,265,-1
 366 494 l 1,266,-1
 362 494 l 2,267,268
 336 494 336 494 307 468 c 1,269,270
 288 464 288 464 286 458 c 1,248,-1
266 490 m 1,271,-1
 264 490 l 1,272,-1
 264 486 l 1,273,-1
 266 484 l 1,274,-1
 270 484 l 1,275,-1
 270 486 l 1,276,-1
 266 490 l 1,271,-1
170 457 m 1,277,-1
 170 453 l 1,278,-1
 171 453 l 1,279,280
 186 460 186 460 192 479 c 1,281,-1
 190 479 l 1,282,283
 183 475 183 475 170 457 c 1,277,-1
206 453 m 1,284,-1
 206 447 l 1,285,-1
 210 447 l 2,286,287
 222 447 222 447 230 468 c 1,288,-1
 227 471 l 1,289,290
 216.5 466.5 216.5 466.5 206 453 c 1,284,-1
214 418 m 1,291,-1
 214 417 l 1,292,-1
 218 417 l 1,293,294
 292 437 292 437 292 442 c 2,295,-1
 292 443 l 1,296,-1
 289 443 l 1,297,298
 252 440 252 440 214 418 c 1,291,-1
162 414 m 1,299,-1
 162 411 l 1,300,-1
 163 410 l 1,301,-1
 163 408 l 1,302,303
 200 416 200 416 219 429 c 1,304,-1
 219 430 l 1,305,-1
 216 434 l 1,306,307
 178 427 178 427 162 414 c 1,299,-1
450 434 m 2,308,-1
 438 434 l 1,309,-1
 438 432 l 1,310,311
 442.5 417 442.5 417 453 417 c 2,312,-1
 461 417 l 2,313,314
 472 417 472 417 474 422 c 1,315,316
 463.5 434 463.5 434 450 434 c 2,308,-1
466 404 m 1,317,-1
 464 401 l 1,318,-1
 464 400 l 2,319,320
 464 391 464 391 482 367 c 1,321,-1
 481 346 l 1,322,-1
 481 320 l 2,323,324
 481 309 481 309 486 307 c 1,325,-1
 488 307 l 1,326,-1
 490 331 l 1,327,-1
 490 370 l 2,328,329
 490 389 490 389 470 404 c 1,330,-1
 466 404 l 1,317,-1
143 391 m 1,331,-1
 143 390 l 1,332,-1
 146 387 l 1,333,-1
 156 387 l 2,334,335
 166 387 166 387 167 391 c 1,336,-1
 167 394 l 1,337,338
 165.5 400 165.5 400 158 400 c 2,339,-1
 156 400 l 2,340,341
 148 400 148 400 143 391 c 1,331,-1
418 391 m 1,342,-1
 418 394 l 1,343,-1
 425 387 l 1,344,-1
 422 387 l 1,345,-1
 418 391 l 1,342,-1
444 365 m 1,346,-1
 442 365 l 1,347,-1
 442 362 l 1,348,-1
 444 359 l 1,349,-1
 447 359 l 1,350,-1
 447 362 l 1,351,-1
 444 365 l 1,346,-1
438 303 m 2,352,-1
 438 299 l 1,353,-1
 440 296 l 1,354,355
 453 318 453 318 453 335 c 2,356,-1
 453 348 l 1,357,-1
 450 348 l 1,358,359
 438 334.5 438 334.5 438 303 c 2,352,-1
488 296 m 1,360,-1
 477 275 l 1,361,362
 478 270 478 270 482 268 c 1,363,-1
 485 268 l 1,364,365
 492 271 492 271 491 283.5 c 128,-1,366
 490 296 490 296 488 296 c 1,360,-1
444 242 m 2,367,-1
 444 240 l 1,368,-1
 449 240 l 1,369,-1
 455 247 l 1,370,-1
 455 253 l 1,371,-1
 451 253 l 1,372,373
 444 249 444 249 444 242 c 2,367,-1
434 206 m 1,374,-1
 438 204 l 1,375,-1
 460 219 l 1,376,-1
 460 221 l 1,377,-1
 457 223 l 1,378,-1
 455 223 l 2,379,380
 446 223 446 223 434 206 c 1,374,-1
387 171 m 1,381,-1
 391 171 l 2,382,383
 402 171 402 171 414 184 c 1,384,-1
 414 187 l 1,385,-1
 410 199 l 1,386,-1
 415 210 l 1,387,388
 406 210 406 210 395 184 c 1,389,390
 387 176 387 176 387 171 c 1,381,-1
464 202 m 1,391,-1
 461 199 l 1,392,-1
 461 198 l 1,393,-1
 466 198 l 1,394,-1
 466 202 l 1,395,-1
 464 202 l 1,391,-1
425 167 m 1,396,-1
 425 165 l 1,397,-1
 432 163 l 1,398,-1
 440 163 l 1,399,400
 457 165 457 165 457 177 c 1,401,402
 455 182 455 182 446.75 182 c 128,-1,403
 438.5 182 438.5 182 425 167 c 1,396,-1
251 93 m 1,404,-1
 254 93 l 1,405,406
 354 136 354 136 354 154 c 1,407,-1
 348 154 l 1,408,409
 325 146 325 146 288 120.5 c 128,-1,410
 251 95 251 95 251 93 c 1,404,-1
427 139 m 2,411,-1
 427 138 l 1,412,-1
 432 138 l 2,413,414
 434 138 434 138 440 148 c 1,415,-1
 438 150 l 1,416,417
 427 147 427 147 427 139 c 2,411,-1
414 148 m 1,418,-1
 410 143 l 1,419,-1
 410 142 l 1,420,-1
 416 142 l 1,421,-1
 419 145 l 1,422,-1
 416 148 l 1,423,-1
 414 148 l 1,418,-1
386 103 m 1,424,-1
 387 103 l 2,425,426
 397 103 397 103 412 115 c 1,427,428
 412 118 412 118 408 118 c 1,429,430
 386 112 386 112 386 103 c 1,424,-1
300 85 m 1,431,-1
 300 82 l 1,432,-1
 302 82 l 1,433,434
 326 89.5 326 89.5 326 94 c 2,435,-1
 326 96 l 1,436,-1
 324 96 l 2,437,438
 313 96 313 96 300 85 c 1,431,-1
370 86 m 1,439,-1
 366 82 l 1,440,-1
 366 79 l 1,441,-1
 373 79 l 1,442,-1
 377 83 l 1,443,-1
 377 86 l 1,444,-1
 370 86 l 1,439,-1
108 51 m 1,445,-1
 111 48 l 1,446,-1
 130 48 l 1,447,-1
 134 51 l 1,448,449
 134 54 134 54 122 55 c 1,450,451
 108 53 108 53 108 51 c 1,445,-1
210 54 m 1,452,-1
 208 51 l 1,453,-1
 208 48 l 1,454,455
 217 48 217 48 219 53 c 1,456,-1
 219 54 l 1,457,-1
 210 54 l 1,452,-1
300 40 m 1,458,-1
 302 38 l 1,459,-1
 303 38 l 1,460,461
 325.5 45.5 325.5 45.5 330 50 c 1,462,-1
 328 54 l 1,463,-1
 321 54 l 1,464,465
 300 50 300 50 300 40 c 1,458,-1
85 46 m 1,466,-1
 80 42 l 1,467,-1
 80 40 l 1,468,-1
 91 40 l 1,469,-1
 94 42 l 1,470,-1
 91 46 l 1,471,-1
 85 46 l 1,466,-1
174 22 m 1,472,-1
 136 19 l 1,473,-1
 111 25 l 1,474,-1
 102 25 l 1,475,476
 79 23 79 23 79 16 c 2,477,-1
 79 14 l 2,478,479
 79 10 79 10 150 5 c 1,480,481
 178.5 5 178.5 5 240 29 c 1,482,-1
 242 30 l 1,483,-1
 242 34 l 1,484,-1
 240 34 l 2,485,486
 225 34 225 34 174 22 c 1,472,-1
EndSplineSet
EndChar

StartChar: four
Encoding: 52 52 23
Width: 537
Flags: W
HStem: 178 23<414.016 437> 190 22<200.77 346.481> 226 34<200.495 348.825> 251 15<431 467.79> 361 5<110 111.952>
VStem: 98 12<561.268 589.41> 121 26<713.311 757.216> 155 61<710 754.969 772 786.97> 338 24<334.413 355 378 387> 349 13<331.002 353.75> 354 60<-18.0957 176.965 221 223> 368 38<334 354.183> 375 48<-17.874 -5> 406 23<16 39.9666> 468 14<204.116 206.969 251 253.062>
LayerCount: 2
Fore
SplineSet
155 778 m 1,0,-1
 154 792 l 1,1,-1
 155 793 l 1,2,3
 216 787 216 787 216 774 c 1,4,5
 207 725 207 725 177 457 c 1,6,7
 169 398 169 398 158 372 c 1,8,9
 131 335 131 335 123 277 c 1,10,11
 130 272 130 272 213 264 c 1,12,13
 240 255 240 255 254 255 c 2,14,-1
 267 255 l 1,15,-1
 323 260 l 1,16,-1
 349 260 l 1,17,-1
 349 261 l 1,18,19
 342 317 342 317 338 520 c 1,20,21
 332 545 332 545 328 548 c 1,22,23
 328 554 328 554 364 559 c 1,24,25
 364 562 364 562 376.5 562.5 c 128,-1,26
 389 563 389 563 392 552 c 1,27,-1
 386 535 l 1,28,29
 406 501 406 501 406 328 c 0,30,31
 406 266 406 266 414 266 c 2,32,-1
 418 266 l 2,33,34
 462 266 462 266 476 274 c 1,35,-1
 476 275 l 1,36,-1
 483 270 l 1,37,-1
 482 260 l 1,38,-1
 482 251 l 1,39,-1
 487 243 l 1,40,-1
 486 232 l 1,41,42
 486 198 486 198 461.5 191 c 128,-1,43
 437 184 437 184 437 178 c 1,44,-1
 418 178 l 2,45,46
 414 178 414 178 414 174 c 0,47,48
 423 103 423 103 423 31 c 1,49,50
 429 10 429 10 429 -19 c 1,51,-1
 438 -23 l 1,52,-1
 438 -25 l 2,53,54
 438 -34 438 -34 368 -55 c 1,55,56
 358 -48 358 -48 345 -48 c 1,57,-1
 342 -46 l 1,58,59
 354 34 354 34 354 75 c 0,60,61
 354 188 354 188 340 188 c 2,62,-1
 293 190 l 1,63,-1
 199 190 l 1,64,-1
 166 187 l 1,65,66
 6 188 6 188 6 202 c 1,67,68
 2 202 2 202 2 205 c 1,69,70
 38 238 38 238 38 254 c 1,71,72
 54 292 54 292 54 335 c 1,73,74
 84 414 84 414 98 566 c 1,75,76
 98 581 98 581 121 722 c 1,77,78
 121 739 121 739 132 775 c 1,79,-1
 133 775 l 1,80,81
 140 768 140 768 146 768 c 2,82,-1
 151 768 l 1,83,-1
 155 772 l 1,84,-1
 155 778 l 1,0,-1
147 727 m 2,85,-1
 147 725 l 1,86,87
 148 710 148 710 151 710 c 2,88,-1
 153 710 l 1,89,-1
 153 714 l 2,90,91
 153 720 153 720 162 736 c 1,92,-1
 166 753 l 1,93,-1
 166 755 l 1,94,-1
 164 758 l 1,95,-1
 160 758 l 2,96,97
 147 758 147 758 147 727 c 2,85,-1
171 673 m 1,98,-1
 171 670 l 1,99,-1
 174 667 l 1,100,101
 179 670 179 670 179 677 c 2,102,-1
 179 686 l 1,103,-1
 178 686 l 2,104,105
 174 686 174 686 171 673 c 1,98,-1
110 562 m 2,106,-1
 110 561 l 1,107,-1
 114 558 l 1,108,-1
 116 558 l 1,109,-1
 123 559 l 1,110,-1
 123 566 l 1,111,-1
 119 574 l 1,112,-1
 127 613 l 1,113,-1
 126 613 l 1,114,115
 110 582 110 582 110 562 c 2,106,-1
154 462 m 1,116,-1
 155 456 l 1,117,-1
 158 456 l 1,118,119
 164 458 164 458 164 466 c 2,120,-1
 164 473 l 1,121,-1
 160 473 l 1,122,123
 154 470 154 470 154 462 c 1,116,-1
110 367 m 1,124,-1
 110 366 l 1,125,126
 123 366 123 366 123 383 c 2,127,-1
 123 389 l 1,128,-1
 122 390 l 1,129,-1
 122 391 l 1,130,131
 114.5 391 114.5 391 110 367 c 1,124,-1
362 387 m 1,132,-1
 362 378 l 1,133,-1
 366 378 l 1,134,-1
 366 384 l 1,135,-1
 362 387 l 1,132,-1
112 361 m 1,136,-1
 106 361 l 1,137,-1
 106 356 l 1,138,-1
 110 356 l 1,139,-1
 112 359 l 1,140,-1
 112 361 l 1,136,-1
362 355 m 1,141,-1
 362 339 l 2,142,143
 362 331 362 331 366 331 c 1,144,-1
 368 334 l 1,145,-1
 368 342 l 2,146,147
 368 354 368 354 362 355 c 1,141,-1
90 300 m 1,148,-1
 87 298 l 1,149,-1
 87 296 l 1,150,-1
 90 296 l 1,151,-1
 93 299 l 1,152,-1
 93 300 l 1,153,-1
 90 300 l 1,148,-1
73 254 m 1,154,-1
 77 250 l 1,155,-1
 80 250 l 1,156,-1
 97 253 l 1,157,-1
 97 254 l 1,158,159
 94 260 94 260 87 260 c 2,160,-1
 82 260 l 2,161,162
 74.5 260 74.5 260 73 254 c 1,154,-1
463 255 m 2,163,-1
 431 251 l 1,164,-1
 431 249 l 1,165,166
 434 244 434 244 455 242 c 0,167,168
 462 242 462 242 468 250 c 1,169,-1
 468 253 l 2,170,171
 468 255 468 255 463 255 c 2,163,-1
132 249 m 1,172,-1
 134 246 l 1,173,-1
 160 249 l 1,174,-1
 160 250 l 2,175,176
 160 254 160 254 146 253.5 c 128,-1,177
 132 253 132 253 132 249 c 1,172,-1
200 219 m 1,178,179
 224 212 224 212 329 212 c 0,180,181
 347 212 347 212 353 222 c 1,182,183
 353 225 353 225 334 226 c 1,184,185
 200 224 200 224 200 219 c 1,178,179
413 226 m 1,186,-1
 410 223 l 1,187,-1
 410 221 l 1,188,-1
 418 214 l 1,189,-1
 412 206 l 1,190,-1
 412 205 l 1,191,192
 413 201 413 201 423 201 c 2,193,-1
 433 201 l 2,194,195
 452 201 452 201 465 205 c 1,196,197
 465 206.5 465 206.5 438 214 c 1,198,199
 434 226 434 226 418 226 c 2,200,-1
 413 226 l 1,186,-1
370 159 m 2,201,-1
 370 154 l 1,202,-1
 373 152 l 1,203,-1
 375 154 l 1,204,-1
 375 167 l 1,205,-1
 374 167 l 1,206,207
 370 166 370 166 370 159 c 2,201,-1
398 26 m 1,208,209
 400 14 400 14 403 14 c 1,210,-1
 406 16 l 1,211,-1
 406 29 l 2,212,213
 406 39 406 39 402 40 c 0,214,215
 398 40 398 40 398 26 c 1,208,209
367 -16 m 2,216,-1
 367 -18 l 1,217,-1
 368 -18 l 1,218,219
 375 -14 375 -14 375 -6 c 2,220,-1
 375 -5 l 1,221,-1
 374 -5 l 1,222,223
 367 -8 367 -8 367 -16 c 2,216,-1
EndSplineSet
EndChar

StartChar: five
Encoding: 53 53 24
Width: 492
Flags: W
HStem: -13 19<89 117.44 145 231.609> 23 24<136 141 145 156> 53 14<136 156> 175 7<450 459> 302 16<406 410> 383 13<432.003 441.462> 400 9<85 87.0625> 437 12<264.754 275.116> 466 16<262.126 302.311> 493 22<281 308.092> 637 37<406.065 422.991> 652 22<423 427>
VStem: 141 4<14 18> 316 33<55 66> 393.049 77.708<230.32 357.989> 393.049 28.9512<202.004 221.65> 410 52<291 302 340 344> 434 10<678 684> 444 17<193.838 216.8>
LayerCount: 2
Fore
SplineSet
102 67 m 1,0,-1
 169 73 l 1,1,2
 174.985294118 71.2205882353 174.985294118 71.2205882353 182.383650519 71.2205882353 c 0,3,4
 220.720588235 71.2205882353 220.720588235 71.2205882353 297 119 c 1,5,6
 363 171 363 171 379 202 c 1,7,8
 393.048780488 221.902439024 393.048780488 221.902439024 393.048780488 241.243902439 c 128,-1,9
 393.048780488 260.585365854 393.048780488 260.585365854 386 278 c 1,10,11
 386 357 386 357 352 385 c 1,12,13
 341 402 341 402 294 421 c 1,14,15
 271 437 271 437 242 437 c 2,16,-1
 238 437 l 2,17,18
 198 437 198 437 108 403 c 1,19,-1
 89 400 l 1,20,-1
 85 404 l 1,21,-1
 85 409 l 1,22,23
 89 409 89 409 94 477 c 1,24,25
 108 501 108 501 113.5 589.5 c 128,-1,26
 119 678 119 678 126 678 c 1,27,-1
 128 680 l 1,28,-1
 128 682 l 1,29,-1
 126 693 l 1,30,-1
 128 693 l 1,31,32
 133 689 133 689 152.75 689 c 128,-1,33
 172.5 689 172.5 689 282 701 c 1,34,-1
 285 701 l 1,35,36
 457 700 457 700 457 693 c 1,37,38
 456 690 456 690 444 683 c 1,39,-1
 444 678 l 1,40,-1
 449 666 l 1,41,-1
 444 650 l 1,42,-1
 444 648 l 1,43,-1
 446 646 l 1,44,-1
 442 642 l 1,45,-1
 442 641 l 1,46,-1
 427 652 l 1,47,-1
 423 652 l 1,48,49
 423 637 423 637 386 637 c 1,50,-1
 358 641 l 1,51,52
 214 631 214 631 180 624 c 1,53,54
 170 614 170 614 158 523 c 1,55,56
 147 487 147 487 147 465 c 1,57,-1
 150 465 l 1,58,-1
 150 463 l 1,59,60
 180 464 180 464 180 474 c 1,61,62
 170 478 170 478 167 484 c 1,63,-1
 167 487 l 2,64,65
 167 509 167 509 247 515 c 1,66,-1
 255 515 l 2,67,68
 314 515 314 515 339 478 c 1,69,70
 379 454 379 454 410 426 c 1,71,-1
 423 411 l 1,72,-1
 423 410 l 1,73,-1
 422 410 l 1,74,-1
 398 426 l 1,75,-1
 395 426 l 1,76,-1
 395 424 l 1,77,78
 406 399 406 399 416 398 c 1,79,80
 416 394 416 394 425 394 c 1,81,-1
 436 396 l 1,82,83
 443 389 443 389 443 383 c 1,84,85
 432 381 432 381 432 378 c 0,86,87
 433 371 433 371 454 358 c 1,88,89
 462 358 462 358 462 314 c 2,90,-1
 462 273 l 1,91,92
 470.756756757 251.594594595 470.756756757 251.594594595 470.756756757 231.297297297 c 128,-1,93
 470.756756757 211 470.756756757 211 461 192 c 1,94,-1
 459 191 l 1,95,-1
 456 191 l 1,96,97
 448 196 448 196 444 210 c 1,98,99
 446 220 446 220 452 227 c 1,100,-1
 448 230 l 1,101,102
 436 230 436 230 422 192 c 1,103,-1
 422 190 l 2,104,105
 422 186 422 186 434 186 c 1,106,-1
 435 184 l 1,107,-1
 435 181 l 1,108,109
 410 126 410 126 372 96 c 1,110,111
 363 91 363 91 349 57 c 1,112,-1
 349 55 l 1,113,114
 359.5 55 359.5 55 406 106 c 1,115,116
 427 142 427 142 450 170 c 1,117,-1
 452 169 l 1,118,-1
 452 166 l 1,119,120
 429 123 429 123 402 91 c 1,121,122
 319 17 319 17 259 -1 c 1,123,124
 145 -13 145 -13 102 -13 c 1,125,126
 91 -9 91 -9 26 -6 c 1,127,-1
 24 -5 l 1,128,-1
 24 -3 l 1,129,-1
 38 50 l 1,130,131
 38 78 38 78 69 78 c 1,132,-1
 74 79 l 1,133,134
 94 67 94 67 97 67 c 2,135,-1
 102 67 l 1,0,-1
406 682 m 1,136,-1
 406 680 l 1,137,138
 408 674 408 674 419 674 c 2,139,-1
 423 674 l 2,140,141
 434 674 434 674 434 684 c 1,142,-1
 430 687 l 1,143,-1
 416 687 l 2,144,145
 409 687 409 687 406 682 c 1,136,-1
139 661 m 1,146,-1
 136 656 l 1,147,-1
 136 654 l 1,148,-1
 139 650 l 1,149,150
 275 666 275 666 275 674 c 1,151,-1
 272 674 l 1,152,153
 139 664 139 664 139 661 c 1,146,-1
339 666 m 2,154,-1
 307 663 l 1,155,-1
 307 659 l 1,156,-1
 332 658 l 2,157,158
 349 658 349 658 349 662 c 0,159,160
 348 666 348 666 339 666 c 2,154,-1
143 630 m 1,161,-1
 141 627 l 1,162,-1
 141 594 l 1,163,-1
 143 592 l 1,164,165
 147 600 147 600 147 614 c 2,166,-1
 147 627 l 1,167,-1
 145 630 l 1,168,-1
 143 630 l 1,161,-1
139 557 m 1,169,-1
 136 557 l 1,170,-1
 136 554 l 1,171,-1
 139 554 l 1,172,-1
 139 557 l 1,169,-1
255 484 m 1,173,-1
 255 482 l 1,174,-1
 287 482 l 2,175,176
 324 482 324 482 324 487 c 128,-1,177
 324 492 324 492 281 493 c 1,178,-1
 255 484 l 1,173,-1
209 484 m 2,179,-1
 209 482 l 1,180,-1
 214 478 l 1,181,-1
 220 478 l 1,182,-1
 234 482 l 1,183,-1
 234 486 l 1,184,-1
 214 488 l 1,185,186
 209 486 209 486 209 484 c 2,179,-1
262 459 m 1,187,188
 266 449 266 449 286 449 c 2,189,-1
 292 449 l 2,190,191
 299 449 299 449 303 456 c 1,192,-1
 303 462 l 1,193,194
 302 466 302 466 292 466 c 2,195,-1
 276 466 l 2,196,197
 266 466 266 466 262 459 c 1,187,188
164 446 m 2,198,-1
 164 445 l 1,199,-1
 169 441 l 1,200,201
 177 441 177 441 182 449 c 1,202,-1
 182 450 l 1,203,-1
 177 452 l 1,204,205
 164 451 164 451 164 446 c 2,198,-1
108 443 m 1,206,-1
 102 438 l 1,207,-1
 102 426 l 1,208,-1
 107 422 l 1,209,-1
 119 422 l 1,210,-1
 119 426 l 2,211,212
 119 438 119 438 110 443 c 1,213,-1
 108 443 l 1,206,-1
318 439 m 2,214,-1
 317 439 l 1,215,-1
 317 435 l 1,216,-1
 322 430 l 1,217,-1
 324 430 l 2,218,219
 326 430 326 430 326 434.5 c 128,-1,220
 326 439 326 439 318 439 c 2,214,-1
408 389 m 1,221,-1
 398 400 l 1,222,-1
 398 398 l 2,223,224
 398 390 398 390 406 385 c 1,225,-1
 408 385 l 1,226,-1
 408 389 l 1,221,-1
387 381 m 1,227,-1
 386 381 l 1,228,-1
 386 378 l 1,229,-1
 390 374 l 1,230,-1
 391 374 l 1,231,-1
 391 376 l 1,232,-1
 387 381 l 1,227,-1
398 362 m 1,233,-1
 394 366 l 1,234,-1
 394 362 l 1,235,-1
 397 359 l 1,236,-1
 398 361 l 1,237,-1
 398 362 l 1,233,-1
401 348 m 1,238,-1
 399 348 l 1,239,-1
 399 342 l 1,240,-1
 402 340 l 1,241,-1
 405 340 l 1,242,-1
 405 344 l 1,243,-1
 401 348 l 1,238,-1
410 323 m 1,244,-1
 406 320 l 1,245,-1
 406 318 l 1,246,-1
 412 318 l 1,247,-1
 415 320 l 1,248,-1
 415 323 l 1,249,-1
 410 323 l 1,244,-1
410 302 m 1,250,-1
 406 302 l 1,251,-1
 404 292 l 1,252,-1
 404 286 l 1,253,-1
 405 286 l 1,254,-1
 410 291 l 1,255,-1
 410 302 l 1,250,-1
437 194 m 1,256,-1
 439 197 l 1,257,-1
 444 197 l 1,258,-1
 444 195 l 1,259,-1
 439 191 l 1,260,-1
 437 191 l 1,261,-1
 437 194 l 1,256,-1
450 178 m 1,262,-1
 455 182 l 1,263,-1
 459 181 l 1,264,-1
 459 180 l 1,265,-1
 455 175 l 1,266,-1
 450 177 l 1,267,-1
 450 178 l 1,262,-1
207 50 m 1,268,-1
 207 48 l 1,269,270
 230 56 230 56 273 65 c 1,271,272
 297 78 297 78 297 87 c 1,273,-1
 293 91 l 1,274,-1
 351 114 l 1,275,-1
 351 115 l 1,276,-1
 350 121 l 1,277,278
 378 153 378 153 378 162 c 1,279,-1
 377 163 l 1,280,-1
 374 163 l 2,281,282
 365 163 365 163 273 89 c 1,283,284
 255 89 255 89 207 50 c 1,268,-1
145 14 m 2,285,-1
 145 11 l 1,286,-1
 149 10 l 1,287,288
 165.5 10 165.5 10 245 16 c 0,289,290
 254 16 254 16 301 46 c 1,291,292
 316 58 316 58 316 65 c 2,293,-1
 316 66 l 1,294,-1
 314 69 l 1,295,-1
 310 69 l 2,296,297
 293 69 293 69 258 38 c 1,298,299
 187 23 187 23 164 22 c 1,300,301
 145 18 145 18 145 14 c 2,285,-1
149 53 m 1,302,-1
 136 50 l 1,303,-1
 136 47 l 1,304,-1
 149 47 l 1,305,-1
 156 49 l 1,306,-1
 156 53 l 1,307,-1
 149 53 l 1,302,-1
315 41 m 1,308,-1
 312 38 l 1,309,-1
 312 34 l 1,310,-1
 314 34 l 1,311,-1
 318 38 l 1,312,-1
 318 41 l 1,313,-1
 315 41 l 1,308,-1
61 23 m 1,314,-1
 58 21 l 1,315,316
 59 17 59 17 68 17 c 128,-1,317
 77 17 77 17 78 21 c 1,318,-1
 74 23 l 1,319,-1
 61 23 l 1,314,-1
86 8 m 1,320,-1
 89 6 l 1,321,-1
 91 6 l 2,322,323
 100 6 100 6 118 12 c 1,324,-1
 130 11 l 1,325,326
 141 14 141 14 141 22 c 2,327,-1
 141 23 l 1,328,-1
 136 23 l 1,329,330
 86 15 86 15 86 8 c 1,320,-1
EndSplineSet
EndChar

StartChar: six
Encoding: 54 54 25
Width: 455
Flags: W
HStem: -10 22<281.234 310.433> 33 14<194.697 238.882> 121 27<78.5281 82 370 372> 236 19<54.3384 68.5532> 279 31<66.0156 75> 322 12<240 247> 391 13<215.62 275.841> 664 22<358.397 393.719> 703 17<309.103 329 365.188 393>
VStem: 19 30<158.473 275.722> 27 11<140.483 170> 322 13<27.8203 30.9746> 329 29<327 330 686.498 699.481> 369 27<223 236> 397 29<654.336 663 686 699> 417 9<701 702>
LayerCount: 2
Fore
SplineSet
351 720 m 0,0,1
 421 720 421 720 435 709 c 1,2,3
 426 701.5 426 701.5 426 697 c 2,4,-1
 426 695 l 1,5,-1
 430 671 l 1,6,-1
 430 670 l 2,7,8
 430 636 430 636 417 636 c 1,9,-1
 400 641 l 1,10,-1
 396 641 l 1,11,-1
 346 635 l 1,12,-1
 329 636 l 1,13,14
 314 634.5 314 634.5 251 576 c 1,15,-1
 245 566 l 1,16,17
 222 554 222 554 210 530 c 1,18,19
 197 517 197 517 172 470 c 1,20,21
 167 470 167 470 163 451 c 1,22,23
 137 431 137 431 128 408 c 1,24,25
 123 404 123 404 92 352 c 1,26,27
 78 334 78 334 70 316 c 1,28,-1
 66 311 l 1,29,-1
 66 310 l 1,30,-1
 71 310 l 2,31,32
 75 310 75 310 90 333 c 1,33,34
 95 333 95 333 145 367 c 1,35,36
 212 404 212 404 236 404 c 0,37,38
 279 404 279 404 342 373 c 1,39,40
 399 321 399 321 407 299 c 1,41,42
 423 287 423 287 432 236 c 1,43,44
 412.5 141.5 412.5 141.5 393 107 c 1,45,46
 335 31 335 31 335 25 c 1,47,-1
 337 18 l 1,48,49
 312 -4 312 -4 294 -10 c 1,50,51
 189 -5 189 -5 176 -2 c 1,52,53
 147 13 147 13 122 20 c 1,54,-1
 74 54 l 1,55,56
 27 115 27 115 27 186 c 1,57,58
 22 191 22 191 19 262 c 1,59,60
 19 286 19 286 46 355 c 1,61,62
 46 373 46 373 72 430 c 1,63,64
 85 500 85 500 166 594 c 1,65,66
 270 701 270 701 282 701 c 1,67,68
 324 720 324 720 351 720 c 0,0,1
414 705 m 1,69,-1
 408 705 l 1,70,-1
 408 702 l 1,71,-1
 413 698 l 1,72,-1
 414 698 l 1,73,-1
 417 701 l 1,74,-1
 417 702 l 1,75,-1
 414 705 l 1,69,-1
100 470 m 1,76,-1
 100 466 l 1,77,-1
 103 466 l 2,78,79
 107 466 107 466 107 474 c 1,80,81
 138 506 138 506 167 563 c 1,82,83
 262 664 262 664 288 669 c 1,84,85
 329 689 329 689 329 701 c 2,86,-1
 329 703 l 1,87,-1
 326 703 l 1,88,89
 290 697 290 697 253 666 c 1,90,91
 174 587 174 587 150 557 c 1,92,93
 101 492 101 492 100 470 c 1,76,-1
358 688 m 1,94,-1
 358 686 l 1,95,-1
 376 686 l 2,96,97
 386.5 686 386.5 686 397 692 c 1,98,-1
 397 699 l 1,99,-1
 393 703 l 1,100,-1
 383 703 l 2,101,102
 373 703 373 703 358 688 c 1,94,-1
402 694 m 1,103,-1
 400 691 l 1,104,-1
 400 690 l 1,105,-1
 402 686 l 1,106,-1
 407 686 l 1,107,-1
 410 690 l 1,108,-1
 410 691 l 1,109,-1
 407 694 l 1,110,-1
 402 694 l 1,103,-1
258 635 m 1,111,-1
 258 630 l 1,112,-1
 260 630 l 1,113,114
 286 642 286 642 316 658 c 1,115,116
 330 658 330 658 341 670 c 1,117,-1
 341 671 l 1,118,-1
 338 671 l 2,119,120
 322 671 322 671 258 635 c 1,111,-1
348 650 m 1,121,-1
 348 646 l 1,122,-1
 355 646 l 1,123,124
 394 656 394 656 394 660 c 2,125,-1
 394 663 l 1,126,-1
 387 664 l 1,127,128
 371 664 371 664 348 650 c 1,121,-1
111 456 m 1,129,-1
 107 453 l 1,130,-1
 109 449 l 1,131,-1
 110 449 l 2,132,133
 118 449 118 449 139 484 c 1,134,135
 151 500 151 500 195 551 c 1,136,137
 201 562 201 562 275 622 c 1,138,-1
 281 630 l 1,139,-1
 279 630 l 2,140,141
 242 630 242 630 186 574 c 1,142,143
 139 508 139 508 111 456 c 1,129,-1
81 401 m 2,144,-1
 81 394 l 1,145,146
 94 398 94 398 94 411 c 2,147,-1
 94 412 l 1,148,-1
 88 412 l 1,149,150
 81 409 81 409 81 401 c 2,144,-1
197 372 m 1,151,-1
 197 369 l 1,152,-1
 204 369 l 1,153,154
 218 377 218 377 279 382 c 1,155,-1
 279 383 l 1,156,157
 269 391 269 391 253 391 c 2,158,-1
 242 391 l 2,159,160
 217 391 217 391 197 372 c 1,151,-1
165 352 m 1,161,-1
 141 335 l 1,162,-1
 141 331 l 1,163,164
 151 331 151 331 169 350 c 1,165,-1
 169 352 l 1,166,-1
 165 352 l 1,161,-1
359 341 m 1,167,-1
 359 337 l 1,168,169
 369 308 369 308 394 294 c 1,170,-1
 402 294 l 1,171,-1
 402 298 l 1,172,173
 375 340 375 340 359 341 c 1,167,-1
243 339 m 1,174,-1
 240 337 l 1,175,-1
 240 334 l 1,176,-1
 247 334 l 1,177,-1
 250 337 l 1,178,-1
 247 339 l 1,179,-1
 243 339 l 1,174,-1
322 330 m 1,180,-1
 312 330 l 1,181,-1
 312 327 l 1,182,-1
 316 322 l 1,183,-1
 318 322 l 1,184,-1
 322 327 l 1,185,-1
 322 330 l 1,180,-1
134 279 m 1,186,187
 98.4897959184 267.979591837 98.4897959184 267.979591837 86 243 c 1,188,189
 86 184 86 184 131 85 c 1,190,191
 192 47 192 47 215 47 c 0,192,193
 294 47 294 47 340 138 c 1,194,-1
 344 166 l 1,195,196
 344 266 344 266 313 294 c 1,197,198
 270 322 270 322 210 322 c 1,199,200
 197 319 197 319 134 279 c 1,186,187
354 292 m 1,201,-1
 337 289 l 1,202,-1
 337 286 l 1,203,204
 351 272 351 272 351 260 c 1,205,-1
 354 260 l 1,206,-1
 357 283 l 1,207,-1
 357 285 l 1,208,-1
 355 292 l 1,209,-1
 354 292 l 1,201,-1
49 262 m 1,210,-1
 49 258 l 2,211,212
 49 255 49 255 55.5 255 c 128,-1,213
 62 255 62 255 79 272 c 1,214,-1
 79 275 l 1,215,-1
 75 279 l 1,216,217
 60 279 60 279 49 262 c 1,210,-1
398 247 m 1,218,-1
 396 244 l 1,219,-1
 396 223 l 1,220,-1
 402 218 l 1,221,-1
 406 221 l 1,222,-1
 406 234 l 2,223,224
 406 246 406 246 400 247 c 1,225,-1
 398 247 l 1,218,-1
368 238 m 1,226,-1
 363 238 l 1,227,-1
 361 232 l 1,228,-1
 361 225 l 1,229,-1
 363 222 l 1,230,-1
 365 222 l 2,231,232
 369 222 369 222 369 236 c 1,233,-1
 368 238 l 1,226,-1
54 223 m 0,234,235
 54 215.5 54 215.5 81 148 c 1,236,-1
 82 148 l 1,237,-1
 85 150 l 1,238,239
 82 186 82 186 66 236 c 1,240,241
 54 236 54 236 54 223 c 0,234,235
40 197 m 1,242,-1
 36 197 l 1,243,-1
 36 186 l 1,244,-1
 38 182 l 1,245,-1
 42 182 l 1,246,-1
 42 190 l 1,247,-1
 40 197 l 1,242,-1
387 191 m 1,248,-1
 382 186 l 1,249,-1
 382 182 l 1,250,-1
 383 174 l 1,251,-1
 385 174 l 1,252,253
 391 178 391 178 391 188 c 1,254,-1
 387 191 l 1,248,-1
358 182 m 1,255,-1
 355 178 l 1,256,-1
 355 177 l 1,257,-1
 359 173 l 1,258,-1
 362 173 l 1,259,-1
 366 177 l 1,260,-1
 366 178 l 1,261,-1
 363 182 l 1,262,-1
 358 182 l 1,255,-1
42 174 m 1,263,-1
 38 170 l 1,264,-1
 38 162 l 1,265,266
 46 121 46 121 53 121 c 1,267,-1
 55 124 l 1,268,-1
 55 137 l 2,269,270
 55 174 55 174 42 174 c 1,263,-1
369 154 m 1,271,-1
 366 154 l 1,272,-1
 366 152 l 1,273,-1
 370 148 l 1,274,-1
 372 148 l 1,275,-1
 372 150 l 1,276,-1
 369 154 l 1,271,-1
82 121 m 1,277,-1
 78 121 l 1,278,-1
 78 117 l 1,279,-1
 83 111 l 1,280,-1
 86 111 l 1,281,-1
 86 117 l 1,282,-1
 82 121 l 1,277,-1
368 115 m 1,283,-1
 346 85 l 1,284,-1
 346 82 l 1,285,-1
 350 79 l 1,286,287
 372 107 372 107 372 114 c 2,288,-1
 372 115 l 1,289,-1
 368 115 l 1,283,-1
62 103 m 1,290,-1
 61 98 l 1,291,292
 64 92 64 92 66 92 c 2,293,-1
 68 92 l 1,294,-1
 68 93 l 2,295,296
 68 102 68 102 62 103 c 1,290,-1
94 92 m 1,297,-1
 92 89 l 1,298,-1
 92 86 l 1,299,300
 105.5 68 105.5 68 116 68 c 2,301,-1
 117 68 l 1,302,-1
 117 70 l 2,303,304
 117 76 117 76 96 92 c 1,305,-1
 94 92 l 1,297,-1
318 66 m 1,306,-1
 279 38 l 1,307,-1
 279 37 l 1,308,-1
 282 34 l 1,309,310
 301 34 301 34 322 62 c 1,311,-1
 322 66 l 1,312,-1
 318 66 l 1,306,-1
152 51 m 2,313,314
 150 51 150 51 150.75 46 c 128,-1,315
 151.5 41 151.5 41 156 38 c 1,316,-1
 161 38 l 2,317,318
 171.5 38 171.5 38 173 44 c 1,319,-1
 173 46 l 2,320,321
 173 49 173 49 159 51 c 1,322,-1
 152 51 l 2,313,314
189 40 m 1,323,-1
 186 40 l 1,324,-1
 186 37 l 1,325,-1
 189 34 l 1,326,-1
 191 34 l 1,327,-1
 191 37 l 1,328,-1
 189 40 l 1,323,-1
194 29 m 1,329,330
 201.5 23 201.5 23 215.25 23 c 128,-1,331
 229 23 229 23 240 31 c 1,332,-1
 240 33 l 1,333,-1
 210 33 l 2,334,335
 194 33 194 33 194 29 c 1,329,330
314 31 m 1,336,-1
 281 14 l 1,337,-1
 281 12 l 1,338,-1
 285 12 l 2,339,340
 301.5 12 301.5 12 318 30 c 1,341,-1
 318 31 l 1,342,-1
 314 31 l 1,336,-1
EndSplineSet
EndChar

StartChar: seven
Encoding: 55 55 26
Width: 455
Flags: W
HStem: 2 24<130 134> 16 10<109.405 128> 42 6<142 145> 433 22<275.147 278.5> 688 25<300 334> 711 13<62.3394 106.827 214 231.379> 722 17<382 384> 734 18<65 86> 750 34<23.5938 29.4868 363.005 393.75> 750 20G<429 434> 756 3<150 158.173> 784 20G<48.5 154.5>
VStem: 94 64<164 229.812> 94 55<90.0491 106 164.255 229.812 240 241> 94 14<27.2476 38> 201 32<358.25 371> 345 18<739.908 749.116> 354 28<664 668> 390 40<647 685> 394 25<661.281 685>
LayerCount: 2
Fore
SplineSet
55 804 m 1,0,1
 254 788 254 788 377 784 c 1,2,3
 404 773.5 404 773.5 422 769 c 1,4,-1
 429 769 l 1,5,-1
 430 770 l 1,6,7
 438 768 438 768 438 766 c 2,8,-1
 438 762 l 1,9,10
 419 747 419 747 419 683 c 2,11,-1
 419 677 l 2,12,13
 419 670 419 670 430 661 c 1,14,-1
 430 660 l 1,15,-1
 401 565 l 1,16,17
 330 466 330 466 274 369 c 1,18,19
 215 291 215 291 192 240 c 1,20,-1
 191 226 l 1,21,-1
 197 130 l 1,22,-1
 186 11 l 2,23,24
 186 6 186 6 145 -2 c 1,25,-1
 134 2 l 1,26,-1
 122 2 l 1,27,-1
 130 11 l 1,28,-1
 130 13 l 1,29,-1
 128 16 l 1,30,-1
 124 16 l 2,31,32
 116 16 116 16 104 11 c 1,33,34
 94 11 94 11 94 33 c 2,35,-1
 94 70 l 1,36,-1
 96 154 l 1,37,-1
 94 195 l 1,38,39
 106 246 106 246 130 285 c 1,40,41
 158 313 158 313 158 336 c 1,42,43
 163 336 163 336 167 352 c 1,44,-1
 220 431 l 1,45,46
 264 503 264 503 294 577 c 1,47,-1
 300 584 l 1,48,-1
 300 588 l 1,49,-1
 298 590 l 1,50,-1
 335 686 l 1,51,-1
 335 688 l 1,52,53
 318 688 318 688 268 703 c 1,54,55
 228 703 228 703 192 710 c 1,56,-1
 169 702 l 1,57,58
 98 711 98 711 74 711 c 2,59,-1
 66 711 l 2,60,61
 52 711 52 711 52 709 c 1,62,63
 33 709 33 709 24 754 c 1,64,65
 22 754 22 754 22 762 c 1,66,67
 28 784 28 784 40 784 c 2,68,-1
 54 783 l 1,69,-1
 54 784 l 1,70,-1
 42 797 l 1,71,-1
 42 798 l 2,72,73
 42 801 42 801 55 804 c 1,0,1
91 778 m 1,74,-1
 74 778 l 1,75,-1
 74 774 l 1,76,-1
 86 762 l 1,77,-1
 86 761 l 1,78,-1
 62 761 l 1,79,-1
 59 758 l 1,80,-1
 59 756 l 1,81,-1
 63 752 l 1,82,-1
 70 752 l 1,83,-1
 86 755 l 1,84,85
 129 746 129 746 160 746 c 2,86,-1
 190 746 l 1,87,88
 190 750 190 750 150 756 c 1,89,-1
 150 759 l 1,90,91
 282 750 282 750 335 739 c 1,92,-1
 342 739 l 2,93,94
 345 739 345 739 345 744 c 0,95,96
 345 760 345 760 255 763 c 1,97,-1
 91 778 l 1,74,-1
226 750 m 1,98,-1
 226 745 l 1,99,-1
 238 742 l 1,100,-1
 246 742 l 1,101,-1
 246 744 l 2,102,103
 246 748 246 748 226 750 c 1,98,-1
382 750 m 2,104,105
 363 750 363 750 363 744.5 c 128,-1,106
 363 739 363 739 388 739 c 2,107,-1
 390 739 l 1,108,-1
 394 744 l 1,109,-1
 394 748 l 1,110,-1
 387 750 l 1,111,-1
 382 750 l 2,104,105
65 734 m 1,112,-1
 62 731 l 1,113,114
 62 724 62 724 90 724 c 2,115,-1
 108 724 l 1,116,117
 95 734 95 734 66 734 c 2,118,-1
 65 734 l 1,112,-1
214 733 m 1,119,120
 214 729 214 729 300 720 c 1,121,-1
 324 713 l 1,122,-1
 334 713 l 1,123,-1
 339 718 l 1,124,125
 339 733 339 733 214 733 c 1,119,120
382 722 m 1,126,-1
 377 717 l 1,127,-1
 377 714 l 1,128,-1
 382 714 l 1,129,-1
 384 722 l 1,130,-1
 382 722 l 1,126,-1
362 688 m 1,131,132
 364 682 364 682 366 682 c 2,133,-1
 369 682 l 1,134,-1
 374 688 l 1,135,-1
 374 694 l 1,136,-1
 371 696 l 1,137,-1
 366 696 l 1,138,139
 362 695 362 695 362 688 c 1,131,132
382 661 m 1,140,-1
 382 660 l 2,141,142
 382 648 382 648 388 647 c 1,143,-1
 391 647 l 2,144,145
 397 647 397 647 397 685 c 1,146,-1
 395 689 l 1,147,-1
 394 689 l 1,148,149
 386 684 386 684 382 661 c 1,140,-1
350 671 m 1,150,-1
 349 671 l 1,151,-1
 350 664 l 1,152,-1
 354 664 l 1,153,-1
 354 668 l 1,154,-1
 350 671 l 1,150,-1
386 633 m 1,155,-1
 380 633 l 1,156,-1
 380 632 l 1,157,-1
 378 601 l 1,158,-1
 380 599 l 1,159,-1
 382 599 l 2,160,161
 384 599 384 599 390 621 c 1,162,-1
 390 626 l 1,163,-1
 386 633 l 1,155,-1
326 625 m 1,164,-1
 320 625 l 1,165,-1
 320 621 l 1,166,-1
 304 576 l 1,167,-1
 304 574 l 1,168,-1
 307 574 l 1,169,170
 326.5 602.5 326.5 602.5 328 619 c 1,171,-1
 328 622 l 1,172,-1
 326 625 l 1,164,-1
258 457 m 2,173,-1
 258 455 l 1,174,-1
 264 455 l 2,175,176
 276 455 276 455 298 498 c 1,177,178
 345 572 345 572 345 584 c 2,179,-1
 345 587 l 1,180,-1
 342 590 l 1,181,-1
 338 590 l 1,182,183
 330 585 330 585 296 526 c 1,184,185
 258 465 258 465 258 457 c 2,173,-1
342 535 m 1,186,-1
 341 535 l 1,187,188
 310 483 310 483 310 474 c 1,189,-1
 313 474 l 1,190,191
 343 510 343 510 343 534 c 1,192,-1
 342 535 l 1,186,-1
292 444 m 2,193,-1
 292 442 l 1,194,195
 296 442 296 442 309 461 c 1,196,-1
 309 465 l 1,197,-1
 306 465 l 1,198,199
 292 451 292 451 292 444 c 2,193,-1
268 402 m 1,200,-1
 270 402 l 1,201,202
 286 418 286 418 286 431 c 2,203,-1
 286 433 l 1,204,-1
 285 433 l 2,205,206
 277 433 277 433 268 402 c 1,200,-1
233 362 m 1,207,-1
 233 358 l 1,208,-1
 238 358 l 1,209,-1
 244 373 l 1,210,-1
 242 374 l 1,211,212
 236 374 236 374 233 362 c 1,207,-1
182 358 m 1,213,-1
 182 353 l 1,214,-1
 184 353 l 1,215,216
 201 364 201 364 201 371 c 1,217,-1
 199 371 l 1,218,219
 190 370 190 370 182 358 c 1,213,-1
186 324 m 1,220,-1
 188 324 l 1,221,222
 193 326 193 326 197 332 c 1,223,-1
 195 334 l 1,224,-1
 195 335 l 1,225,226
 186 332 186 332 186 324 c 1,220,-1
177 314 m 1,227,-1
 173 310 l 1,228,-1
 173 307 l 1,229,-1
 175 307 l 1,230,-1
 180 311 l 1,231,-1
 180 314 l 1,232,-1
 177 314 l 1,227,-1
135 261 m 1,233,-1
 136 261 l 1,234,235
 153 272 153 272 153 279 c 1,236,-1
 152 279 l 1,237,238
 135 271 135 271 135 261 c 1,233,-1
153 246 m 1,239,-1
 149 241 l 1,240,-1
 149 240 l 1,241,-1
 154 240 l 1,242,-1
 156 244 l 1,243,-1
 154 246 l 1,244,-1
 153 246 l 1,239,-1
149 218 m 2,245,-1
 149 199 l 1,246,247
 158 172 158 172 158 164 c 1,248,-1
 162 162 l 1,249,-1
 163 162 l 2,250,251
 168 162 168 162 169 178 c 1,252,-1
 163 206 l 1,253,-1
 167 229 l 1,254,-1
 166 229 l 1,255,-1
 164 230 l 1,256,257
 149 224 149 224 149 218 c 2,245,-1
130 203 m 1,258,-1
 126 203 l 1,259,-1
 126 199 l 1,260,-1
 130 202 l 1,261,-1
 130 203 l 1,258,-1
156 106 m 1,262,-1
 152 106 l 1,263,-1
 152 102 l 2,264,265
 152 91.5 152 91.5 158 90 c 1,266,-1
 160 90 l 1,267,-1
 163 93 l 1,268,-1
 163 94 l 2,269,270
 163 102 163 102 156 106 c 1,262,-1
145 54 m 1,271,-1
 142 50 l 1,272,-1
 142 48 l 1,273,-1
 145 48 l 1,274,-1
 147 50 l 1,275,-1
 147 54 l 1,276,-1
 145 54 l 1,271,-1
113 42 m 1,277,-1
 108 38 l 1,278,-1
 108 33 l 1,279,280
 111 26 111 26 122 26 c 2,281,-1
 136 26 l 2,282,283
 146 26 146 26 147 30 c 1,284,285
 147 42 147 42 122 42 c 2,286,-1
 113 42 l 1,277,-1
167 27 m 1,287,-1
 164 24 l 1,288,-1
 166 22 l 1,289,-1
 170 22 l 1,290,-1
 170 27 l 1,291,-1
 167 27 l 1,287,-1
EndSplineSet
EndChar

StartChar: eight
Encoding: 56 56 27
Width: 512
Flags: W
HStem: -18 21<189.018 245.947> 9 25<120.487 146> 10 32<182.336 230> 26 20<180.379 214.219 265.919 298> 86 3<345 349> 190 11<461.603 468> 286 6<91 104.723> 311 15<97.2119 109.035> 318 24<78.1987 94> 419 39<272 294.657> 422 25<130.438 152.775> 436 11<127.507 130> 438 28<164.141 170 216 253.504> 457 20<334 340.79> 591 9<55.1963 60> 674 10<364.75 371.484> 726 20G<298 322> 759 27<230.566 314.354>
VStem: 26 24<572.292 590.967 611.898 640.927> 37 13<154.207 250.802 628.091 631.083 668 677.932> 65 41<126.277 252.933> 73 26<619 627.936> 106 12<617.126 626.877> 112 46<326.23 339> 194 22<434 437.414> 326 44<738 749.859> 345 4<86 89> 375 31<621 673.839> 390 64<121.328 124 308.438 351.873> 390 39<128 132 276.066 306.837> 390 23<214.746 229 233 270> 401 11<214.154 229 233 234.667> 468 11<182 190> 476 3<210.556 216 220 237.034>
LayerCount: 2
Fore
SplineSet
273 786 m 2,0,-1
 282 786 l 2,1,2
 295 786 295 786 322 768 c 1,3,4
 370 750 370 750 370 729 c 1,5,6
 406 654 406 654 406 614 c 1,7,8
 403 605 403 605 398 555 c 1,9,10
 380 505.5 380 505.5 350 468 c 1,11,12
 442 391 442 391 454 350 c 1,13,14
 454 342 454 342 483 298 c 1,15,-1
 480 225 l 1,16,-1
 479 220 l 1,17,-1
 476 220 l 1,18,-1
 476 231 l 2,19,20
 476 242 476 242 472 242 c 2,21,-1
 469 242 l 2,22,23
 462 242 462 242 459 216 c 1,24,25
 462 201 462 201 466 201 c 2,26,-1
 468 201 l 2,27,28
 473 201 473 201 476 216 c 1,29,-1
 479 216 l 1,30,31
 479 181 479 181 459 150 c 1,32,-1
 454 158 l 1,33,-1
 450 158 l 1,34,-1
 446 154 l 1,35,-1
 446 149 l 1,36,-1
 451 143 l 1,37,-1
 450 136 l 1,38,-1
 454 124 l 1,39,40
 454 114 454 114 431 100 c 1,41,-1
 431 102 l 1,42,-1
 434 107 l 1,43,-1
 434 108 l 1,44,-1
 431 111 l 1,45,-1
 424 111 l 1,46,47
 407 101 407 101 396 72 c 1,48,-1
 401 70 l 1,49,-1
 427 90 l 1,50,-1
 427 89 l 1,51,52
 401 51 401 51 375 42 c 1,53,54
 357 27 357 27 330 14 c 1,55,56
 312 -1 312 -1 250 -15 c 1,57,58
 250 -18 250 -18 230 -18 c 128,-1,59
 210 -18 210 -18 146 9 c 1,60,61
 106 9 106 9 46 142 c 1,62,63
 41.5 142 41.5 142 37 181 c 1,64,-1
 37 201 l 2,65,66
 37 270 37 270 59 313 c 1,67,68
 71 370 71 370 88 370 c 1,69,70
 88 383.5 88 383.5 118 418 c 2,71,-1
 130 432 l 1,72,-1
 130 436 l 1,73,74
 119 436 119 436 59 507 c 1,75,76
 26 603 26 603 26 622 c 1,77,78
 34 630 34 630 34 643 c 1,79,-1
 42 640 l 1,80,-1
 43 640 l 1,81,82
 49 642 49 642 49 650 c 2,83,-1
 49 657 l 1,84,-1
 45 662 l 1,85,-1
 42 662 l 1,86,-1
 39 653 l 1,87,-1
 35 654 l 1,88,-1
 35 657 l 1,89,90
 45 694 45 694 78 714 c 1,91,92
 90 745 90 745 125 759 c 0,93,94
 191 786 191 786 273 786 c 2,0,-1
88 699 m 1,95,-1
 90 698 l 1,96,-1
 91 698 l 2,97,98
 100 698 100 698 158 755 c 1,99,100
 162 755 162 755 162 759 c 1,101,-1
 160 759 l 2,102,103
 136 759 136 759 99 722 c 1,104,105
 91 709 91 709 88 699 c 1,95,-1
230 746 m 1,106,-1
 230 742 l 1,107,-1
 295 724 l 1,108,-1
 295 744 l 1,109,-1
 298 744 l 1,110,-1
 298 746 l 1,111,-1
 322 738 l 1,112,-1
 326 738 l 1,113,114
 326 752 326 752 273 752 c 1,115,116
 267 755 267 755 253 755 c 128,-1,117
 239 755 239 755 230 746 c 1,106,-1
140 716 m 1,118,-1
 143 716 l 1,119,120
 170 729.5 170 729.5 170 737 c 1,121,-1
 166 737 l 1,122,123
 147 729 147 729 140 716 c 1,118,-1
118 600 m 2,124,-1
 118 595 l 1,125,126
 120 554 120 554 188 472 c 1,127,-1
 202 462 l 1,128,-1
 203 462 l 1,129,-1
 217 466 l 1,130,-1
 227 466 l 2,131,132
 261 466 261 466 311 492 c 1,133,134
 327.5 502.5 327.5 502.5 350 546 c 1,135,136
 357 562 357 562 367 562 c 1,137,-1
 364 573 l 1,138,-1
 371 598 l 1,139,-1
 371 604 l 2,140,141
 371 606 371 606 362 608 c 1,142,-1
 334 681 l 1,143,144
 328 692 328 692 300 698 c 1,145,146
 290 711 290 711 217 731 c 1,147,148
 193 731 193 731 127 674 c 1,149,150
 118 652 118 652 118 600 c 2,124,-1
336 727 m 1,151,-1
 326 727 l 1,152,-1
 326 726 l 1,153,154
 329 718 329 718 338 718 c 2,155,-1
 339 718 l 1,156,-1
 342 720 l 1,157,158
 339 725 339 725 336 727 c 1,151,-1
357 707 m 1,159,-1
 357 705 l 1,160,161
 364 684 364 684 373 684 c 1,162,-1
 373 690 l 1,163,164
 367 707 367 707 357 707 c 1,159,-1
48 674 m 1,165,-1
 48 668 l 1,166,-1
 49 668 l 1,167,168
 65 672 65 672 65 690 c 2,169,-1
 65 696 l 1,170,-1
 60 696 l 2,171,172
 55 696 55 696 48 674 c 1,165,-1
54 621 m 1,173,174
 54 600 54 600 58 600 c 2,175,-1
 59 600 l 2,176,177
 70 600 70 600 73 614 c 1,178,-1
 73 629 l 2,179,180
 73 664 73 664 87 681 c 1,181,-1
 87 690 l 1,182,-1
 77 690 l 2,183,184
 70 690 70 690 67 656 c 1,185,186
 62 656 62 656 54 621 c 1,173,174
366 674 m 2,187,-1
 360 674 l 1,188,-1
 360 670 l 1,189,-1
 357 658 l 1,190,-1
 367 640 l 1,191,192
 367 630 367 630 371 626 c 1,193,-1
 370 618 l 1,194,-1
 370 617 l 1,195,-1
 371 617 l 1,196,-1
 375 621 l 1,197,-1
 375 640 l 2,198,199
 375 674 375 674 366 674 c 2,187,-1
99 619 m 1,200,-1
 102 617 l 1,201,202
 106 621 106 621 106 628 c 1,203,-1
 104 628 l 1,204,205
 99 626 99 626 99 619 c 1,200,-1
88 591 m 0,206,207
 95 539 95 539 121 506 c 1,208,209
 155 470 155 470 166 466 c 1,210,-1
 170 466 l 1,211,212
 170 469 170 469 138 513 c 1,213,214
 103 575 103 575 101 595 c 1,215,-1
 95 600 l 1,216,-1
 93 600 l 1,217,218
 88 598 88 598 88 591 c 0,206,207
390 597 m 1,219,-1
 386 600 l 1,220,221
 378 576 378 576 378 565 c 1,222,-1
 379 563 l 1,223,-1
 382 563 l 1,224,225
 390 566 390 566 390 578 c 2,226,-1
 390 597 l 1,219,-1
50 580 m 1,227,228
 55 548 55 548 82 500 c 1,229,230
 85 500 85 500 102 474 c 1,231,232
 126 447 126 447 146 447 c 2,233,-1
 153 447 l 1,234,-1
 153 449 l 2,235,236
 153 450.5 153 450.5 99 500 c 1,237,238
 77 525 77 525 77 534 c 1,239,240
 69 548 69 548 62 590 c 1,241,-1
 60 591 l 1,242,-1
 54 591 l 1,243,244
 50 590 50 590 50 580 c 1,227,228
319 478 m 1,245,-1
 319 477 l 1,246,-1
 321 477 l 2,247,248
 340 477 340 477 368 522 c 1,249,-1
 371 537 l 1,250,-1
 371 545 l 1,251,-1
 368 550 l 1,252,253
 361 549 361 549 342 506 c 1,254,255
 334 491 334 491 319 478 c 1,245,-1
270 460 m 1,256,-1
 272 458 l 1,257,-1
 278 458 l 2,258,259
 284 458 284 458 295 464 c 1,260,-1
 295 468 l 1,261,262
 281 468 281 468 270 460 c 1,256,-1
334 457 m 1,263,-1
 330 454 l 1,264,265
 344 447 344 447 357 447 c 1,266,-1
 358 449 l 1,267,-1
 358 453 l 1,268,-1
 354 457 l 1,269,-1
 334 457 l 1,263,-1
314 442 m 1,270,-1
 301 438 l 1,271,-1
 301 436 l 1,272,273
 306 431 306 431 350 415 c 1,274,275
 373 398 373 398 378 398 c 1,276,-1
 378 404 l 1,277,278
 351 442 351 442 314 442 c 1,270,-1
171 438 m 2,279,-1
 164 438 l 1,280,-1
 164 434 l 2,281,282
 164 430 164 430 182 429 c 1,283,-1
 192 429 l 1,284,-1
 194 432 l 1,285,286
 194 438 194 438 171 438 c 2,279,-1
254 438 m 1,287,-1
 216 438 l 1,288,-1
 216 434 l 1,289,-1
 218 432 l 1,290,-1
 222 432 l 2,291,292
 241 432 241 432 254 436 c 1,293,-1
 254 438 l 1,287,-1
78 342 m 1,294,-1
 82 342 l 2,295,296
 90 342 90 342 147 401 c 1,297,298
 151 401 151 401 162 415 c 1,299,-1
 162 416 l 1,300,301
 160.5 422 160.5 422 150 422 c 2,302,-1
 146 422 l 2,303,304
 129 422 129 422 97 378 c 1,305,306
 94 378 94 378 90 362 c 1,307,308
 78 350 78 350 78 342 c 1,294,-1
127 320 m 1,309,-1
 129 318 l 1,310,-1
 129 317 l 1,311,-1
 136 318 l 1,312,-1
 138 315 l 1,313,314
 106 246 106 246 106 230 c 2,315,-1
 106 227 l 2,316,317
 106 113 106 113 143 86 c 1,318,319
 189 42 189 42 220 42 c 2,320,-1
 230 42 l 1,321,-1
 233 46 l 1,322,323
 231 49 231 49 192 66 c 1,324,325
 156 89 156 89 147 100 c 1,326,-1
 147 102 l 1,327,-1
 149 102 l 1,328,-1
 207 69 l 1,329,330
 276 46 276 46 294 46 c 2,331,-1
 298 46 l 2,332,333
 305 46 305 46 334 72 c 1,334,-1
 334 66 l 1,335,336
 367 78 367 78 386 114 c 1,337,-1
 390 130 l 1,338,-1
 390 132 l 1,339,-1
 375 125 l 1,340,-1
 375 126 l 1,341,342
 401 164 401 164 401 178 c 0,343,344
 401 219 401 219 390 258 c 1,345,-1
 390 270 l 2,346,347
 390 286 390 286 381 331 c 1,348,-1
 381 332 l 1,349,-1
 385 334 l 1,350,-1
 394 328 l 1,351,-1
 395 330 l 1,352,-1
 395 335 l 2,353,354
 395 348 395 348 386 352 c 1,355,-1
 382 352 l 1,356,-1
 382 341 l 1,357,-1
 379 341 l 1,358,359
 375 342 375 342 364 373 c 1,360,361
 331 419 331 419 272 419 c 1,362,363
 158 400 158 400 158 369 c 0,364,365
 158 333 158 333 127 320 c 1,309,-1
97 326 m 1,366,367
 104 326 104 326 112 337 c 1,368,-1
 112 339 l 1,369,-1
 110 339 l 2,370,371
 98 339 98 339 97 326 c 1,366,367
73 261 m 0,372,373
 73 255 73 255 87 253 c 1,374,375
 97 253 97 253 105 276 c 1,376,-1
 105 282 l 2,377,378
 105 286 105 286 91 286 c 1,379,-1
 90 287 l 1,380,-1
 90 289 l 2,381,382
 90 292 90 292 101 292 c 0,383,384
 106 292 106 292 112 307 c 1,385,-1
 112 309 l 1,386,-1
 110 311 l 1,387,388
 102 311 102 311 95 307 c 1,389,-1
 94 309 l 1,390,-1
 95 310 l 1,391,-1
 95 311 l 1,392,-1
 94 318 l 1,393,-1
 87 318 l 2,394,395
 73 318 73 318 73 261 c 0,372,373
441 289 m 1,396,397
 438 307 438 307 434 307 c 128,-1,398
 430 307 430 307 430.5 292.5 c 128,-1,399
 431 278 431 278 437 276 c 0,400,401
 440 276 440 276 441 289 c 1,396,397
413 250 m 2,402,-1
 413 246 l 1,403,-1
 416 233 l 1,404,-1
 412 229 l 1,405,-1
 412 223 l 2,406,407
 412 215.5 412 215.5 418 214 c 1,408,-1
 423 214 l 1,409,410
 431 219 431 219 431 226 c 2,411,-1
 431 230 l 1,412,413
 425 270 425 270 420 270 c 2,414,-1
 418 270 l 2,415,416
 413 270 413 270 413 250 c 2,402,-1
50 167 m 1,417,418
 78 106 78 106 91 91 c 1,419,-1
 93 91 l 1,420,-1
 93 93 l 1,421,-1
 69 198 l 2,422,423
 65 215 65 215 65 234 c 1,424,-1
 67 257 l 1,425,-1
 66 258 l 1,426,-1
 60 258 l 2,427,428
 53 258 53 258 50 167 c 1,417,418
459 182 m 1,429,-1
 461 181 l 1,430,-1
 462 181 l 1,431,432
 468 182.5 468 182.5 468 190 c 1,433,-1
 466 190 l 2,434,435
 462 190 462 190 459 182 c 1,429,-1
433 138 m 1,436,-1
 429 134 l 1,437,-1
 429 128 l 1,438,-1
 430 128 l 1,439,-1
 434 132 l 1,440,-1
 434 138 l 1,441,-1
 433 138 l 1,436,-1
353 100 m 1,442,-1
 358 106 l 1,443,-1
 360 106 l 1,444,-1
 360 102 l 1,445,-1
 354 97 l 1,446,-1
 353 97 l 1,447,-1
 353 100 l 1,442,-1
345 86 m 1,448,-1
 345 89 l 1,449,-1
 349 89 l 1,450,-1
 349 86 l 1,451,-1
 345 86 l 1,448,-1
116 78 m 1,452,-1
 112 78 l 1,453,-1
 112 62 l 2,454,455
 112 43 112 43 143 34 c 1,456,-1
 146 34 l 1,457,-1
 149 37 l 1,458,459
 142 55 142 55 116 78 c 1,452,-1
254 41 m 1,460,-1
 244 40 l 1,461,-1
 244 37 l 1,462,-1
 246 34 l 1,463,-1
 258 34 l 2,464,465
 265 34 265 34 266 38 c 1,466,-1
 266 40 l 1,467,-1
 259 41 l 1,468,-1
 254 41 l 1,460,-1
168 29 m 1,469,-1
 164 27 l 1,470,-1
 164 24 l 1,471,472
 180 3 180 3 231 3 c 1,473,474
 246 4 246 4 246 7 c 2,475,-1
 246 10 l 1,476,477
 229 10 229 10 172 29 c 1,478,-1
 168 29 l 1,469,-1
262 12 m 2,479,-1
 262 9 l 1,480,-1
 263 9 l 2,481,482
 278 9 278 9 298 23 c 1,483,-1
 298 26 l 1,484,-1
 297 26 l 1,485,486
 262 18 262 18 262 12 c 2,479,-1
EndSplineSet
EndChar

StartChar: nine
Encoding: 57 57 28
Width: 510
Flags: W
HStem: -50 20<126.407 140.312> -41 13<151.25 170> -20 24<158 169.875> 42 21<125 128.441> 80 1<153 156.176> 238 11<434 437> 276 17<291 294> 525 9<57.2358 65.542> 548 20G<434 441> 661 30<332.35 357> 665 9<258 295> 680 20<183.599 203> 710 15<183.375 225.949 235 258 330 352.905>
VStem: 14 16<538 555.617> 34 26<418.469 445.998> 42 14<543 555.875> 198 11<28.4004 33.7188> 355 5<235 241> 383 20<254.09 262.966> 403 24<555.135 574.161> 434 18<226 238> 450 39<399.801 462.995> 463 26<467.095 494.347>
LayerCount: 2
Fore
SplineSet
222 725 m 1,0,-1
 237 726 l 1,1,2
 378 724 378 724 378 710 c 1,3,4
 422 681 422 681 422 669 c 1,5,6
 396 687 396 687 390 687 c 2,7,-1
 385 687 l 1,8,-1
 385 686 l 1,9,10
 387 675 387 675 428 644 c 1,11,-1
 431 644 l 1,12,-1
 428 657 l 1,13,-1
 430 657 l 1,14,15
 452 630 452 630 466 568 c 2,16,-1
 489 461 l 1,17,-1
 489 445 l 1,18,19
 478 329 478 329 472 329 c 1,20,21
 466 301 466 301 452 259 c 1,22,23
 452 230 452 230 437 213 c 1,24,-1
 434 215 l 1,25,-1
 434 220 l 1,26,-1
 438 226 l 1,27,-1
 437 238 l 1,28,-1
 434 238 l 1,29,-1
 403 198 l 1,30,31
 379 186 379 186 379 176 c 0,32,33
 379 171 379 171 386 168 c 1,34,-1
 389 168 l 2,35,36
 401 168 401 168 431 206 c 1,37,-1
 433 206 l 1,38,-1
 434 204 l 1,39,-1
 435 204 l 1,40,41
 435 173 435 173 346 101 c 1,42,43
 306 75 306 75 254 34 c 0,44,45
 249 30 249 30 241 13 c 1,46,47
 177 -41 177 -41 170 -41 c 0,48,49
 150 -41 150 -41 130 -50 c 1,50,51
 118 -50 118 -50 95 24 c 1,52,-1
 105 36 l 1,53,-1
 98 45 l 1,54,-1
 98 46 l 1,55,-1
 110 63 l 1,56,-1
 126 63 l 1,57,58
 146 80 146 80 151 80 c 1,59,60
 146 73 146 73 146 70 c 1,61,-1
 147 70 l 1,62,-1
 148 69 l 1,63,-1
 150 69 l 1,64,65
 155 70 155 70 157 74 c 1,66,-1
 157 80 l 1,67,-1
 153 80 l 1,68,-1
 153 81 l 1,69,70
 177 83 177 83 246 140 c 1,71,72
 322.5 194 322.5 194 333.25 207 c 128,-1,73
 344 220 344 220 366 234 c 1,74,75
 383 256 383 256 383 262 c 2,76,-1
 383 263 l 1,77,-1
 379 263 l 1,78,-1
 371 262 l 1,79,-1
 366 263 l 1,80,81
 396 327.5 396 327.5 396 338 c 2,82,-1
 396 343 l 1,83,-1
 392 347 l 1,84,-1
 390 347 l 2,85,86
 384 347 384 347 319 287 c 1,87,88
 294 276 294 276 224 276 c 1,89,-1
 193 287 l 1,90,91
 138 297 138 297 120 318 c 0,92,93
 34 419 34 419 34 454 c 1,94,95
 14 496 14 496 14 526 c 2,96,-1
 14 536 l 2,97,98
 14 567.5 14 567.5 53 623 c 1,99,100
 53 632 53 632 84 679 c 1,101,102
 142 725 142 725 222 725 c 1,0,-1
203 710 m 1,103,-1
 183 710 l 1,104,-1
 183 707 l 2,105,106
 183 701 183 701 226 700 c 1,107,-1
 226 702 l 2,108,109
 226 708 226 708 203 710 c 1,103,-1
330 710 m 1,110,-1
 327 707 l 1,111,112
 331 691 331 691 357 691 c 1,113,-1
 360 696 l 1,114,115
 351 710 351 710 334 710 c 2,116,-1
 330 710 l 1,110,-1
239 706 m 1,117,-1
 235 706 l 1,118,119
 254 690 254 690 319 674 c 1,120,-1
 326 674 l 1,121,122
 326 684 326 684 258 704 c 1,123,-1
 239 706 l 1,117,-1
122 674 m 1,124,-1
 122 672 l 2,125,126
 122 669 122 669 126 669 c 1,127,128
 136 675 136 675 146 686 c 1,129,-1
 144 687 l 1,130,-1
 142 687 l 1,131,132
 126 680 126 680 122 674 c 1,124,-1
372 683 m 1,133,-1
 370 680 l 1,134,-1
 370 679 l 1,135,-1
 372 679 l 1,136,-1
 375 682 l 1,137,-1
 375 683 l 1,138,-1
 372 683 l 1,133,-1
161 670 m 1,139,-1
 161 669 l 1,140,-1
 162 669 l 2,141,142
 183 669 183 669 203 674 c 1,143,-1
 203 679 l 1,144,-1
 192 680 l 1,145,146
 170 680 170 680 161 670 c 1,139,-1
109 601 m 1,147,-1
 88 489 l 1,148,-1
 88 476 l 1,149,150
 90 471 90 471 102 466 c 1,151,152
 114 420 114 420 127 411 c 1,153,154
 218 358 218 358 239 358 c 2,155,-1
 242 358 l 1,156,157
 306 377 306 377 333 407 c 1,158,-1
 366 461 l 1,159,160
 403 489 403 489 403 517 c 2,161,-1
 403 519 l 2,162,163
 403 594 403 594 333 634 c 1,164,165
 295 665 295 665 274 665 c 1,166,-1
 258 668 l 1,167,168
 248 662 248 662 193 651 c 1,169,170
 109 620 109 620 109 601 c 1,147,-1
101 646 m 1,171,-1
 105 641 l 1,172,-1
 106 641 l 1,173,174
 120 650 120 650 120 658 c 2,175,-1
 120 661 l 1,176,-1
 114 661 l 1,177,178
 101 658 101 658 101 646 c 1,171,-1
336 661 m 1,179,-1
 332 661 l 1,180,181
 332 647 332 647 364 635 c 1,182,-1
 366 637 l 1,183,-1
 366 638 l 2,184,185
 366 646 366 646 336 661 c 1,179,-1
95 631 m 1,186,-1
 92 629 l 1,187,-1
 92 627 l 1,188,-1
 95 624 l 1,189,-1
 99 629 l 1,190,-1
 95 631 l 1,186,-1
58 575 m 2,191,-1
 58 564 l 1,192,-1
 60 562 l 1,193,-1
 56 553 l 1,194,-1
 56 543 l 1,195,196
 58 534 58 534 60 534 c 2,197,-1
 62 534 l 2,198,199
 69 534 69 534 71 590 c 1,200,-1
 70 594 l 1,201,-1
 67 594 l 1,202,203
 58 586 58 586 58 575 c 2,191,-1
426 594 m 1,204,-1
 422 594 l 1,205,-1
 422 590 l 1,206,-1
 427 577 l 1,207,-1
 427 562 l 1,208,-1
 433 543 l 1,209,-1
 430 536 l 1,210,-1
 439 518 l 1,211,-1
 438 512 l 1,212,213
 442 508 442 508 448 467 c 1,214,-1
 458 467 l 1,215,216
 463 470 463 470 463 478 c 2,217,-1
 463 480 l 2,218,219
 463 547 463 547 446 547 c 1,220,-1
 434 564 l 1,221,-1
 434 568 l 1,222,-1
 437 568 l 1,223,-1
 441 566 l 1,224,-1
 444 566 l 1,225,-1
 444 568 l 2,226,227
 444 578 444 578 426 594 c 1,204,-1
30 543 m 1,228,-1
 30 538 l 1,229,-1
 34 534 l 1,230,-1
 36 534 l 1,231,232
 42 537 42 537 42 547 c 2,233,-1
 42 556 l 1,234,-1
 38 556 l 2,235,236
 34 556 34 556 30 543 c 1,228,-1
60 525 m 1,237,238
 54 524 54 524 54 505 c 128,-1,239
 54 486 54 486 60 486 c 1,240,-1
 67 512 l 1,241,242
 66 525 66 525 62 525 c 2,243,-1
 60 525 l 1,237,238
437 437 m 1,244,-1
 439 398 l 1,245,-1
 444 398 l 1,246,247
 449 412 449 412 450 442 c 1,248,249
 448 463 448 463 442.5 463 c 128,-1,250
 437 463 437 463 437 437 c 1,244,-1
63 446 m 0,251,252
 60 446 60 446 60 438 c 128,-1,253
 60 430 60 430 78 398 c 1,254,-1
 82 398 l 1,255,-1
 82 400 l 1,256,-1
 81 410 l 1,257,-1
 82 411 l 1,258,-1
 91 411 l 1,259,-1
 91 413 l 1,260,261
 76 446 76 446 63 446 c 0,251,252
92 390 m 1,262,-1
 90 390 l 1,263,-1
 90 386 l 1,264,265
 102 370 102 370 114 370 c 2,266,-1
 116 370 l 1,267,-1
 116 371 l 1,268,-1
 92 390 l 1,262,-1
120 349 m 2,269,-1
 116 349 l 1,270,-1
 116 343 l 1,271,272
 129 336 129 336 137 336 c 2,273,-1
 142 336 l 1,274,-1
 142 338 l 1,275,276
 134 349 134 349 120 349 c 2,269,-1
297 297 m 1,277,-1
 291 297 l 1,278,-1
 291 293 l 1,279,-1
 294 293 l 1,280,-1
 297 295 l 1,281,-1
 297 297 l 1,277,-1
433 250 m 1,282,-1
 434 249 l 1,283,-1
 435 249 l 2,284,285
 441 249 441 249 450 277 c 1,286,-1
 450 278 l 1,287,-1
 448 278 l 2,288,289
 440 278 440 278 433 250 c 1,282,-1
403 258 m 1,290,-1
 403 254 l 1,291,-1
 405 254 l 2,292,293
 416 254 416 254 416 266 c 2,294,-1
 416 267 l 1,295,-1
 413 267 l 1,296,297
 406 264 406 264 403 258 c 1,290,-1
355 241 m 1,298,-1
 366 254 l 1,299,300
 360 240 360 240 360 235 c 1,301,-1
 355 235 l 1,302,-1
 355 241 l 1,298,-1
306 105 m 1,303,-1
 306 103 l 1,304,-1
 308 102 l 1,305,-1
 310 102 l 1,306,307
 338 115 338 115 377 151 c 1,308,-1
 377 154 l 1,309,-1
 374 154 l 1,310,311
 351.5 149.5 351.5 149.5 308 106 c 1,312,-1
 306 105 l 1,303,-1
262 126 m 1,313,-1
 262 123 l 1,314,315
 270 123 270 123 277 133 c 1,316,-1
 276 134 l 1,317,-1
 274 134 l 1,318,319
 263 129 263 129 262 126 c 1,313,-1
209 32 m 1,320,-1
 209 28 l 1,321,-1
 210 28 l 1,322,323
 235 38 235 38 235 50 c 2,324,-1
 235 52 l 1,325,-1
 234 52 l 1,326,327
 215 46 215 46 209 32 c 1,320,-1
125 42 m 1,328,-1
 122 39 l 1,329,-1
 125 36 l 1,330,-1
 129 41 l 1,331,-1
 129 42 l 1,332,-1
 125 42 l 1,328,-1
154 7 m 1,333,-1
 158 4 l 1,334,335
 178 4 178 4 198 30 c 1,336,-1
 198 34 l 1,337,-1
 196 34 l 2,338,339
 179.5 34 179.5 34 154 7 c 1,333,-1
126 -18 m 2,340,-1
 126 -30 l 1,341,-1
 130 -30 l 1,342,343
 142 -22 142 -22 142 -14 c 2,344,-1
 142 -13 l 1,345,-1
 137 -7 l 1,346,347
 126 -7 126 -7 126 -18 c 2,340,-1
151 -26 m 2,348,-1
 151 -28 l 1,349,-1
 155 -28 l 1,350,-1
 170 -24 l 1,351,-1
 170 -20 l 1,352,-1
 165 -20 l 1,353,354
 151 -22 151 -22 151 -26 c 2,348,-1
EndSplineSet
EndChar

StartChar: colon
Encoding: 58 58 29
Width: 227
Flags: W
HStem: 65 50<100.286 149.281> 191 15<86.2119 106> 376 53<117.156 140.261> 496 16<112.243 143.672>
VStem: 42 37<442 462> 72 11<177 185.621> 150 24<117.511 142 435.206 451 481 495.231>
LayerCount: 2
Fore
SplineSet
133 533 m 0,0,1
 174 533 174 533 180 481 c 1,2,3
 180 453 180 453 146 404 c 1,4,5
 119 376 119 376 106 376 c 0,6,7
 69 376 69 376 42 428 c 1,8,-1
 42 434 l 1,9,10
 54 493 54 493 66 510 c 1,11,12
 107 533 107 533 133 533 c 0,0,1
130 522 m 1,13,-1
 109 518 l 1,14,-1
 109 513 l 1,15,-1
 116 512 l 1,16,-1
 133 512 l 2,17,18
 143 512 143 512 144 516 c 0,19,20
 144 520 144 520 130 522 c 1,13,-1
82 503 m 1,21,-1
 79 501 l 1,22,-1
 79 496 l 1,23,-1
 82 496 l 1,24,-1
 85 499 l 1,25,-1
 85 501 l 1,26,-1
 82 503 l 1,21,-1
107 474 m 1,27,-1
 107 470 l 2,28,29
 107 468 107 468 122 466 c 1,30,31
 126.5 457 126.5 457 137 457 c 1,32,-1
 137 453 l 2,33,34
 137 449 137 449 118 445 c 1,35,-1
 117 440 l 1,36,37
 122 430 122 430 126 429 c 1,38,-1
 128 429 l 1,39,40
 145 434 145 434 145 450 c 2,41,-1
 145 451 l 1,42,-1
 134 477 l 1,43,-1
 138 479 l 1,44,-1
 146 478 l 1,45,-1
 150 481 l 1,46,-1
 150 482 l 2,47,48
 150 496 150 496 130 496 c 128,-1,49
 110 496 110 496 107 474 c 1,27,-1
82 466 m 1,50,-1
 79 462 l 1,51,-1
 79 453 l 2,52,53
 79 442 79 442 83 442 c 2,54,-1
 85 442 l 1,55,-1
 85 462 l 1,56,-1
 82 466 l 1,50,-1
105 206 m 1,57,-1
 128 206 l 2,58,59
 161 206 161 206 174 166 c 1,60,-1
 174 162 l 1,61,62
 168 107 168 107 158 98 c 1,63,64
 134 65 134 65 118 65 c 1,65,66
 90 71 90 71 75 90 c 1,67,68
 61 116 61 116 61 126 c 1,69,-1
 72 174 l 1,70,71
 72 198 72 198 105 206 c 1,57,-1
83 180 m 1,72,-1
 83 177 l 1,73,-1
 85 177 l 2,74,75
 95 177 95 177 106 188 c 1,76,-1
 106 191 l 1,77,-1
 102 191 l 2,78,79
 91 191 91 191 83 180 c 1,72,-1
134 173 m 1,80,-1
 131 170 l 1,81,-1
 131 169 l 2,82,83
 131 156 131 156 138 156 c 1,84,85
 142 160 142 160 141.5 166.5 c 128,-1,86
 141 173 141 173 138 173 c 2,87,-1
 134 173 l 1,80,-1
114 166 m 1,88,89
 107 159 107 159 107 154 c 2,90,-1
 107 150 l 1,91,-1
 110 148 l 1,92,-1
 122 148 l 1,93,-1
 124 150 l 1,94,-1
 124 154 l 2,95,96
 124 163 124 163 114 166 c 1,88,89
150 131 m 2,97,-1
 150 142 l 1,98,-1
 146 142 l 1,99,100
 132 128 132 128 124 128 c 2,101,-1
 102 130 l 1,102,-1
 100 126 l 1,103,104
 105 115 105 115 113 115 c 2,105,-1
 122 115 l 2,106,107
 150 115 150 115 150 131 c 2,97,-1
EndSplineSet
EndChar

StartChar: semicolon
Encoding: 59 59 30
Width: 227
Flags: W
HStem: -26 39<158.203 165.947> 147 14<110.389 143.576> 411 19<114 127> 442 10<142.088 145.819> 540 20G<107 137.5>
VStem: 39 41<63.4973 86 106 119.843 500 526.296> 45 21<456.269 491> 78 34<486 496.899> 116 24<-80 -45.5312 19 29.8743> 116 14<-40.6953 -28.1257> 125 29<482.45 495>
LayerCount: 2
Fore
SplineSet
116 560 m 1,0,1
 159 547 159 547 174 521 c 1,2,3
 181 492 181 492 181 476 c 1,4,5
 170 437 170 437 162 430 c 0,6,7
 143 413 143 413 127 410 c 1,8,-1
 119 411 l 1,9,-1
 114 411 l 1,10,-1
 114 410 l 1,11,-1
 119 405 l 1,12,-1
 119 403 l 1,13,-1
 114 403 l 2,14,15
 81 403 81 403 54 441 c 1,16,17
 45 457 45 457 45 486.75 c 128,-1,18
 45 516.5 45 516.5 63 536 c 1,19,20
 98 560 98 560 116 560 c 1,0,1
81 504 m 2,21,-1
 81 500 l 1,22,23
 95 500 95 500 123 528 c 1,24,-1
 123 532 l 1,25,-1
 119 534 l 1,26,27
 81 522 81 522 81 504 c 2,21,-1
154 508 m 1,28,29
 154 494.5 154 494.5 142 454 c 1,30,-1
 142 452 l 1,31,32
 156 452 156 452 164 484 c 1,33,-1
 164 497 l 2,34,35
 164 508 164 508 154 508 c 1,28,29
112 486 m 1,36,-1
 114 482 l 1,37,-1
 118 482 l 1,38,39
 125 485 125 485 125 493 c 2,40,-1
 125 495 l 1,41,-1
 122 498 l 1,42,-1
 118 498 l 1,43,44
 112 496.5 112 496.5 112 486 c 1,36,-1
71 497 m 1,45,-1
 66 491 l 1,46,-1
 66 476 l 2,47,48
 66 462 66 462 75 456 c 1,49,-1
 77 456 l 1,50,-1
 78 463 l 1,51,52
 78 494 78 494 71 497 c 1,45,-1
99 461 m 1,53,-1
 98 461 l 1,54,-1
 98 458 l 1,55,-1
 101 455 l 1,56,-1
 102 455 l 1,57,-1
 102 458 l 1,58,-1
 99 461 l 1,53,-1
114 434 m 1,59,-1
 114 430 l 1,60,-1
 119 430 l 1,61,62
 146 434 146 434 146 441 c 2,63,-1
 146 442 l 1,64,-1
 144 442 l 2,65,66
 132 442 132 442 114 434 c 1,59,-1
129 161 m 1,67,68
 154 161 154 161 162 138 c 1,69,70
 175 138 175 138 179 123 c 1,71,72
 165 98 165 98 165 90 c 1,73,-1
 166 88 l 1,74,-1
 170 88 l 2,75,76
 174.5 88 174.5 88 182 112 c 1,77,-1
 186 112 l 2,78,79
 196 112 196 112 196 52 c 1,80,81
 180 -60 180 -60 165 -60 c 2,82,-1
 162 -60 l 1,83,-1
 161 -56 l 1,84,-1
 166 -26 l 1,85,-1
 165 -26 l 2,86,87
 158 -26 158 -26 140 -76 c 1,88,-1
 140 -80 l 1,89,-1
 142 -82 l 1,90,-1
 155 -74 l 1,91,92
 129 -113 129 -113 101 -123 c 1,93,-1
 95 -119 l 1,94,95
 116 -63.5 116 -63.5 116 -26 c 2,96,-1
 116 -22 l 2,97,98
 116 30 116 30 108 30 c 0,99,100
 39 38 39 38 39 91 c 0,101,102
 39 149 39 149 129 161 c 1,67,68
109 142 m 128,-1,104
 109 138 109 138 126 136 c 1,105,-1
 136 136 l 2,106,107
 143 136 143 136 144 140 c 1,108,109
 144 146 144 146 122 147 c 1,110,-1
 118 147 l 1,111,103
 109 146 109 146 109 142 c 128,-1,104
78 106 m 1,112,-1
 82 105 l 1,113,114
 94 109 94 109 97 116 c 1,115,-1
 97 120 l 1,116,-1
 95 120 l 1,117,118
 78 115 78 115 78 106 c 1,112,-1
106 92 m 1,119,-1
 109 92 l 1,120,121
 120 103 120 103 120 112 c 1,122,123
 106 107 106 107 106 92 c 1,119,-1
81 86 m 1,124,-1
 80 86 l 1,125,-1
 80 82 l 1,126,127
 88 69 88 69 102 62 c 1,128,-1
 106 62 l 1,129,-1
 106 64 l 1,130,131
 93 84 93 84 81 86 c 1,124,-1
157 50 m 1,132,-1
 154 50 l 1,133,-1
 154 46 l 1,134,-1
 157 46 l 1,135,-1
 157 50 l 1,132,-1
136 19 m 1,136,-1
 142 19 l 2,137,138
 150 19 150 19 150 28 c 2,139,-1
 150 30 l 1,140,-1
 146 30 l 1,141,142
 136 26 136 26 136 19 c 1,136,-1
165 25 m 1,143,-1
 158 18 l 1,144,-1
 158 13 l 1,145,146
 168 13 168 13 168 24 c 2,147,-1
 168 25 l 1,148,-1
 165 25 l 1,143,-1
127 -39 m 1,149,-1
 130 -39 l 1,150,-1
 130 -41 l 1,151,152
 142 -31 142 -31 150 -7 c 1,153,-1
 150 -6 l 1,154,-1
 147 -3 l 1,155,156
 142 -5 142 -5 133 -28 c 1,157,158
 127 -32 127 -32 127 -39 c 1,149,-1
EndSplineSet
EndChar

StartChar: less
Encoding: 60 60 31
Width: 314
Flags: W
HStem: 103 11<210.796 221.491> 402 41<219.174 240.833> 422 6<254.115 258>
VStem: 241 32<383.432 402>
LayerCount: 2
Fore
SplineSet
233 443 m 1,0,1
 251 428 251 428 258 428 c 1,2,-1
 258 422 l 1,3,4
 254 422 254 422 254 419 c 1,5,-1
 258 415 l 1,6,-1
 261 415 l 1,7,-1
 266 417 l 1,8,9
 270 417 270 417 273 410 c 1,10,11
 273 389 273 389 170 301 c 1,12,13
 155 294 155 294 155 284 c 2,14,-1
 155 281 l 2,15,16
 155 268 155 268 183 240 c 1,17,18
 231 181 231 181 280 126 c 1,19,-1
 280 122 l 1,20,21
 268 122 268 122 220 103 c 1,22,23
 201 103 201 103 146 173 c 1,24,25
 52 273 52 273 52 286 c 1,26,-1
 49 290 l 1,27,-1
 49 292 l 1,28,-1
 50 294 l 1,29,-1
 50 295 l 1,30,31
 66 286 66 286 73 286 c 1,32,-1
 93 320 l 1,33,-1
 93 323 l 1,34,-1
 60 318 l 1,35,-1
 59 318 l 1,36,-1
 59 320 l 1,37,38
 98 356 98 356 178 413 c 1,39,40
 211 442 211 442 233 443 c 1,0,1
216 374 m 1,41,-1
 216 370 l 1,42,43
 230 370 230 370 241 396 c 1,44,-1
 241 402 l 1,45,-1
 238 402 l 2,46,47
 226 402 226 402 216 374 c 1,41,-1
189 379 m 1,48,-1
 189 374 l 1,49,-1
 194 374 l 1,50,51
 209 377 209 377 209 382 c 2,52,-1
 209 383 l 1,53,-1
 206 386 l 1,54,-1
 200 386 l 2,55,56
 193 386 193 386 189 379 c 1,48,-1
119 358 m 1,57,-1
 121 358 l 1,58,59
 138 363 138 363 138 374 c 1,60,61
 126 374 126 374 119 358 c 1,57,-1
157 334 m 1,62,-1
 158 333 l 1,63,-1
 160 333 l 1,64,65
 169 334 169 334 185 355 c 1,66,-1
 185 359 l 1,67,-1
 179 359 l 1,68,69
 157 343 157 343 157 334 c 1,62,-1
203 169 m 1,70,-1
 200 166 l 1,71,72
 207 150 207 150 216 144 c 1,73,-1
 218 146 l 1,74,-1
 218 154 l 1,75,76
 213.5 163 213.5 163 203 169 c 1,70,-1
211 128 m 1,77,-1
 209 128 l 1,78,-1
 209 122 l 1,79,80
 212 114 212 114 220 114 c 2,81,-1
 222 114 l 1,82,-1
 222 116 l 2,83,84
 222 123 222 123 211 128 c 1,77,-1
EndSplineSet
EndChar

StartChar: equal
Encoding: 61 61 32
Width: 478
Flags: W
HStem: 149.238 12.2913<138.553 242.07 319.836 399.921> 154 8.84615<140.941 193.847 196.32 274.668 324.041 386.435> 173 21.6667<339.359 399.989> 205 20<339.059 357.874 380 397> 226 20<219 255 270.064 285 330.037 358> 289.325 12.7135<353.437 401.928> 314 21.7333<344.359 401.977> 318 6.85714<139.225 155.856> 337.019 35.708<170.567 241.955> 348.273 16.7273<387 404>
VStem: 92.6863 16.3137<202 206> 255 15<221 224.359> 400 20.7692<161.59 172.844 194.75 202>
LayerCount: 2
Fore
SplineSet
413 244 m 1,0,-1
 418 243 l 2,1,2
 420.769230769 242.538461538 420.769230769 242.538461538 420.769230769 222.192307692 c 128,-1,3
 420.769230769 201.846153846 420.769230769 201.846153846 417 155 c 1,4,-1
 418 155 l 1,5,6
 417.476190476 149.238095238 417.476190476 149.238095238 387.380952381 149.238095238 c 128,-1,7
 357.285714286 149.238095238 357.285714286 149.238095238 303 154 c 1,8,9
 234.615384615 150.230769231 234.615384615 150.230769231 195.076923077 150.230769231 c 128,-1,10
 155.538461538 150.230769231 155.538461538 150.230769231 138 153 c 1,11,-1
 138 155 l 2,12,13
 138.769230769 162.692307692 138.769230769 162.692307692 175.423076923 162.692307692 c 128,-1,14
 212.076923077 162.692307692 212.076923077 162.692307692 243.038461538 162.846153846 c 128,-1,15
 274 163 274 163 276 169 c 1,16,-1
 277 170 l 1,17,-1
 266 172 l 1,18,19
 225.384615385 175.692307692 225.384615385 175.692307692 196.887573964 175.692307692 c 0,20,21
 132.769230769 175.692307692 132.769230769 175.692307692 130 157 c 1,22,-1
 121 154 l 1,23,24
 92.6862745098 158.470588235 92.6862745098 158.470588235 92.6862745098 202.91349481 c 0,25,26
 92.6862745098 218.117647059 92.6862745098 218.117647059 95.5931372549 236.392156863 c 128,-1,27
 98.5 254.666666667 98.5 254.666666667 159.333333333 254.666666667 c 0,28,29
 171.5 254.666666667 171.5 254.666666667 186 254 c 1,30,31
 186 256 186 256 198 255 c 1,32,-1
 219 247 l 1,33,-1
 229 246 l 1,34,-1
 413 244 l 1,0,-1
388 230 m 1,35,-1
 381 229 l 1,36,-1
 380 226 l 1,37,-1
 390 225 l 1,38,-1
 397 225 l 1,39,-1
 398 228 l 1,40,-1
 388 230 l 1,35,-1
330 224 m 1,41,-1
 344 222 l 2,42,43
 354 221 354 221 358 226 c 1,44,-1
 358 227 l 1,45,-1
 355 227 l 1,46,47
 331 228 331 228 330 224 c 1,41,-1
270 224 m 1,48,-1
 270 221 l 1,49,-1
 272 221 l 1,50,51
 282 220 282 220 285 224 c 1,52,-1
 285 226 l 1,53,-1
 280 226 l 1,54,55
 272 227 272 227 270 224 c 1,48,-1
339 200 m 1,56,-1
 362 196 l 2,57,58
 374 194.666666667 374 194.666666667 386.833333333 194.666666667 c 128,-1,59
 399.666666667 194.666666667 399.666666667 194.666666667 403 200 c 1,60,-1
 403 202 l 1,61,-1
 398 205 l 1,62,63
 389.857142857 205.142857143 389.857142857 205.142857143 365.285714286 205.142857143 c 128,-1,64
 340.714285714 205.142857143 340.714285714 205.142857143 339 200 c 1,56,-1
255 223 m 1,65,66
 250 224.666666667 250 224.666666667 240.166666667 224.666666667 c 128,-1,67
 230.333333333 224.666666667 230.333333333 224.666666667 217 222 c 1,68,-1
 216 218 l 1,69,-1
 218 218 l 1,70,71
 225.333333333 216.666666667 225.333333333 216.666666667 235.166666667 216.666666667 c 128,-1,72
 245 216.666666667 245 216.666666667 255 222 c 1,73,-1
 255 223 l 1,65,66
111 221 m 1,74,-1
 115 217 l 1,75,76
 119 217 119 217 123 230 c 1,77,-1
 123 234 l 1,78,-1
 122 238 l 1,79,-1
 118 238 l 1,80,-1
 114 234 l 1,81,-1
 111 221 l 1,74,-1
152 233 m 1,82,-1
 147 229 l 1,83,-1
 146 228 l 1,84,-1
 152 227 l 1,85,-1
 155 229 l 1,86,-1
 156 232 l 1,87,-1
 152 233 l 1,82,-1
318 202 m 1,88,-1
 315 202 l 1,89,-1
 315 200 l 1,90,-1
 321 198 l 1,91,-1
 318 202 l 1,88,-1
299 171 m 1,92,-1
 299 170 l 1,93,-1
 300 170 l 1,94,95
 369.176470588 161.529411765 369.176470588 161.529411765 384.294117647 161.529411765 c 128,-1,96
 399.411764706 161.529411765 399.411764706 161.529411765 400 163 c 2,97,-1
 400 165 l 2,98,99
 400 168 400 168 394 173 c 1,100,-1
 393 173 l 1,101,102
 376.333333333 175.083333333 376.333333333 175.083333333 353.416666667 175.083333333 c 128,-1,103
 330.5 175.083333333 330.5 175.083333333 299 171 c 1,92,-1
112 208 m 1,104,-1
 109 206 l 1,105,-1
 109 202 l 1,106,-1
 111 202 l 1,107,-1
 114 205 l 1,108,-1
 115 207 l 1,109,-1
 112 208 l 1,104,-1
158.102040816 324.857142857 m 1,110,-1
 250.16 317.8 l 1,111,112
 277.2 317.8 277.2 317.8 278 321 c 2,113,-1
 278 322 l 1,114,-1
 268 325 l 1,115,116
 205.980769231 337.019230769 205.980769231 337.019230769 170.567307692 337.019230769 c 128,-1,117
 135.153846154 337.019230769 135.153846154 337.019230769 131 323 c 1,118,-1
 122 321 l 1,119,120
 99.3148148148 326.833333333 99.3148148148 326.833333333 99.3148148148 360.813100137 c 0,121,122
 99.3148148148 379.259259259 99.3148148148 379.259259259 106 406 c 0,123,124
 109.088235294 418.970588235 109.088235294 418.970588235 136.602941176 418.970588235 c 128,-1,125
 164.117647059 418.970588235 164.117647059 418.970588235 180.933823529 416.860294118 c 128,-1,126
 197.75 414.75 197.75 414.75 200.75 414.75 c 128,-1,127
 203.75 414.75 203.75 414.75 209 414 c 1,128,-1
 229 405 l 1,129,-1
 238 402 l 1,130,-1
 422 382 l 1,131,-1
 427 381 l 2,132,133
 429.041666667 380.708333333 429.041666667 380.708333333 429.041666667 367.8125 c 128,-1,134
 429.041666667 354.916666667 429.041666667 354.916666667 417 294 c 1,135,-1
 418 293 l 1,136,137
 416.95 289.325 416.95 289.325 396.55 289.325 c 128,-1,138
 376.15 289.325 376.15 289.325 304 302 c 1,139,140
 172 310 172 310 138 318 c 1,141,-1
 139 321 l 2,142,143
 140.285714286 324.857142857 140.285714286 324.857142857 158.102040816 324.857142857 c 1,110,-1
395 370 m 1,144,-1
 388 370 l 1,145,-1
 387 368 l 1,146,-1
 397 365 l 1,147,-1
 404 365 l 1,148,-1
 405 367 l 1,149,-1
 395 370 l 1,144,-1
338 370 m 1,150,-1
 351 367 l 2,151,152
 362 364 362 364 365 370 c 1,153,-1
 362 371 l 1,154,155
 338 376 338 376 338 370 c 1,150,-1
278 376 m 1,156,-1
 278 373 l 1,157,158
 289.44 369.88 289.44 369.88 293 377 c 1,159,160
 280.1 379.15 280.1 379.15 278 376 c 1,156,-1
408 342 m 1,161,162
 397.545454545 348.272727273 397.545454545 348.272727273 371.227272727 348.272727273 c 128,-1,163
 344.909090909 348.272727273 344.909090909 348.272727273 344 346 c 1,164,-1
 367 340 l 2,165,166
 386.2 335.733333333 386.2 335.733333333 395.666666667 335.733333333 c 0,167,168
 405.911111111 335.733333333 405.911111111 335.733333333 408 342 c 1,161,162
262 377 m 1,169,170
 255.5 380.25 255.5 380.25 242.5 380.25 c 128,-1,171
 229.5 380.25 229.5 380.25 224 380 c 1,172,-1
 223 376 l 1,173,174
 229.545454545 372.727272727 229.545454545 372.727272727 241.954545455 372.727272727 c 128,-1,175
 254.363636364 372.727272727 254.363636364 372.727272727 262 376 c 1,176,-1
 262 377 l 1,169,170
133 401 m 1,177,-1
 128 405 l 1,178,-1
 123 402 l 1,179,-1
 119 388 l 1,180,181
 123.545454545 383.454545455 123.545454545 383.454545455 126.272727273 386.727272727 c 0,182,183
 130.785714286 392.142857143 130.785714286 392.142857143 133 401 c 1,177,-1
161 397 m 1,184,-1
 155 394 l 1,185,-1
 155 392 l 1,186,-1
 161 390 l 1,187,-1
 164 393 l 1,188,-1
 165 395 l 1,189,-1
 161 397 l 1,184,-1
323 350 m 1,190,-1
 321 350 l 1,191,-1
 320 348 l 1,192,-1
 326 346 l 1,193,-1
 323 350 l 1,190,-1
302 319 m 1,194,195
 380.346153846 302.038461538 380.346153846 302.038461538 390.432692308 302.038461538 c 128,-1,196
 400.519230769 302.038461538 400.519230769 302.038461538 402 305 c 1,197,198
 402 309.5 402 309.5 396 314 c 1,199,-1
 395 314 l 1,200,201
 360.333333333 321.111111111 360.333333333 321.111111111 334.166666667 321.111111111 c 128,-1,202
 308 321.111111111 308 321.111111111 302 321 c 1,203,-1
 301 319 l 1,204,-1
 302 319 l 1,194,195
119 375 m 1,205,-1
 115 374 l 1,206,-1
 114 370 l 1,207,-1
 118 370 l 1,208,-1
 121 372 l 1,209,-1
 122 374 l 1,210,-1
 119 375 l 1,205,-1
EndSplineSet
EndChar

StartChar: greater
Encoding: 62 62 33
Width: 318
Flags: W
HStem: 234 13<180.913 191 219.304 236> 460 18<87 91>
VStem: 63 41<113 124.877> 63 11<127 128> 91 24<445.658 453.968> 130 54<331.345 358>
LayerCount: 2
Fore
SplineSet
111 478 m 1,0,1
 136 474 136 474 136 456 c 1,2,-1
 135 452 l 1,3,-1
 134 452 l 1,4,-1
 122 454 l 1,5,6
 117 453 117 453 115 449 c 1,7,-1
 115 445 l 1,8,-1
 126 445 l 1,9,-1
 142 447 l 1,10,11
 227 343 227 343 234 313 c 1,12,13
 257 284 257 284 257 276.5 c 128,-1,14
 257 269 257 269 270 262 c 1,15,-1
 279 247 l 1,16,17
 276 227 276 227 214 173 c 1,18,19
 158.5 111.5 158.5 111.5 142 83 c 1,20,-1
 138 83 l 1,21,-1
 138 85 l 1,22,-1
 139 99 l 1,23,-1
 138 100 l 1,24,-1
 136 100 l 1,25,26
 120 89 120 89 89 75 c 1,27,-1
 87 77 l 1,28,-1
 87 78 l 1,29,-1
 90 94 l 2,30,31
 90 98 90 98 69 105 c 1,32,-1
 63 111 l 1,33,-1
 63 128 l 1,34,-1
 59 138 l 1,35,36
 67 172 67 172 145 253 c 1,37,38
 150 253 150 253 150 257 c 2,39,-1
 150 258 l 2,40,41
 150 271 150 271 65 402 c 1,42,43
 46 428 46 428 46 436 c 1,44,-1
 51 438 l 1,45,-1
 66 432 l 1,46,-1
 68 432 l 1,47,-1
 78 445 l 1,48,49
 91 452 91 452 91 460 c 1,50,-1
 87 460 l 1,51,-1
 63 449 l 1,52,-1
 63 450 l 1,53,-1
 62 452 l 1,54,55
 76 478 76 478 111 478 c 1,0,1
79 408 m 1,56,57
 79 400 79 400 102 374 c 1,58,59
 102 369 102 369 135 327 c 1,60,-1
 180 257 l 1,61,62
 180 248 180 248 195 247 c 1,63,-1
 197 247 l 1,64,-1
 201 251 l 1,65,-1
 150 331 l 1,66,67
 130 342 130 342 130 358 c 1,68,69
 109 384 109 384 102 402 c 1,70,71
 92 417 92 417 87 417 c 128,-1,72
 82 417 82 417 79 408 c 1,56,57
184 358 m 1,73,-1
 184 357 l 1,74,75
 188 342 188 342 236 266 c 1,76,-1
 234 262 l 1,77,-1
 233 262 l 2,78,79
 225.5 262 225.5 262 197 292 c 1,80,-1
 197 290 l 1,81,82
 210 250 210 250 230 250 c 2,83,-1
 254 249 l 1,84,-1
 254 251 l 1,85,86
 236 272 236 272 205 334 c 1,87,88
 191.5 358 191.5 358 184 358 c 1,73,-1
74 131 m 2,89,-1
 74 127 l 1,90,-1
 76 124 l 1,91,-1
 79 124 l 2,92,93
 87 124 87 124 124 158 c 1,94,95
 175 198 175 198 191 234 c 1,96,-1
 188 234 l 2,97,98
 180 234 180 234 79 135 c 1,99,100
 74 133 74 133 74 131 c 2,89,-1
206 217 m 1,101,-1
 206 214 l 1,102,-1
 208 214 l 2,103,104
 240 214 240 214 240 228 c 2,105,-1
 240 229 l 1,106,-1
 236 234 l 1,107,-1
 230 234 l 2,108,109
 221 234 221 234 206 217 c 1,101,-1
104 117 m 2,110,-1
 104 113 l 1,111,-1
 108 111 l 1,112,113
 130 111 130 111 160 154 c 1,114,115
 166 156 166 156 170 167 c 1,116,117
 196 167 196 167 206 195 c 1,118,-1
 206 201 l 1,119,-1
 201 201 l 1,120,121
 104 122 104 122 104 117 c 2,110,-1
EndSplineSet
EndChar

StartChar: question
Encoding: 63 63 34
Width: 455
Flags: W
HStem: 127 19<318.734 351.898> 491 7<367 372.812> 499 3<74 76> 658 50<198 260.372> 658 22<242 246> 727 15<214.167 258>
VStem: 74 2<499 502> 259 35<324 337 354.006 396.83> 266 44<72.1248 91.2698> 279 84<264.289 321.391> 306 48<324.122 340.844 357.342 396.631> 335 19<355.271 358> 354 48<113 125.579> 380 47<603.033 615> 388 62<499.312 546> 434 16<603 613.545>
LayerCount: 2
Fore
SplineSet
198 727 m 1,0,1
 225 742 225 742 253.5 742 c 128,-1,2
 282 742 282 742 354 712 c 1,3,4
 450 668 450 668 450 590 c 2,5,-1
 450 551 l 2,6,7
 450 512 450 512 423 469 c 1,8,9
 408 415 408 415 398 415 c 1,10,11
 354 394 354 394 354 379 c 2,12,-1
 354 368 l 2,13,14
 354 327.5 354 327.5 363 284 c 1,15,16
 360 226 360 226 349 226 c 0,17,18
 341 226 341 226 310 206 c 1,19,-1
 298 204 l 1,20,21
 279 204 279 204 279 225 c 1,22,23
 259 340 259 340 259 391 c 0,24,25
 259 402 259 402 313 446 c 1,26,27
 341.5 474.5 341.5 474.5 346 488 c 1,28,29
 358 501 358 501 360 501 c 2,30,-1
 370 498 l 1,31,32
 379 498 379 498 388 542 c 1,33,-1
 388 546 l 1,34,-1
 377 566 l 1,35,-1
 377 570 l 1,36,-1
 376 570 l 1,37,-1
 380 581 l 1,38,-1
 380 596 l 2,39,40
 380 607 380 607 362 622 c 1,41,42
 354 645 354 645 335 645 c 1,43,44
 299 658 299 658 253 658 c 2,45,-1
 242 658 l 2,46,47
 183 658 183 658 130 578 c 1,48,-1
 87 522 l 1,49,-1
 87 519 l 1,50,51
 74.1730769231 502.826923077 74.1730769231 502.826923077 63.5096153846 502.826923077 c 128,-1,52
 52.8461538462 502.826923077 52.8461538462 502.826923077 38.4230769231 519.413461538 c 128,-1,53
 24 536 24 536 24 547 c 1,54,-1
 37 589 l 1,55,56
 50.5 619 50.5 619 85 649 c 0,57,58
 147 701 147 701 198 727 c 1,0,1
198 710 m 1,59,-1
 198 708 l 1,60,-1
 210 708 l 2,61,62
 241 708 241 708 261 721 c 1,63,-1
 261 725 l 1,64,-1
 258 727 l 1,65,-1
 247 727 l 2,66,67
 221 727 221 727 198 710 c 1,59,-1
302 712 m 1,68,-1
 298 710 l 1,69,-1
 298 708 l 2,70,71
 298 706 298 706 306 704 c 1,72,73
 318 705.5 318 705.5 318 710 c 1,74,-1
 315 712 l 1,75,-1
 302 712 l 1,68,-1
171 690 m 1,76,-1
 174 687 l 1,77,-1
 188 691 l 1,78,-1
 188 697 l 1,79,-1
 186 697 l 2,80,81
 174 697 174 697 171 690 c 1,76,-1
376 684 m 1,82,-1
 374 682 l 1,83,84
 381.5 665.5 381.5 665.5 404 658 c 1,85,-1
 410 658 l 1,86,-1
 410 659 l 2,87,88
 410 666 410 666 376 684 c 1,82,-1
100 642 m 1,89,90
 121 642 121 642 146 667 c 1,91,92
 158 672 158 672 158 674 c 2,93,-1
 158 676 l 1,94,-1
 150 682 l 1,95,-1
 149 682 l 2,96,97
 144 682 144 682 108 658 c 0,98,99
 100 653 100 653 100 642 c 1,89,90
246 682 m 1,100,-1
 242 682 l 1,101,-1
 242 680 l 1,102,-1
 246 680 l 1,103,-1
 246 682 l 1,100,-1
87 632 m 1,104,-1
 82 626 l 1,105,-1
 82 624 l 1,106,-1
 83 624 l 1,107,108
 89 626 89 626 89 632 c 1,109,-1
 87 632 l 1,104,-1
429 615 m 1,110,-1
 427 615 l 1,111,-1
 427 613 l 2,112,113
 427 604 427 604 433 603 c 1,114,-1
 434 603 l 1,115,-1
 434 604 l 2,116,117
 434 612 434 612 429 615 c 1,110,-1
115 600 m 2,118,-1
 115 598 l 1,119,-1
 117 598 l 1,120,121
 122 600 122 600 125 607 c 1,122,-1
 125 609 l 1,123,-1
 122 611 l 1,124,125
 115 608 115 608 115 600 c 2,118,-1
52 581 m 2,126,-1
 52 579 l 1,127,-1
 57 578 l 1,128,129
 72 587 72 587 72 598 c 2,130,-1
 72 602 l 1,131,-1
 69 602 l 1,132,133
 52 590 52 590 52 581 c 2,126,-1
69 555 m 1,134,-1
 66 553 l 1,135,-1
 66 550 l 1,136,-1
 69 550 l 1,137,-1
 72 553 l 1,138,-1
 72 555 l 1,139,-1
 69 555 l 1,134,-1
74 502 m 1,140,-1
 76 502 l 1,141,-1
 76 499 l 1,142,-1
 74 499 l 1,143,-1
 74 502 l 1,140,-1
373 491 m 1,144,-1
 367 491 l 1,145,-1
 367 486 l 1,146,-1
 370 486 l 1,147,-1
 373 490 l 1,148,-1
 373 491 l 1,144,-1
376 439 m 2,149,-1
 376 436 l 1,150,-1
 378 436 l 2,151,152
 388.5 436 388.5 436 390 442 c 1,153,-1
 388 443 l 1,154,-1
 387 443 l 1,155,156
 376 441 376 441 376 439 c 2,149,-1
287 383 m 2,157,-1
 287 380 l 2,158,159
 287 354 287 354 302 354 c 0,160,161
 304 354 304 354 306 363 c 1,162,163
 305 397 305 397 300 397 c 2,164,-1
 294 397 l 1,165,166
 287 394 287 394 287 383 c 2,157,-1
332 358 m 1,167,-1
 330 355 l 1,168,-1
 330 354 l 1,169,-1
 335 354 l 1,170,-1
 335 358 l 1,171,-1
 332 358 l 1,167,-1
298 341 m 1,172,-1
 294 337 l 1,173,-1
 294 334 l 2,174,175
 294 326 294 326 302 323 c 1,176,-1
 304 323 l 1,177,-1
 306 330 l 1,178,179
 306 336 306 336 298 341 c 1,172,-1
310 264 m 1,180,-1
 304 258 l 1,181,-1
 309 245 l 1,182,-1
 304 226 l 1,183,-1
 311 226 l 2,184,185
 319 226 319 226 324 234 c 1,186,-1
 324 239 l 1,187,188
 320 242 320 242 320 260 c 1,189,-1
 314 264 l 1,190,-1
 310 264 l 1,180,-1
382 107 m 1,191,-1
 382 103 l 1,192,-1
 388 85 l 2,193,194
 394.25 69.0625 394.25 69.0625 394.25 55.2734375 c 0,195,196
 394.25 24.9375 394.25 24.9375 364 5 c 1,197,198
 361.123287671 4.87671232877 361.123287671 4.87671232877 358.324263464 4.87671232877 c 0,199,200
 293.01369863 4.87671232877 293.01369863 4.87671232877 270 72 c 1,201,-1
 266 89 l 1,202,203
 266 113 266 113 326 146 c 1,204,205
 344 146 344 146 386 122 c 1,206,207
 402 118 402 118 402 114 c 128,-1,208
 402 110 402 110 382 107 c 1,191,-1
326 127 m 2,209,-1
 318 127 l 1,210,-1
 318 126 l 1,211,212
 323 118 323 118 352 111 c 1,213,-1
 354 113 l 1,214,-1
 354 116 l 1,215,216
 345 127 345 127 326 127 c 2,209,-1
310 79 m 0,217,218
 310 76 310 76 320 72 c 1,219,220
 322 66 322 66 324 66 c 2,221,-1
 326 66 l 1,222,-1
 339 82 l 1,223,224
 339 89 339 89 332 92 c 1,225,-1
 315 92 l 1,226,227
 310 90 310 90 310 79 c 0,217,218
EndSplineSet
EndChar

StartChar: at
Encoding: 64 64 35
Width: 869
Flags: W
HStem: -30 12<440 444.301> 0 21G<406 506> 6 15<387 406> 21 45<307 316 412.728 419> 162 14<604.232 656> 225 18<120 121 126 130.861 379.212 449.448 677.083 692> 256 34<378.534 425> 432 13<94 95.8281> 574 5G<138.5 147.5 574 591 609.5 622> 592 21G<142 146.5> 614 16<467.071 502.227> 750 23<378.41 401.109> 790 22<518.082 537.996>
VStem: 59 33<334.869 366 428 432 448 493.129> 59 19<314.995 342> 106 36<333 371.191> 270 16<364.836 410.54> 298 36<364 406.528> 527 28<743.07 749.47> 576 34<271.157 284 510 510 540 553.621> 617 18<512.305 554.905 570 578.885> 726 12<186.104 187> 792 12<246.125 265.908> 814 16<385 489.328>
LayerCount: 2
Fore
SplineSet
454 818 m 1,0,-1
 490 824 l 1,1,2
 521 812 521 812 557 812 c 1,3,4
 563 806 563 806 611 796 c 1,5,-1
 658 757 l 1,6,7
 684 746 684 746 729 706 c 1,8,9
 751 702 751 702 751 694 c 1,10,-1
 748 683 l 1,11,12
 748 674 748 674 781 633 c 1,13,14
 805 592 805 592 818 529 c 1,15,16
 825 529 825 529 830 413 c 1,17,-1
 826 385 l 1,18,-1
 830 370 l 1,19,20
 819 276 819 276 804 254 c 1,21,22
 804 250 804 250 798 246 c 1,23,-1
 796 246 l 2,24,25
 792 246 792 246 792 252 c 1,26,27
 794 257 794 257 802 298 c 1,28,29
 810 306 810 306 810 314 c 2,30,-1
 810 318 l 1,31,-1
 803 333 l 1,32,33
 810 356 810 356 814 462 c 1,34,-1
 798 523 l 1,35,36
 798 553 798 553 782 582 c 1,37,-1
 781 578 l 1,38,39
 800 492 800 492 800 396 c 1,40,41
 789.5 288 789.5 288 782 288 c 1,42,43
 770 253.5 770 253.5 761 219 c 1,44,45
 738 187 738 187 738 179 c 1,46,-1
 742 179 l 1,47,48
 766 189 766 189 786 215 c 1,49,50
 792 215 792 215 811 228 c 1,51,-1
 814 228 l 1,52,-1
 814 226 l 2,53,54
 814 214 814 214 686 86 c 1,55,56
 670 82 670 82 652 58 c 1,57,58
 643 36 643 36 611 22 c 1,59,60
 471 -30 471 -30 440 -30 c 1,61,62
 428 -33 428 -33 367 -38 c 1,63,64
 305 0 305 0 218 75 c 1,65,66
 131 124.5 131 124.5 98 219 c 0,67,68
 59 334 59 334 59 364 c 2,69,-1
 59 394 l 2,70,71
 59 486 59 486 98 594 c 1,72,73
 142 666 142 666 176 701 c 1,74,75
 246 765 246 765 283 768 c 1,76,77
 292 771 292 771 327.5 790 c 128,-1,78
 363 809 363 809 454 818 c 1,0,-1
499 814 m 1,79,-1
 482 814 l 1,80,-1
 482 810 l 1,81,-1
 490 809 l 1,82,-1
 502 809 l 1,83,-1
 502 812 l 1,84,-1
 499 814 l 1,79,-1
454 798 m 1,85,-1
 451 795 l 1,86,-1
 451 794 l 1,87,-1
 471 790 l 1,88,-1
 482 792 l 1,89,-1
 482 796 l 1,90,-1
 475 798 l 1,91,-1
 454 798 l 1,85,-1
354 775 m 1,92,-1
 354 773 l 1,93,-1
 359 773 l 2,94,95
 380 773 380 773 408 788 c 1,96,-1
 408 790 l 1,97,-1
 404 790 l 1,98,99
 361 788 361 788 354 775 c 1,92,-1
520 790 m 1,100,-1
 518 790 l 1,101,-1
 518 786 l 1,102,-1
 523 781 l 1,103,-1
 538 781 l 1,104,105
 538 784 538 784 520 790 c 1,100,-1
440 786 m 1,106,-1
 438 784 l 1,107,108
 438 782 438 782 443 779 c 1,109,-1
 447 781 l 1,110,-1
 447 782 l 1,111,-1
 443 786 l 1,112,-1
 440 786 l 1,106,-1
589 785 m 1,113,-1
 578 784 l 1,114,-1
 578 781 l 2,115,116
 578 774 578 774 606 770 c 1,117,-1
 614 770 l 1,118,-1
 614 774 l 1,119,120
 606 785 606 785 589 785 c 1,113,-1
555 751 m 1,121,-1
 555 749 l 1,122,123
 558 742 558 742 591 739 c 1,124,125
 598 740 598 740 598 743 c 2,126,-1
 598 745 l 2,127,128
 598 749 598 749 563 757 c 1,129,130
 558 757 558 757 555 751 c 1,121,-1
701 243 m 1,131,132
 730.787096774 291.541935484 730.787096774 291.541935484 744 351 c 1,133,-1
 733 498 l 1,134,-1
 736 510 l 1,135,136
 711 622 711 622 701 654 c 1,137,138
 679 691 679 691 669 691 c 1,139,140
 637 714 637 714 527 745 c 1,141,142
 527 749 527 749 505 750 c 1,143,-1
 468 750 l 2,144,145
 391.5 750 391.5 750 348 726 c 1,146,147
 298 705 298 705 281 676 c 1,148,149
 249 636 249 636 221 618 c 1,150,151
 172 552 172 552 158 536 c 1,152,153
 153 480 153 480 148 467 c 1,154,-1
 146 466 l 1,155,156
 150.5 466 150.5 466 152 454 c 1,157,158
 146 337 146 337 142 325 c 1,159,-1
 142 318 l 1,160,161
 147 318 147 318 152 286 c 1,162,163
 170 218 170 218 205 189 c 1,164,165
 262 99 262 99 288 99 c 1,166,167
 400.2 66 400.2 66 462 66 c 2,168,-1
 473 66 l 1,169,170
 521 76 521 76 594 109 c 1,171,172
 613 113 613 113 649 146 c 1,173,-1
 656 157 l 1,174,-1
 656 162 l 1,175,176
 594 167 594 167 594 174 c 1,177,178
 581 174 581 174 559 250 c 1,179,-1
 559 260 l 1,180,-1
 561 280 l 1,181,182
 558 291 558 291 555 291 c 1,183,184
 534 283 534 283 457 235 c 1,185,186
 434 226 434 226 423 226 c 2,187,-1
 422 226 l 2,188,189
 356 226 356 226 326 266 c 1,190,191
 298 289 298 289 294 314 c 1,192,193
 270 371 270 371 270 386 c 0,194,195
 270 446 270 446 302 510 c 1,196,197
 320 528 320 528 330 551 c 1,198,199
 400 630 400 630 474 630 c 0,200,201
 508 630 508 630 572 578 c 1,202,-1
 574 578 l 1,203,-1
 580 594 l 1,204,-1
 583 594 l 1,205,-1
 591 590 l 1,206,-1
 593 590 l 2,207,208
 606 590 606 590 613 594 c 1,209,-1
 622 585 l 1,210,211
 635 585 635 585 635 562 c 0,212,213
 635 452 635 452 610 376 c 1,214,215
 593 373 593 373 593 370 c 1,216,217
 602 370 602 370 610 271 c 1,218,219
 610 242 610 242 641 214 c 1,220,-1
 642 214 l 2,221,222
 650 214 650 214 695 247 c 1,223,-1
 699 247 l 1,224,-1
 699 243 l 1,225,-1
 701 243 l 1,131,132
619 738 m 1,226,-1
 613 736 l 1,227,-1
 613 734 l 2,228,229
 613 730 613 730 653 715 c 1,230,-1
 658 715 l 1,231,-1
 658 718 l 2,232,233
 658 722 658 722 642 726 c 1,234,235
 638 738 638 738 625 738 c 2,236,-1
 619 738 l 1,226,-1
242 661 m 2,237,-1
 242 659 l 1,238,-1
 244 656 l 1,239,240
 259 656 259 656 288 706 c 1,241,-1
 288 708 l 1,242,-1
 285 711 l 1,243,-1
 274 711 l 1,244,245
 242 671 242 671 242 661 c 2,237,-1
692 702 m 1,246,-1
 690 702 l 1,247,-1
 690 701 l 1,248,249
 695 688 695 688 734 646 c 1,250,251
 734 639 734 639 744 638 c 1,252,-1
 746 639 l 1,253,-1
 746 641 l 1,254,-1
 706 691 l 1,255,-1
 692 702 l 1,246,-1
238 650 m 1,256,-1
 234 648 l 1,257,-1
 238 648 l 1,258,-1
 238 650 l 1,256,-1
120 555 m 1,259,-1
 122 555 l 2,260,261
 134 555 134 555 143 579 c 1,262,-1
 146 579 l 2,263,264
 149 579 149 579 149 575 c 1,265,-1
 150 574 l 1,266,-1
 152 574 l 2,267,268
 166 574 166 574 174 607 c 1,269,-1
 174 609 l 1,270,-1
 170 609 l 1,271,272
 150 592 150 592 143 592 c 2,273,-1
 142 592 l 1,274,275
 142 599 142 599 174 631 c 1,276,-1
 177 639 l 1,277,-1
 176 641 l 1,278,279
 120 609 120 609 120 555 c 1,259,-1
482 614 m 1,280,-1
 466 614 l 1,281,-1
 466 609 l 1,282,283
 512 583 512 583 561 543 c 1,284,-1
 569 540 l 1,285,-1
 572 540 l 1,286,-1
 572 544 l 1,287,288
 538 597 538 597 482 614 c 1,280,-1
401 586 m 1,289,-1
 401 582 l 1,290,-1
 406 582 l 2,291,292
 419 582 419 582 426 592 c 1,293,-1
 423 594 l 1,294,-1
 418 594 l 2,295,296
 406 594 406 594 401 586 c 1,289,-1
615 579 m 1,297,-1
 611 575 l 1,298,-1
 611 566 l 1,299,-1
 614 566 l 1,300,-1
 617 570 l 1,301,-1
 617 579 l 1,302,-1
 615 579 l 1,297,-1
742 575 m 1,303,-1
 738 575 l 1,304,-1
 738 572 l 1,305,306
 742 553 742 553 747 553 c 1,307,-1
 750 557 l 1,308,-1
 750 562 l 2,309,310
 750 570 750 570 742 575 c 1,303,-1
334 439 m 1,311,-1
 334 432 l 2,312,313
 334 352.5 334 352.5 361 330 c 1,314,315
 398 305 398 305 426 305 c 2,316,-1
 440 305 l 1,317,318
 494 314 494 314 494 327 c 1,319,320
 527 352 527 352 536.5 393.5 c 128,-1,321
 546 435 546 435 546 467 c 2,322,-1
 546 476 l 2,323,324
 546 504 546 504 512 547 c 1,325,326
 495 559 495 559 473 561 c 1,327,-1
 454 561 l 2,328,329
 423 561 423 561 378 522 c 1,330,331
 378 513 378 513 358 502 c 1,332,333
 344.5 502 344.5 502 334 439 c 1,311,-1
610 555 m 1,334,-1
 608 555 l 1,335,336
 609.5 510 609.5 510 614 510 c 2,337,-1
 615 510 l 1,338,-1
 617 523 l 1,339,-1
 617 542 l 2,340,341
 617 552 617 552 610 555 c 1,334,-1
124 540 m 1,342,-1
 126 540 l 1,343,-1
 131 544 l 1,344,-1
 131 549 l 1,345,346
 124 546 124 546 124 540 c 1,342,-1
111 525 m 2,347,-1
 111 522 l 1,348,-1
 113 522 l 1,349,350
 121 528 121 528 121 534 c 1,351,-1
 120 536 l 1,352,-1
 118 536 l 1,353,354
 111 533 111 533 111 525 c 2,347,-1
559 516 m 1,355,-1
 572 474 l 1,356,-1
 576 474 l 1,357,-1
 576 495 l 2,358,359
 576 510 576 510 562 521 c 1,360,361
 559 521 559 521 559 516 c 1,355,-1
758 518 m 1,362,-1
 755 515 l 1,363,-1
 755 512 l 2,364,365
 755 489 755 489 759 466 c 1,366,367
 757 456 757 456 751 449 c 1,368,-1
 751 445 l 1,369,370
 756 445 756 445 761 379 c 1,371,-1
 762 378 l 1,372,-1
 764 378 l 2,373,374
 770 378 770 378 775 422 c 1,375,-1
 768 459 l 1,376,-1
 770 467 l 1,377,-1
 770 476 l 2,378,379
 770 510.5 770 510.5 758 518 c 1,362,-1
92 456 m 1,380,-1
 92 448 l 1,381,-1
 94 445 l 1,382,383
 101.5 445 101.5 445 106 493 c 1,384,-1
 104 494 l 1,385,-1
 102 494 l 2,386,387
 94 494 94 494 92 456 c 1,380,-1
96 432 m 1,388,-1
 93 432 l 1,389,-1
 93 428 l 1,390,-1
 96 428 l 1,391,-1
 96 432 l 1,388,-1
582 396 m 1,392,-1
 586 396 l 1,393,394
 593 399 593 399 593 407 c 2,395,-1
 593 411 l 1,396,-1
 590 431 l 1,397,398
 585 431 585 431 582 396 c 1,392,-1
286 400 m 2,399,-1
 286 382 l 1,400,401
 289 364 289 364 294 364 c 2,402,-1
 298 364 l 1,403,-1
 298 368 l 1,404,-1
 290 411 l 1,405,406
 286 410 286 410 286 400 c 2,399,-1
96 372 m 1,407,-1
 90 366 l 1,408,-1
 90 365 l 1,409,410
 95 362 95 362 102 334 c 1,411,-1
 103 333 l 1,412,-1
 106 333 l 1,413,-1
 106 334 l 2,414,415
 106 346 106 346 100 372 c 1,416,-1
 96 372 l 1,407,-1
81 344 m 1,417,-1
 78 342 l 1,418,-1
 78 327 l 1,419,420
 80 312 80 312 85 312 c 2,421,-1
 86 312 l 2,422,423
 90 312 90 312 90 325 c 128,-1,424
 90 338 90 338 82 344 c 1,425,-1
 81 344 l 1,417,-1
576 329 m 1,426,-1
 574 326 l 1,427,-1
 574 320 l 1,428,-1
 578 323 l 1,429,-1
 578 329 l 1,430,-1
 576 329 l 1,426,-1
363 309 m 1,431,432
 363 293 363 293 408 290 c 1,433,-1
 425 290 l 1,434,-1
 428 292 l 1,435,436
 428 295 428 295 363 309 c 1,431,432
453 297 m 2,437,-1
 453 295 l 1,438,-1
 456 292 l 1,439,440
 469 292 469 292 478 303 c 1,441,-1
 478 306 l 1,442,-1
 471 306 l 1,443,444
 453 301.5 453 301.5 453 297 c 2,437,-1
462 266 m 1,445,-1
 462 263 l 1,446,-1
 468 263 l 2,447,448
 491 263 491 263 523 298 c 1,449,-1
 520 301 l 1,450,451
 465 269 465 269 462 266 c 1,445,-1
566 271 m 1,452,-1
 570 267 l 1,453,454
 576 270 576 270 576 277 c 2,455,-1
 576 284 l 1,456,-1
 574 284 l 2,457,458
 569 284 569 284 566 271 c 1,452,-1
118 281 m 1,459,-1
 115 278 l 1,460,-1
 115 275 l 1,461,-1
 126 243 l 1,462,-1
 132 243 l 1,463,-1
 132 253 l 2,464,465
 132 267 132 267 118 281 c 1,459,-1
726 247 m 1,466,-1
 726 245 l 1,467,-1
 727 245 l 1,468,469
 748 267.5 748 267.5 748 278 c 1,470,-1
 746 281 l 1,471,472
 733 281 733 281 726 247 c 1,466,-1
378 252 m 1,473,-1
 378 247 l 1,474,-1
 395 245 l 1,475,-1
 425 245 l 1,476,477
 450 246 450 246 450 251 c 128,-1,478
 450 256 450 256 422.5 256 c 128,-1,479
 395 256 395 256 378 252 c 1,473,-1
113 252 m 1,480,-1
 110 252 l 1,481,-1
 110 250 l 2,482,483
 110 243 110 243 115 241 c 1,484,-1
 121 241 l 1,485,-1
 121 243 l 1,486,-1
 113 252 l 1,480,-1
708 241 m 1,487,-1
 705 238 l 1,488,-1
 705 235 l 1,489,-1
 709 230 l 1,490,-1
 714 230 l 1,491,-1
 714 232 l 2,492,493
 714 239 714 239 709 241 c 1,494,-1
 708 241 l 1,487,-1
662 202 m 1,495,-1
 663 202 l 1,496,497
 674 208 674 208 692 226 c 1,498,-1
 692 230 l 1,499,-1
 691 230 l 2,500,501
 672 230 672 230 662 202 c 1,495,-1
120 225 m 1,502,-1
 117 222 l 1,503,-1
 117 218 l 1,504,505
 129 178 129 178 139 174 c 1,506,-1
 146 174 l 1,507,-1
 149 176 l 1,508,509
 131 225 131 225 121 225 c 2,510,-1
 120 225 l 1,502,-1
624 213 m 1,511,-1
 608 213 l 1,512,-1
 608 211 l 2,513,514
 608 206 608 206 622 206 c 1,515,-1
 626 207 l 1,516,-1
 626 210 l 1,517,-1
 624 213 l 1,511,-1
586 207 m 1,518,519
 597 178 597 178 622 178 c 1,520,-1
 646 176 l 1,521,-1
 662 178 l 1,522,-1
 662 180 l 1,523,524
 657 186 657 186 610 197 c 1,525,526
 591 207 591 207 586 207 c 1,518,519
686 202 m 1,527,-1
 684 198 l 1,528,-1
 684 197 l 2,529,530
 684 194 684 194 688 194 c 1,531,532
 693 197 693 197 695 200 c 1,533,-1
 695 202 l 1,534,-1
 686 202 l 1,527,-1
576 84 m 1,535,-1
 578 82 l 1,536,-1
 579 82 l 1,537,538
 635 94 635 94 674 135.5 c 128,-1,539
 713 177 713 177 726 193 c 1,540,-1
 726 196 l 2,541,542
 726 198 726 198 722 198 c 1,543,544
 705 190 705 190 628 116 c 1,545,546
 577 87 577 87 576 84 c 1,535,-1
160 189 m 1,547,548
 163 176 163 176 167 176 c 2,549,-1
 169 176 l 1,550,-1
 171 179 l 1,551,-1
 171 180 l 1,552,553
 168 189 168 189 160 189 c 1,547,548
734 165 m 1,554,-1
 730 161 l 1,555,-1
 733 158 l 1,556,-1
 736 158 l 1,557,-1
 740 162 l 1,558,-1
 737 165 l 1,559,-1
 734 165 l 1,554,-1
719 162 m 1,560,-1
 716 159 l 1,561,-1
 716 158 l 1,562,-1
 722 158 l 1,563,-1
 722 162 l 1,564,-1
 719 162 l 1,560,-1
656 90 m 1,565,-1
 656 86 l 1,566,-1
 663 86 l 2,567,568
 683 86 683 86 695 109 c 1,569,-1
 695 114 l 1,570,571
 680 114 680 114 656 90 c 1,565,-1
226 98 m 1,572,-1
 221 98 l 1,573,-1
 221 96 l 1,574,575
 235 76 235 76 258 67 c 1,576,-1
 262 68 l 1,577,-1
 262 71 l 1,578,-1
 226 98 l 1,572,-1
503 47 m 1,579,-1
 503 45 l 1,580,-1
 505 45 l 2,581,582
 545 45 545 45 615 74 c 1,583,-1
 615 77 l 1,584,585
 580 77 580 77 503 47 c 1,579,-1
406 0 m 1,586,-1
 406 1 l 2,587,588
 406 6 406 6 386 6 c 2,589,-1
 365 6 l 2,590,591
 333 6 333 6 333 0 c 1,592,593
 354 -26 354 -26 369.5 -26 c 128,-1,594
 385 -26 385 -26 457 -2 c 1,595,596
 499 -2 499 -2 594 32 c 1,597,598
 626 46 626 46 650 74 c 1,599,-1
 650 77 l 1,600,-1
 647 77 l 2,601,602
 638 77 638 77 606 47 c 1,603,604
 591 47 591 47 546 28 c 1,605,-1
 406 0 l 1,586,-1
303 74 m 1,606,-1
 300 71 l 1,607,608
 308 66 308 66 316 66 c 1,609,-1
 318 68 l 1,610,-1
 318 70 l 2,611,612
 318 74 318 74 307 74 c 2,613,-1
 303 74 l 1,606,-1
356 51 m 1,614,-1
 346 51 l 1,615,-1
 346 50 l 2,616,617
 346 46 346 46 359 45 c 1,618,-1
 361 46 l 1,619,-1
 361 47 l 1,620,-1
 356 51 l 1,614,-1
384 23 m 1,621,-1
 387 21 l 1,622,-1
 402 21 l 2,623,624
 419 21 419 21 419 26 c 2,625,-1
 419 28 l 1,626,-1
 412 29 l 1,627,628
 384 28 384 28 384 23 c 1,621,-1
307 21 m 1,629,-1
 305 18 l 1,630,-1
 305 15 l 2,631,632
 305 11 305 11 320 11 c 1,633,-1
 328 12 l 1,634,-1
 328 15 l 2,635,636
 328 19 328 19 314 21 c 1,637,-1
 307 21 l 1,629,-1
445 -18 m 1,638,-1
 442 -16 l 1,639,-1
 440 -17 l 1,640,-1
 440 -18 l 1,641,-1
 445 -18 l 1,638,-1
EndSplineSet
EndChar

StartChar: A
Encoding: 65 65 36
Width: 638
Flags: W
HStem: -10 5<513.739 525.275> -4 74<38 52 73 74 133.126 205.959 630.141 645> 12 17<610.049 629.931> 40 24<607.235 625> 174 12<566 567> 187 73<216.626 462> 242 18<380 397> 719 20G<336 377.5>
VStem: 26 15<67 83.6484> 52 81<73.7383 102.999> 129 4<146 153> 174 28<426 430 433 435.892> 451 3<274 279>
LayerCount: 2
Fore
SplineSet
562 184 m 1,0,-1
 567 186 l 1,1,-1
 567 174 l 1,2,-1
 566 174 l 1,3,-1
 570 160 l 1,4,-1
 591 114 l 1,5,-1
 597 87 l 1,6,-1
 594 74 l 1,7,8
 608 65 608 65 622 64 c 1,9,-1
 645 64 l 1,10,-1
 646 65 l 1,11,12
 659 62 659 62 660 59 c 1,13,-1
 653 46 l 1,14,-1
 654 27 l 2,15,16
 654 17 654 17 643 3 c 1,17,-1
 639 3 l 1,18,19
 630 12 630 12 625 12 c 2,20,-1
 622 12 l 2,21,22
 611.5 12 611.5 12 610 6 c 0,23,24
 610 3 610 3 630 1 c 1,25,-1
 630 -2 l 2,26,27
 630 -7 630 -7 617 -8 c 1,28,-1
 602 -3 l 1,29,-1
 591 -3 l 1,30,-1
 522 -10 l 1,31,32
 499 -10 499 -10 464 18 c 1,33,-1
 473 27 l 1,34,-1
 473 31 l 1,35,-1
 462 55 l 1,36,37
 462 68 462 68 503 68 c 1,38,-1
 505 70 l 1,39,-1
 505 74 l 2,40,41
 505 125 505 125 459 187 c 1,42,-1
 458 187 l 1,43,44
 342.5 178 342.5 178 188 163 c 1,45,-1
 163 163 l 1,46,47
 159 159 159 159 133 75 c 1,48,-1
 133 74 l 1,49,50
 137 70 137 70 146 70 c 2,51,-1
 168 70 l 2,52,53
 206 70 206 70 234 39 c 1,54,-1
 234 38 l 2,55,56
 234 29 234 29 206 8 c 1,57,58
 206 -4 206 -4 37 -4 c 1,59,60
 9 -3 9 -3 9 2 c 1,61,-1
 13 17 l 1,62,-1
 13 18 l 2,63,64
 13 22 13 22 4 38 c 1,65,66
 4 45 4 45 24 54 c 1,67,-1
 26 58 l 1,68,-1
 26 74 l 2,69,70
 26 84 26 84 37 84 c 1,71,-1
 41 80 l 1,72,-1
 37 67 l 1,73,-1
 38 66 l 1,74,-1
 39 66 l 1,75,76
 52 85 52 85 52 92 c 2,77,-1
 52 97 l 2,78,79
 52 103 52 103 49 103 c 1,80,81
 59.5 125.5 59.5 125.5 67 157 c 1,82,-1
 125 317 l 1,83,-1
 146 369 l 1,84,85
 146 379 146 379 166 402 c 1,86,-1
 166 405 l 1,87,-1
 162 416 l 1,88,89
 174 424 174 424 174 430 c 1,90,-1
 171 433 l 1,91,92
 171 443 171 443 185 457 c 1,93,-1
 183 464 l 1,94,-1
 234 614 l 1,95,96
 257 655 257 655 269 694 c 1,97,98
 273 694 273 694 286 716 c 1,99,100
 327 737 327 737 345 739 c 1,101,102
 410 730 410 730 410 714 c 1,103,-1
 463 556 l 1,104,-1
 499 429 l 1,105,106
 522 317 522 317 562 184 c 1,0,-1
185 245 m 1,107,-1
 185 239 l 1,108,-1
 188 237 l 1,109,110
 337 260 337 260 417 260 c 2,111,-1
 462 260 l 1,112,-1
 466 264 l 1,113,-1
 466 266 l 1,114,115
 462 306 462 306 446 306 c 1,116,117
 402 435 402 435 379.5 505.5 c 128,-1,118
 357 576 357 576 349.5 591 c 128,-1,119
 342 606 342 606 338 609 c 1,120,121
 338 599 338 599 337 586 c 1,122,123
 255 424 255 424 224 374 c 1,124,125
 206 339.5 206 339.5 185 245 c 1,107,-1
607 31 m 1,126,-1
 607 29 l 1,127,-1
 608 29 l 2,128,129
 630 29 630 29 630 36 c 1,130,-1
 625 40 l 1,131,132
 614.5 40 614.5 40 607 31 c 1,126,-1
333 630 m 1,133,-1
 334 630 l 2,134,135
 345 630 345 630 345 639 c 2,136,-1
 345 643 l 1,137,-1
 341 643 l 1,138,139
 333 638 333 638 333 630 c 1,133,-1
367 722 m 2,140,-1
 361 722 l 1,141,-1
 361 717 l 1,142,-1
 365 713 l 1,143,-1
 373 713 l 1,144,-1
 376 716 l 1,145,-1
 376 717 l 1,146,147
 374 722 374 722 367 722 c 2,140,-1
380 242 m 1,148,-1
 378 238 l 1,149,-1
 380 236 l 1,150,-1
 386 236 l 2,151,152
 396 236 396 236 397 240 c 1,153,-1
 397 242 l 1,154,-1
 380 242 l 1,148,-1
554 149 m 1,155,-1
 522 149 l 1,156,-1
 522 145 l 1,157,-1
 554 147 l 1,158,-1
 554 149 l 1,155,-1
126 155 m 1,159,-1
 123 155 l 1,160,-1
 122 148 l 1,161,-1
 123 142 l 1,162,-1
 126 142 l 1,163,-1
 129 146 l 1,164,-1
 129 153 l 1,165,-1
 126 155 l 1,159,-1
513 -3 m 1,166,-1
 513 -5 l 1,167,-1
 518 -5 l 2,168,169
 525 -5 525 -5 526 -1 c 1,170,-1
 523 2 l 1,171,172
 515 2 515 2 513 -3 c 1,166,-1
82 147 m 1,173,-1
 74 140 l 1,174,-1
 74 137 l 1,175,176
 83 137 83 137 84 144 c 1,177,-1
 82 147 l 1,173,-1
449 279 m 1,178,-1
 453 285 l 1,179,-1
 454 283 l 1,180,-1
 454 274 l 1,181,-1
 451 271 l 1,182,-1
 449 279 l 1,178,-1
207 413 m 1,183,-1
 203 436 l 1,184,-1
 202 429 l 1,185,-1
 202 426 l 1,186,-1
 203 426 l 1,187,188
 203.225148227 424.949308276 203.225148227 424.949308276 203.642072906 423 c 2,189,-1
 207 411 l 1,190,-1
 207 413 l 1,183,-1
574 86 m 1,191,-1
 573 86 l 1,192,-1
 573 78 l 1,193,-1
 577 74 l 1,194,-1
 578 74 l 1,195,-1
 578 82 l 1,196,-1
 574 86 l 1,191,-1
74 74 m 1,197,-1
 70 73 l 1,198,-1
 70 70 l 1,199,-1
 73 67 l 1,200,-1
 74 67 l 1,201,-1
 77 70 l 1,202,-1
 74 74 l 1,197,-1
338 685 m 1,203,-1
 337 685 l 1,204,-1
 337 682 l 1,205,-1
 339 679 l 1,206,-1
 341 679 l 1,207,-1
 341 682 l 1,208,-1
 338 685 l 1,203,-1
297 220 m 1,209,-1
 293 220 l 1,210,-1
 293 217 l 1,211,-1
 297 217 l 1,212,-1
 297 220 l 1,209,-1
196 401 m 1,213,-1
 194 401 l 1,214,-1
 194 398 l 1,215,-1
 196 398 l 1,216,-1
 196 401 l 1,213,-1
EndSplineSet
EndChar

